<svg width="18" height="13" viewBox="0 0 18 13" fill="none" xmlns="http://www.w3.org/2000/svg">
<path fill-rule="evenodd" clip-rule="evenodd" d="M0 1.04C0 0.465624 0.460507 0 1.02857 0H5.01429C5.58235 0 6.04286 0.465624 6.04286 1.04C6.04286 1.61438 5.58235 2.08 5.01429 2.08H1.02857C0.460507 2.08 0 1.61438 0 1.04ZM7.97143 1.04C7.97143 0.465624 8.43194 0 9 0H16.9714C17.5395 0 18 0.465624 18 1.04C18 1.61438 17.5395 2.08 16.9714 2.08H9C8.43194 2.08 7.97143 1.61438 7.97143 1.04ZM0 6.76C0 6.18562 0.460507 5.72 1.02857 5.72H16.9714C17.5395 5.72 18 6.18562 18 6.76C18 7.33438 17.5395 7.8 16.9714 7.8H1.02857C0.460507 7.8 0 7.33438 0 6.76ZM16.9714 10.92C17.5395 10.92 18 11.3856 18 11.96C18 12.5344 17.5395 13 16.9714 13H12.9857C12.4176 13 11.9571 12.5344 11.9571 11.96C11.9571 11.3856 12.4176 10.92 12.9857 10.92H16.9714ZM9 10.92C9.56806 10.92 10.0286 11.3856 10.0286 11.96C10.0286 12.5344 9.56806 13 9 13H1.02857C0.460507 13 0 12.5344 0 11.96C0 11.3856 0.460507 10.92 1.02857 10.92H9Z" fill="white"/>
</svg>
