<svg width="24" height="24" viewBox="0 0 24 24" fill="none" xmlns="http://www.w3.org/2000/svg">
<path d="M5.883 18.6533C5.583 18.4533 5.32499 18.1983 5.02299 17.8373C4.86624 17.6454 4.7109 17.4524 4.557 17.2583C4.094 16.6833 3.802 16.4183 3.5 16.3093C3.25029 16.2196 3.04643 16.0345 2.93325 15.7945C2.82007 15.5546 2.80685 15.2795 2.8965 15.0298C2.98614 14.7801 3.1713 14.5762 3.41126 14.463C3.65121 14.3498 3.92629 14.3366 4.176 14.4263C4.928 14.6963 5.437 15.1613 6.123 16.0143C6.029 15.8973 6.463 16.4413 6.556 16.5533C6.746 16.7803 6.886 16.9183 6.996 16.9913C7.2 17.1283 7.583 17.1873 8.146 17.1313C8.169 16.7493 8.23999 16.3783 8.34799 16.0363C5.37999 15.3103 3.7 13.3963 3.7 9.64027C3.7 8.40027 4.06999 7.28427 4.758 6.34827C4.54 5.45427 4.573 4.37327 5.06 3.15627C5.11526 3.0186 5.20047 2.89496 5.30943 2.7943C5.4184 2.69363 5.54839 2.61847 5.69 2.57427C5.771 2.55027 5.81699 2.53927 5.89799 2.52727C6.70099 2.40427 7.83499 2.69727 9.31299 3.62327C10.1938 3.41735 11.0954 3.314 12 3.31527C12.912 3.31527 13.818 3.41927 14.684 3.62327C16.161 2.69027 17.297 2.39727 18.106 2.52727C18.191 2.54027 18.263 2.55727 18.324 2.57727C18.4628 2.62304 18.5899 2.6987 18.6964 2.79891C18.8028 2.89912 18.886 3.02144 18.94 3.15727C19.427 4.37327 19.46 5.45427 19.242 6.34727C19.933 7.28327 20.3 8.39227 20.3 9.64027C20.3 13.3973 18.626 15.3053 15.658 16.0323C15.783 16.4473 15.848 16.9113 15.848 17.4123C15.8481 18.3176 15.8441 19.223 15.836 20.1283C16.0606 20.1773 16.2614 20.3021 16.4047 20.4818C16.548 20.6615 16.625 20.8851 16.6228 21.115C16.6206 21.3448 16.5392 21.5669 16.3925 21.7438C16.2457 21.9207 16.0425 22.0416 15.817 22.0863C14.678 22.3143 13.834 21.5543 13.834 20.5613L13.836 20.1153L13.841 19.4103C13.846 18.7023 13.848 18.0723 13.848 17.4123C13.848 16.7153 13.665 16.2603 13.423 16.0523C12.762 15.4823 13.097 14.3973 13.963 14.3003C16.93 13.9673 18.3 12.8183 18.3 9.64027C18.3 8.68527 17.988 7.89627 17.387 7.23627C17.2604 7.09751 17.1754 6.9259 17.1418 6.74108C17.1082 6.55626 17.1273 6.36571 17.197 6.19127C17.363 5.77727 17.434 5.23427 17.293 4.57727L17.283 4.58027C16.792 4.71927 16.173 5.02027 15.425 5.52927C15.3044 5.61112 15.1673 5.66562 15.0234 5.68894C14.8795 5.71226 14.7323 5.70384 14.592 5.66427C13.7479 5.43055 12.8758 5.31314 12 5.31527C11.11 5.31527 10.228 5.43427 9.408 5.66527C9.26821 5.70452 9.12156 5.71287 8.97823 5.68973C8.8349 5.66659 8.69832 5.61252 8.578 5.53127C7.826 5.02427 7.204 4.72427 6.71 4.58427C6.566 5.23727 6.637 5.77827 6.802 6.19127C6.8718 6.36562 6.8911 6.55612 6.85767 6.74093C6.82425 6.92574 6.73945 7.09741 6.613 7.23627C6.016 7.89027 5.7 8.69427 5.7 9.64027C5.7 12.8123 7.071 13.9683 10.022 14.3003C10.887 14.3973 11.223 15.4773 10.566 16.0483C10.374 16.2163 10.137 16.7803 10.137 17.4123V20.5623C10.137 21.5483 9.302 22.2873 8.177 22.0903C7.94876 22.0502 7.74153 21.9321 7.59071 21.7562C7.4399 21.5802 7.35486 21.3574 7.35014 21.1257C7.34541 20.894 7.4213 20.6679 7.56482 20.486C7.70834 20.3041 7.91058 20.1776 8.137 20.1283V19.1383C7.227 19.1993 6.475 19.0503 5.883 18.6533V18.6533Z" fill="#C9C9C9"/>
</svg>
