<svg width="485" height="490" viewBox="0 0 485 490" fill="none" xmlns="http://www.w3.org/2000/svg">
<rect width="485" height="490" rx="20" fill="url(#paint0_linear_565_17)"/>
<path d="M219.974 113.005V112.818C219.974 110.302 222.028 108.251 224.55 108.251H274.376C276.898 108.251 278.953 110.302 278.953 112.818V113.005C278.953 115.522 276.898 117.572 274.376 117.572H224.55C222.028 117.572 219.974 115.522 219.974 113.005Z" fill="url(#paint1_linear_565_17)"/>
<path d="M299.78 96.7395C299.313 96.553 298.799 96.3666 298.239 96.1802C278.859 90.1679 266.578 89.9815 246.078 89.9815C229.733 89.9815 220.954 90.7738 203.536 93.71C202.695 93.8499 201.855 93.9897 201.014 94.1295C192.188 95.6675 188.873 97.9512 186.445 97.1589C185.838 96.9725 185.324 96.6463 184.904 96.2268C185.137 94.6888 185.511 93.477 186.071 92.7313C188.406 89.6087 198.119 87.6046 203.583 86.8123C203.723 86.8123 203.816 86.7657 203.956 86.7657C216.845 84.9946 242.855 81.5457 280.681 86.7657C286.098 87.5114 296.184 89.5155 298.566 92.7313C299.173 93.5702 299.593 95.015 299.78 96.7395Z" fill="url(#paint2_linear_565_17)"/>
<path d="M257.425 105.128H240.521C239.96 105.128 239.54 104.708 239.54 104.149C239.54 103.59 239.96 103.17 240.521 103.17H257.425C257.985 103.17 258.406 103.59 258.406 104.149C258.406 104.708 257.985 105.128 257.425 105.128Z" fill="url(#paint3_linear_565_17)"/>
<path d="M112.802 376.566C129.179 376.566 142.455 374.98 142.455 373.024C142.455 371.067 129.179 369.481 112.802 369.481C96.4256 369.481 83.1494 371.067 83.1494 373.024C83.1494 374.98 96.4256 376.566 112.802 376.566Z" fill="black"/>
<path d="M101.221 271.841C98.2327 271.608 95.8511 274.544 95.3375 277.481C94.8238 280.417 95.5243 283.4 95.7111 286.382C95.9445 291.183 94.6837 296.03 92.1153 300.085C90.3875 302.835 88.0526 305.211 86.8385 308.194C85.1107 312.389 85.7645 317.189 86.4649 321.664C88.0993 332.057 89.7338 342.404 91.3215 352.797C91.9752 356.898 92.5823 360.953 93.2361 365.054C93.5163 366.825 93.8432 368.736 95.0106 370.134C95.8512 371.16 97.3455 371.766 98.653 371.439C98.3261 370.973 98.1393 370.367 98.1393 369.715V331.358V324.32L98.0926 274.078C98.0926 272.96 98.9799 271.981 100.101 271.934C100.428 271.934 100.801 271.888 101.221 271.888C101.221 271.888 101.221 271.841 101.221 271.841ZM90.4809 333.968V322.829C90.4809 321.664 91.4149 320.685 92.629 320.685H93.7498C94.9172 320.685 95.8978 321.617 95.8978 322.829V333.968C95.8978 335.133 94.9639 336.112 93.7498 336.112H92.629C91.4149 336.112 90.4809 335.133 90.4809 333.968Z" fill="url(#paint4_linear_565_17)"/>
<path opacity="0.2" d="M98.1394 369.761V331.404V324.366C96.4582 328.048 96.3182 332.336 95.8512 336.391C95.3842 340.399 94.5436 344.36 93.3295 348.182C92.8158 349.813 92.2088 351.398 91.3215 352.843C91.9753 356.944 92.5823 360.999 93.2361 365.1C93.5163 366.871 93.8432 368.782 95.0106 370.18C95.8512 371.206 97.3455 371.812 98.653 371.485C98.3262 370.973 98.1394 370.414 98.1394 369.761Z" fill="#8598FA"/>
<path d="M68.3463 392.086C68.9067 392.133 75.3042 384.815 90.2475 385.328C105.191 385.841 126.251 384.629 127.606 389.849C129.007 395.069 124.477 400.242 125.177 400.102C125.878 399.916 146.051 386.027 122.049 380.854C98.046 375.68 67.8326 381.879 65.5911 384.629C63.3496 387.379 60.8747 391.573 68.3463 392.086Z" fill="black"/>
<path d="M159.08 323.201L159.734 321.71L164.357 323.621L163.75 325.112L159.08 323.201Z" fill="url(#paint5_linear_565_17)"/>
<path d="M157.072 328.095L157.726 326.604L162.349 328.514L161.742 330.006L157.072 328.095Z" fill="url(#paint6_linear_565_17)"/>
<path d="M155.111 332.849L155.764 331.311L160.387 333.222L159.78 334.76L155.111 332.849Z" fill="url(#paint7_linear_565_17)"/>
<path d="M330.46 299.991V298.966C330.46 298.593 330.74 298.313 331.114 298.313H333.496C333.869 298.313 334.149 298.593 334.149 298.966V299.991H330.46Z" fill="#8598FA"/>
<path d="M403.869 294.772L403.215 293.653L406.764 291.556L407.418 292.675L403.869 294.772Z" fill="#A8B7EB"/>
<path d="M406.437 298.873L405.737 297.801L409.193 295.518L409.893 296.59L406.437 298.873Z" fill="#A8B7EB"/>
<path d="M408.959 302.928L408.259 301.856L411.761 299.619L412.461 300.691L408.959 302.928Z" fill="#A8B7EB"/>
<path d="M403.869 294.772L403.215 293.653L406.764 291.556L407.418 292.675L403.869 294.772Z" fill="#A8B7EB"/>
<path d="M406.437 298.873L405.737 297.801L409.193 295.518L409.893 296.59L406.437 298.873Z" fill="#A8B7EB"/>
<path d="M408.959 302.928L408.259 301.856L411.761 299.619L412.461 300.691L408.959 302.928Z" fill="#A8B7EB"/>
<path d="M417.925 307.961C420.026 313.227 422.315 318.774 423.155 324.366C423.996 330.006 423.202 335.878 420.4 340.819C418.158 344.827 416.057 347.204 412.695 349.674C405.83 354.707 396.024 353.496 390.747 353.729C387.198 353.915 382.948 355.173 381.267 358.296V358.762C381.267 358.762 381.344 362.081 381.267 362.491C381.641 359.601 385.564 356.618 389.766 356.338C394.343 356.012 399.479 356.385 403.682 355.919C411.294 355.08 417.225 350.839 421.007 345.246C424.79 339.653 426.611 332.709 425.817 325.998C425.023 319.566 423.062 312.808 419.886 306.842C419.186 307.588 418.625 307.681 417.925 307.961Z" fill="url(#paint8_linear_565_17)"/>
<path d="M418.999 307.635C418.579 307.915 418.065 308.567 417.084 307.076C416.944 306.889 416.804 306.61 416.664 306.33L413.302 300.318L407.418 290.857C407.184 290.484 407.184 289.971 407.465 289.645C407.558 289.505 407.651 289.412 407.792 289.319L411.808 286.848C412.555 286.382 413.582 286.615 414.049 287.361L419.233 295.61C419.699 296.403 419.466 297.428 418.719 297.894L418.532 297.987L420.493 301.436C421.661 304.186 420.96 306.144 418.999 307.635Z" fill="url(#paint9_linear_565_17)"/>
<path d="M417.131 307.122C416.571 307.308 416.01 307.262 415.45 307.075C414.61 306.749 414.376 306.516 413.349 305.071C411.948 303.067 411.154 302.228 412.508 301.389C410.5 298.546 408.959 296.356 406.578 292.767C406.297 292.301 406.017 291.835 406.064 291.322C406.111 290.576 406.764 290.064 407.418 289.691C407.185 290.064 407.185 290.344 407.418 290.716L413.255 300.271L416.291 305.63C416.477 305.91 416.991 306.889 417.131 307.122Z" fill="#8598FA"/>
<path d="M333.169 314.952L334.29 363.47C334.336 365.287 335.831 366.779 337.652 366.826L341.808 366.919V369.342L336.531 369.109C334.056 369.016 332.048 366.965 332.001 364.495L330.927 314.906L333.169 314.952Z" fill="url(#paint10_linear_565_17)"/>
<path d="M361.327 386.26C373.294 386.26 382.995 383.485 382.995 380.061C382.995 376.638 373.294 373.863 361.327 373.863C349.361 373.863 339.66 376.638 339.66 380.061C339.66 383.485 349.361 386.26 361.327 386.26Z" fill="black"/>
<path fill-rule="evenodd" clip-rule="evenodd" d="M341.079 378.098C340.088 378.721 339.981 379.135 339.981 379.269C339.981 379.403 340.088 379.818 341.079 380.44C342.033 381.039 343.526 381.643 345.531 382.175C349.52 383.235 355.138 383.914 361.421 383.914C367.704 383.914 373.322 383.235 377.31 382.175C379.315 381.643 380.809 381.039 381.763 380.44C382.754 379.818 382.86 379.403 382.86 379.269C382.86 379.135 382.754 378.721 381.763 378.098C380.809 377.499 379.315 376.896 377.31 376.363C373.322 375.303 367.704 374.625 361.421 374.625C355.138 374.625 349.52 375.303 345.531 376.363C343.526 376.896 342.033 377.499 341.079 378.098ZM344.485 373.453C348.897 372.281 354.884 371.579 361.421 371.579C367.957 371.579 373.945 372.281 378.357 373.453C380.553 374.037 382.458 374.763 383.854 375.639C385.212 376.492 386.404 377.7 386.404 379.269C386.404 380.838 385.212 382.046 383.854 382.899C382.458 383.776 380.553 384.502 378.357 385.085C373.945 386.257 367.957 386.959 361.421 386.959C354.884 386.959 348.897 386.257 344.485 385.085C342.289 384.502 340.383 383.776 338.988 382.899C337.63 382.046 336.438 380.838 336.438 379.269C336.438 377.7 337.63 376.492 338.988 375.639C340.383 374.763 342.289 374.037 344.485 373.453Z" fill="url(#paint11_linear_565_17)"/>
<path fill-rule="evenodd" clip-rule="evenodd" d="M338.121 379.623C336.949 380.48 336.765 381.091 336.765 381.367C336.765 381.642 336.949 382.253 338.121 383.11C339.254 383.937 341.013 384.761 343.355 385.485C348.015 386.925 354.568 387.845 361.888 387.845C369.207 387.845 375.76 386.925 380.421 385.485C382.763 384.761 384.522 383.937 385.654 383.11C386.826 382.253 387.011 381.642 387.011 381.367C387.011 381.091 386.826 380.48 385.654 379.623C384.522 378.796 382.763 377.972 380.421 377.248C375.76 375.808 369.207 374.888 361.888 374.888C354.568 374.888 348.015 375.808 343.355 377.248C341.013 377.972 339.254 378.796 338.121 379.623ZM342.25 373.687C347.358 372.108 354.301 371.16 361.888 371.16C369.475 371.16 376.418 372.108 381.526 373.687C384.069 374.473 386.263 375.447 387.861 376.615C389.421 377.755 390.747 379.338 390.747 381.367C390.747 383.395 389.421 384.978 387.861 386.118C386.263 387.286 384.069 388.261 381.526 389.046C376.418 390.625 369.475 391.573 361.888 391.573C354.301 391.573 347.358 390.625 342.25 389.046C339.707 388.261 337.513 387.286 335.914 386.118C334.354 384.978 333.029 383.395 333.029 381.367C333.029 379.338 334.354 377.755 335.914 376.615C337.513 375.447 339.707 374.473 342.25 373.687Z" fill="url(#paint12_linear_565_17)"/>
<path d="M244.49 407C287.637 407 322.615 403.891 322.615 400.056C322.615 396.22 287.637 393.111 244.49 393.111C201.342 393.111 166.365 396.22 166.365 400.056C166.365 403.891 201.342 407 244.49 407Z" fill="black"/>
<path d="M207.808 374.449C204.866 374.356 201.784 374.403 196.694 374.403C196.694 368.763 196.18 361.399 196.18 361.399L193.332 173.109C193.238 173.015 193.191 172.969 193.145 172.876C193.005 172.736 192.865 172.549 192.771 172.41C192.771 172.41 192.771 172.363 192.724 172.363C192.584 172.223 192.491 172.037 192.351 171.897C192.211 171.711 192.117 171.571 191.977 171.384C191.837 171.198 191.744 171.058 191.604 170.872C191.23 170.359 190.903 169.8 190.623 169.24C190.53 169.054 190.39 168.868 190.296 168.681C190.203 168.495 190.109 168.308 190.016 168.122C189.549 167.236 189.129 166.351 188.755 165.419C188.662 165.232 188.615 165.046 188.522 164.813C188.475 164.626 188.382 164.44 188.335 164.253C187.821 162.809 187.354 161.271 187.027 159.733C186.981 159.546 186.934 159.313 186.887 159.127C186.841 158.894 186.794 158.707 186.747 158.474C186.654 158.055 186.607 157.635 186.514 157.262C186.327 156.191 186.14 155.072 186 154C187.354 156.657 189.316 159.034 191.417 161.131C195.293 164.953 200.149 166.397 203.091 170.545C203.418 171.011 203.745 171.524 204.025 172.083C208.135 180.053 207.294 197.391 207.294 206.805C207.014 264.644 207.948 317.962 207.808 374.449Z" fill="url(#paint13_linear_565_17)"/>
<path d="M310.614 374.608C310.567 373.723 310.474 373.07 310.474 372.791C310.064 368.549 295.993 364.367 290.334 362.853C288.976 362.489 288.027 361.257 288.048 359.851L290.844 174.398C290.855 173.698 291.115 173.027 291.547 172.476C298.048 164.185 298.67 152.679 298.986 142.088C299.266 131.835 299.593 121.535 299.873 111.281C299.996 107.639 300.299 102.453 299.992 98.3706C299.916 97.3608 299.246 96.5003 298.286 96.1806V96.1806C278.906 90.1684 266.625 89.9819 246.124 89.9819C229.78 89.9819 221.001 90.7742 203.583 93.7105C202.742 93.8503 201.902 93.9901 201.061 94.1299C192.235 95.6679 188.92 97.9517 186.491 97.1594V97.1594C185.769 96.9375 184.805 97.28 184.743 98.0332C184.403 102.158 184.729 107.519 184.81 111.235C185.09 121.488 185.417 131.788 185.697 142.042C185.787 145.877 185.962 149.799 186.427 153.642C186.468 153.984 186.57 154.317 186.734 154.62C188.074 157.092 189.929 159.315 191.908 161.29C195.784 165.112 200.641 166.557 203.583 170.705C203.91 171.171 204.236 171.683 204.517 172.243C208.626 180.212 207.785 197.55 207.785 206.964C207.51 263.655 208.361 316.123 208.303 371.468C208.302 373.16 206.901 374.519 205.209 374.508C203.149 374.495 200.779 374.513 197.624 374.515C197.382 374.515 197.185 374.32 197.184 374.078C197.164 369.505 196.832 363.981 196.713 362.142C196.711 362.113 196.671 362.118 196.671 362.147V362.147C196.671 362.157 196.677 362.163 196.667 362.166C196.302 362.252 174.719 367.383 174.21 372.698C174.21 372.751 174.194 372.82 174.181 372.904C174.159 373.045 174.152 373.188 174.136 373.329C174.098 373.646 174.061 374.065 174.023 374.515C173.556 381.087 173.883 401.407 198.166 400.568C224.534 399.638 286.178 400.564 286.47 400.568C286.479 400.568 286.476 400.568 286.485 400.568C309.634 400.7 311.034 381.179 310.614 374.608ZM265.877 259.304C265.037 266.248 262.235 275.01 257.659 279.531C252.849 284.331 243.696 287.92 236.972 287.174C234.076 286.848 231.695 286.009 229.64 284.658C226.885 282.84 224.83 280.183 223.196 276.641C220.954 271.701 220.814 266.108 220.767 260.702C220.3 228.497 220.487 195.313 220.02 163.108C219.974 161.104 220.254 156.862 221.048 155.138C221.234 154.765 221.608 154.392 222.262 154.159C226.465 152.528 240.194 153.18 245.797 153.18C252.755 153.18 257.472 152.621 261.955 157.282C265.27 160.684 266.204 163.481 266.998 168.141C269.52 182.915 270.033 224.582 265.877 259.304Z" fill="url(#paint14_linear_565_17)"/>
<path d="M278.439 166.277C278.439 187.763 274.003 254.27 272.555 264.43C271.108 274.404 269.473 279.857 261.535 286.103C253.596 292.348 238.092 293.14 230.714 286.242C230.154 285.683 229.78 285.17 229.593 284.658C231.648 286.009 234.03 286.848 236.925 287.174C243.696 287.967 252.802 284.331 257.612 279.531C262.142 275.01 264.99 266.248 265.831 259.304C269.987 224.582 269.473 182.916 266.952 168.141C266.158 163.481 265.224 160.684 261.908 157.282C257.425 152.621 252.662 153.181 245.751 153.181C240.194 153.181 225.391 153.041 221.188 154.672C221.328 151.876 223.803 149.266 226.698 148.66C230.574 147.821 236.738 148.1 241.781 148.1C250.187 148.1 271.528 149.126 273.676 150.291C278.206 152.761 278.439 159.985 278.439 166.277Z" fill="url(#paint15_linear_565_17)"/>
<path d="M273.824 348.322H219.919C218.814 348.322 217.919 349.218 217.919 350.322V351.449C217.919 352.554 218.814 353.449 219.919 353.449H273.824C274.929 353.449 275.824 352.554 275.824 351.449V350.322C275.824 349.218 274.929 348.322 273.824 348.322Z" fill="url(#paint16_linear_565_17)"/>
<path d="M200.547 94.2236L203.536 170.752C200.594 166.604 195.737 165.159 191.862 161.337C189.76 159.24 187.799 156.863 186.445 154.206C185.931 150.198 185.791 146.097 185.651 142.089C185.371 131.835 185.044 121.535 184.764 111.282C184.623 106.947 184.25 100.516 184.904 96.2743C185.324 96.6938 185.838 97.02 186.445 97.2065C188.92 97.9988 190.04 96.4607 198.726 94.5965C199.567 94.4101 199.753 94.3635 200.547 94.2236Z" fill="url(#paint17_linear_565_17)"/>
<path d="M305.897 257.579V230.827C305.897 229.056 307.298 227.658 309.073 227.658H369.033C370.807 227.658 372.208 229.056 372.208 230.827V257.579C372.208 259.35 370.807 260.748 369.033 260.748H309.073C307.345 260.748 305.897 259.304 305.897 257.579Z" fill="url(#paint18_linear_565_17)"/>
<path d="M312.575 237.212C312.575 236 313.556 235.068 314.723 235.068H363.289C364.503 235.068 365.437 236.047 365.437 237.212C365.437 238.424 364.456 239.356 363.289 239.356H314.723C313.556 239.356 312.575 238.424 312.575 237.212Z" fill="url(#paint19_linear_565_17)"/>
<path d="M346.057 239.356H314.77C313.556 239.356 312.622 238.377 312.622 237.212C312.622 236 313.602 235.068 314.77 235.068H346.057V239.356Z" fill="url(#paint20_linear_565_17)"/>
<path d="M313.416 253.106V246.208C313.416 244.623 314.676 243.365 316.264 243.365H324.716C326.304 243.365 327.565 244.623 327.565 246.208V253.152C327.565 254.737 326.304 255.995 324.716 255.995H316.264C314.676 255.949 313.416 254.69 313.416 253.106Z" fill="#A8B7EB"/>
<path d="M333.869 245.416C333.869 245.089 334.149 244.856 334.43 244.856H360.347C360.674 244.856 360.907 245.136 360.907 245.416C360.907 245.742 360.627 245.975 360.347 245.975H334.43C334.149 245.975 333.869 245.742 333.869 245.416Z" fill="#A8B7EB"/>
<path d="M345.45 249.469C345.45 249.143 345.73 248.91 346.011 248.91H360.393C360.72 248.91 360.954 249.19 360.954 249.469C360.954 249.796 360.674 250.029 360.393 250.029H346.082C346.034 250.029 345.987 250.034 345.94 250.034C345.651 250.034 345.45 249.772 345.45 249.469Z" fill="#A8B7EB"/>
<path d="M333.869 253.85C333.869 253.524 334.149 253.291 334.43 253.291H360.347C360.674 253.291 360.907 253.571 360.907 253.85C360.907 254.177 360.627 254.41 360.347 254.41H334.512C334.457 254.41 334.402 254.417 334.347 254.414C334.097 254.401 333.869 254.144 333.869 253.85Z" fill="#A8B7EB"/>
<path d="M333.869 249.469C333.869 249.143 334.149 248.91 334.43 248.91H341.201C341.528 248.91 341.761 249.19 341.761 249.469C341.761 249.796 341.481 250.029 341.201 250.029H334.512C334.457 250.029 334.402 250.036 334.347 250.033C334.097 250.02 333.869 249.764 333.869 249.469Z" fill="#A8B7EB"/>
<path d="M322.475 253.338C322.475 253.467 322.37 253.571 322.241 253.571V253.571C322.113 253.571 322.008 253.467 322.008 253.338V248.398L319.393 250.728C319.253 250.821 319.066 250.868 318.926 250.821C318.786 250.775 318.692 250.588 318.692 250.448V245.369C318.692 245.24 318.797 245.135 318.926 245.135V245.135C319.055 245.135 319.159 245.24 319.159 245.369V250.355L321.774 248.025C321.915 247.932 322.101 247.885 322.241 247.932C322.382 248.025 322.475 248.165 322.475 248.305V253.338Z" fill="url(#paint21_linear_565_17)"/>
<path d="M341.808 376.473V278.133C341.808 274.917 344.423 272.307 347.645 272.307H375.477C378.699 272.307 381.314 274.917 381.314 278.133V376.426C381.314 379.642 378.699 382.252 375.477 382.252H347.645C344.423 382.299 341.808 379.689 341.808 376.473Z" fill="url(#paint22_linear_565_17)"/>
<path d="M351.654 281.866C350.912 281.863 350.229 282.272 349.88 282.927L349.16 284.283C348.452 285.615 349.418 287.221 350.926 287.221L371.388 287.221C372.196 287.221 372.924 286.736 373.235 285.99L373.767 284.713C374.315 283.398 373.353 281.949 371.929 281.943L351.654 281.866Z" fill="url(#paint23_linear_565_17)"/>
<path d="M358.712 299.991C359.641 299.991 360.393 299.24 360.393 298.314C360.393 297.387 359.641 296.636 358.712 296.636C357.784 296.636 357.031 297.387 357.031 298.314C357.031 299.24 357.784 299.991 358.712 299.991Z" fill="#8598FA"/>
<path d="M372.301 299.898C373.23 299.898 373.983 299.147 373.983 298.22C373.983 297.294 373.23 296.542 372.301 296.542C371.373 296.542 370.62 297.294 370.62 298.22C370.62 299.147 371.373 299.898 372.301 299.898Z" fill="url(#paint24_linear_565_17)"/>
<path d="M350.12 299.898C351.048 299.898 351.801 299.147 351.801 298.22C351.801 297.294 351.048 296.542 350.12 296.542C349.192 296.542 348.439 297.294 348.439 298.22C348.439 299.147 349.192 299.898 350.12 299.898Z" fill="#8598FA"/>
<path d="M351.101 370.694L349.653 367.897C349.42 367.478 349.746 366.965 350.213 366.965H373.142C373.656 366.965 373.936 367.525 373.702 367.944L372.021 370.74C371.928 370.927 371.694 371.067 371.461 371.067H351.661C351.428 371.02 351.194 370.88 351.101 370.694Z" fill="#A8B7EB"/>
<path d="M355.584 375.634C355.584 375.028 356.097 374.515 356.704 374.515H366.884C367.492 374.515 368.005 375.028 368.005 375.634C368.005 376.24 367.492 376.752 366.884 376.752H356.704C356.051 376.752 355.584 376.24 355.584 375.634Z" fill="#A8B7EB"/>
<path d="M144.463 263.032C157.204 263.032 167.532 253.058 167.532 240.754C167.532 228.45 157.204 218.476 144.463 218.476C131.723 218.476 121.395 228.45 121.395 240.754C121.395 253.058 131.723 263.032 144.463 263.032Z" fill="url(#paint25_linear_565_17)"/>
<path d="M144.463 261.028C156.069 261.028 165.477 251.951 165.477 240.754C165.477 229.557 156.069 220.48 144.463 220.48C132.858 220.48 123.449 229.557 123.449 240.754C123.449 251.951 132.858 261.028 144.463 261.028Z" stroke="url(#paint26_linear_565_17)" stroke-width="0.8612" stroke-miterlimit="10"/>
<path d="M144.323 228.637L136.198 244.11L145.724 243.411L143.53 254.084L152.122 238.378L142.362 239.216L144.323 228.637Z" fill="url(#paint27_linear_565_17)"/>
<path d="M111.962 373.35C107.619 373.257 103.51 373.024 100.941 372.791C100.007 372.698 99.1667 372.232 98.6531 371.486C98.3262 371.02 98.1394 370.414 98.1394 369.762V331.404C99.6337 333.362 101.035 335.412 102.342 337.556C108.6 348.183 112.102 360.766 111.962 373.35Z" fill="url(#paint28_linear_565_17)"/>
<path d="M137.085 355.547C135.264 362.165 132.742 367.571 129.427 370.88C128.446 371.859 126.391 372.465 123.776 372.838C121.628 373.164 119.107 373.304 116.538 373.35C118.967 364.915 116.678 355.547 114.343 346.785C111.728 336.904 108.646 327.443 106.592 317.423C103.323 301.25 103.463 280.417 106.732 271.608C116.165 271.142 129.987 270.723 130.828 272.121C140.541 288.014 143.903 330.612 137.085 355.547Z" fill="url(#paint29_linear_565_17)"/>
<path d="M110.73 292.115C110.34 291.081 111.27 290.157 112.374 290.157H128.921C130.026 290.157 130.955 291.081 130.565 292.115C129.766 294.233 127.71 295.75 125.317 295.75H115.978C113.585 295.75 111.53 294.233 110.73 292.115Z" fill="url(#paint30_linear_565_17)"/>
<path d="M116.538 373.35C115.044 373.397 113.503 373.397 111.962 373.35C112.055 360.766 108.6 348.183 102.295 337.603C101.035 335.459 99.6336 333.408 98.0926 331.451L98.0459 274.171C98.0459 273.053 98.9332 272.074 100.054 272.027C100.381 272.027 100.754 271.981 101.175 271.981C102.669 271.888 104.584 271.794 106.685 271.701C103.416 280.51 103.229 301.343 106.545 317.515C108.6 327.536 111.635 336.997 114.297 346.878C116.678 355.5 118.966 364.914 116.538 373.35Z" fill="url(#paint31_linear_565_17)"/>
<path d="M95.8512 325.346C90.0139 331.451 85.2041 338.675 81.0947 346.039C80.4876 347.158 79.8339 348.323 79.5537 349.581C79.2735 350.84 79.2735 352.564 80.0673 353.776C82.9159 353.776 84.0833 353.729 86.6984 353.729C89.1734 347.297 95.3842 336.298 95.8512 334.387C95.8512 331.265 95.8512 329.214 95.8512 325.346Z" fill="url(#paint32_linear_565_17)"/>
<path d="M133.699 357.007C135.091 356.241 136.516 357.574 136.006 359.079C134.307 364.087 132.131 368.182 129.427 370.88C128.763 371.542 127.609 372.034 126.121 372.398C124.913 372.694 123.809 371.692 124.012 370.465C124.538 367.298 125.879 364.412 127.792 361.979C129.407 359.957 131.429 358.256 133.699 357.007Z" fill="url(#paint33_linear_565_17)"/>
<path d="M157.632 339.886L156.978 341.611L162.535 343.755L163.189 342.03L157.632 339.886Z" fill="url(#paint34_linear_565_17)"/>
<path d="M171.922 326.23L170.147 336.251C170.1 336.577 169.914 336.903 169.587 337.09L165.384 339.746C165.197 339.839 165.057 340.026 164.964 340.212L163.843 342.403L160.901 341.238L159.967 340.865L166.225 323.947C166.458 323.294 167.252 322.968 167.859 323.248H167.906L171.175 324.925C171.735 325.205 172.015 325.718 171.922 326.23Z" fill="url(#paint35_linear_565_17)"/>
<path d="M167.952 323.248C167.299 322.968 166.551 323.295 166.318 323.947L160.061 340.865L160.994 341.238L160.948 341.378L157.632 340.073L164.123 323.341C164.45 322.549 165.337 322.176 166.131 322.456L167.952 323.248Z" fill="url(#paint36_linear_565_17)"/>
<path d="M310.52 373.35C310.52 373.35 309.913 373.816 302.769 374.282C298.099 374.562 287.405 374.655 287.405 374.655H208.346C208.346 374.655 200.08 374.655 197.279 374.655C181.635 374.655 174.07 373.49 174.07 373.49C173.369 380.574 173.79 401.547 198.119 400.708H286.471C310.754 401.547 310.941 379.922 310.52 373.35Z" fill="url(#paint37_linear_565_17)"/>
<path d="M197.138 374.609C189.2 374.609 184.577 374.469 176.171 373.77C175.471 373.723 174.677 373.583 174.116 373.21C174.116 373.024 174.163 372.884 174.163 372.791C174.677 367.478 196.625 362.258 196.625 362.258C196.625 362.258 197.138 369.761 197.138 374.609Z" fill="url(#paint38_linear_565_17)"/>
<path d="M287.592 374.655C295.53 374.655 300.153 374.516 308.559 373.817C309.259 373.77 310.053 373.63 310.614 373.257C310.614 373.071 310.567 372.931 310.567 372.838C310.053 367.525 288 362.16 288 362.16C288 362.16 287.592 369.808 287.592 374.655Z" fill="url(#paint39_linear_565_17)"/>
<path d="M335.831 300.597V307.402C335.831 307.775 335.55 308.054 335.177 308.054C334.803 308.054 334.523 308.334 334.523 308.707V314.3C334.523 314.673 334.243 314.952 333.869 314.952H330.6C330.227 314.952 329.947 314.673 329.947 314.3V308.707C329.947 308.334 329.666 308.054 329.293 308.054C328.919 308.054 328.639 307.775 328.639 307.402V300.597C328.639 300.224 328.919 299.945 329.293 299.945H335.13C335.55 299.945 335.831 300.224 335.831 300.597Z" fill="url(#paint40_linear_565_17)"/>
<path d="M328.732 302.928V307.635C328.732 307.635 322.895 307.635 322.849 307.635C322.288 307.635 321.821 306.563 321.821 305.258C321.821 303.953 322.288 302.928 322.849 302.928C322.895 302.928 328.732 302.928 328.732 302.928Z" fill="url(#paint41_linear_565_17)"/>
<path d="M325.137 303.067V301.576C325.137 301.063 325.557 300.597 326.117 300.597H328.779V303.021H325.137V303.067Z" fill="url(#paint42_linear_565_17)"/>
<path d="M322.802 307.588C323.318 307.588 323.736 306.566 323.736 305.305C323.736 304.043 323.318 303.021 322.802 303.021C322.286 303.021 321.868 304.043 321.868 305.305C321.868 306.566 322.286 307.588 322.802 307.588Z" fill="url(#paint43_linear_565_17)"/>
<path d="M330.927 312.715C330.927 312.482 331.114 312.296 331.301 312.296H333.075C333.309 312.296 333.449 312.482 333.449 312.669V312.715C333.449 312.948 333.262 313.088 333.075 313.088H331.301C331.114 313.088 330.927 312.902 330.927 312.715Z" fill="url(#paint44_linear_565_17)"/>
<path d="M80.1141 353.775C79.9273 354.801 79.8339 355.733 80.0674 356.758C80.3009 357.784 81.048 358.716 82.0754 358.855C82.589 358.902 83.1494 358.762 83.5697 358.483C83.99 358.203 84.597 357.69 84.9239 357.271C85.8112 356.152 86.3716 355.174 86.6517 353.775C86.0447 352.983 85.8579 351.818 83.1027 351.818C81.6084 351.818 80.5343 352.75 80.1141 353.775Z" fill="url(#paint45_linear_565_17)"/>
<path d="M103.323 405.183C94.5903 405.183 85.8112 404.017 77.4056 401.734C73.1561 400.568 68.2995 398.984 64.2368 395.815C61.8086 393.904 60.4076 391.853 60.0807 389.663C59.7072 387.239 60.6411 384.629 62.6491 382.625C64.4703 380.761 66.8519 379.689 68.6731 378.99C72.7358 377.452 76.3782 376.613 81.6551 375.96C81.982 375.914 82.8225 375.774 82.9159 375.121C83.0093 374.609 82.9626 374.189 82.8225 373.816C80.8612 368.13 80.581 363.656 81.7485 357.737C81.8886 356.991 82.6357 356.479 83.3829 356.618C84.1301 356.758 84.6437 357.504 84.5036 358.25C83.4296 363.609 83.7098 367.711 85.4843 372.838C85.7645 373.63 85.8112 374.515 85.6711 375.448C85.5777 376.193 85.2508 376.799 84.8772 377.265C85.1574 377.265 85.4376 377.219 85.7178 377.219C99.8205 376.38 114.39 375.494 129.1 380.854C131.435 381.693 135.124 384.303 136.665 386.726C137.272 387.658 137.646 388.684 137.786 389.756C139.654 388.497 141.288 387.053 142.596 385.421C147.032 380.015 148.246 372.977 149.553 365.474C150.861 357.83 152.215 349.907 157.399 343.941C157.912 343.336 158.8 343.289 159.36 343.802C159.967 344.314 160.014 345.2 159.5 345.759C154.83 351.165 153.616 358.343 152.309 365.94C151.001 373.443 149.694 381.227 144.744 387.192C142.782 389.569 140.401 391.527 137.459 393.158C136.992 394.836 135.964 396.467 134.517 397.865C131.015 401.174 126.158 402.479 121.862 403.318C115.791 404.577 109.58 405.183 103.323 405.183ZM102.482 400.056C111.308 400.522 118.967 399.73 125.037 397.679C123.823 397.912 122.609 398.145 121.301 398.378C114.857 399.357 108.506 399.916 102.482 400.056ZM98.8398 380.947C89.7338 380.947 80.0674 382.066 70.9613 385.654C68.9066 386.447 67.8326 387.379 67.7392 388.358C67.5991 389.569 69.5137 391.294 72.3622 392.599C83.2895 397.539 101.455 398.658 120.834 395.582C125.317 394.882 129.147 393.904 132.415 392.599C132.556 392.179 132.556 391.667 132.415 390.968C131.622 387.519 128.493 385.421 125.971 384.303C123.029 382.951 119.714 382.485 116.258 382.112C110.981 381.46 105.051 380.947 98.8398 380.947ZM62.8826 389.476C62.9293 389.756 63.0694 390.082 63.2095 390.362C63.0694 390.082 62.976 389.802 62.8826 389.476Z" fill="url(#paint46_linear_565_17)"/>
<path d="M156.932 344.36L157.819 341.983L161.088 343.242L160.201 345.619L156.932 344.36Z" fill="url(#paint47_linear_565_17)"/>
<defs>
<linearGradient id="paint0_linear_565_17" x1="4.13839" y1="7.38754" x2="477.176" y2="481.073" gradientUnits="userSpaceOnUse">
<stop stop-color="#171932"/>
<stop offset="1" stop-color="#131645" stop-opacity="0"/>
</linearGradient>
<linearGradient id="paint1_linear_565_17" x1="276.054" y1="113.622" x2="218.077" y2="112.99" gradientUnits="userSpaceOnUse">
<stop stop-color="#735AFF" stop-opacity="0.2"/>
<stop offset="1" stop-color="#8598FA"/>
</linearGradient>
<linearGradient id="paint2_linear_565_17" x1="242.342" y1="84" x2="242.342" y2="97.3213" gradientUnits="userSpaceOnUse">
<stop stop-color="#826BFF" stop-opacity="0.2"/>
<stop offset="1" stop-color="#475BC0"/>
</linearGradient>
<linearGradient id="paint3_linear_565_17" x1="257.478" y1="104.298" x2="238.936" y2="103.99" gradientUnits="userSpaceOnUse">
<stop stop-color="#735AFF" stop-opacity="0.2"/>
<stop offset="1" stop-color="#8598FA"/>
</linearGradient>
<linearGradient id="paint4_linear_565_17" x1="85.6782" y1="321.701" x2="101.21" y2="321.701" gradientUnits="userSpaceOnUse">
<stop offset="0.00177745" stop-color="white"/>
<stop offset="1" stop-color="#CDCEFA"/>
</linearGradient>
<linearGradient id="paint5_linear_565_17" x1="159.718" y1="321.71" x2="164.322" y2="321.886" gradientUnits="userSpaceOnUse">
<stop stop-color="#85A1E9" stop-opacity="0.39"/>
<stop offset="1" stop-color="#7B8ADC"/>
</linearGradient>
<linearGradient id="paint6_linear_565_17" x1="157.71" y1="326.604" x2="162.314" y2="326.779" gradientUnits="userSpaceOnUse">
<stop stop-color="#85A1E9" stop-opacity="0.39"/>
<stop offset="1" stop-color="#7B8ADC"/>
</linearGradient>
<linearGradient id="paint7_linear_565_17" x1="155.749" y1="331.311" x2="160.352" y2="331.484" gradientUnits="userSpaceOnUse">
<stop stop-color="#85A1E9" stop-opacity="0.39"/>
<stop offset="1" stop-color="#7B8ADC"/>
</linearGradient>
<linearGradient id="paint8_linear_565_17" x1="425.373" y1="308.043" x2="394.327" y2="365.072" gradientUnits="userSpaceOnUse">
<stop offset="0.00177745" stop-color="white"/>
<stop offset="1" stop-color="#CDCEFA"/>
</linearGradient>
<linearGradient id="paint9_linear_565_17" x1="407.222" y1="297.317" x2="421.047" y2="297.317" gradientUnits="userSpaceOnUse">
<stop offset="0.00177745" stop-color="white"/>
<stop offset="1" stop-color="#CDCEFA"/>
</linearGradient>
<linearGradient id="paint10_linear_565_17" x1="330.942" y1="342.178" x2="341.821" y2="342.178" gradientUnits="userSpaceOnUse">
<stop offset="0.00177745" stop-color="white"/>
<stop offset="1" stop-color="#CDCEFA"/>
</linearGradient>
<linearGradient id="paint11_linear_565_17" x1="387.293" y1="384.185" x2="335.4" y2="376.775" gradientUnits="userSpaceOnUse">
<stop stop-color="#DBDCFC"/>
<stop offset="1" stop-color="white"/>
</linearGradient>
<linearGradient id="paint12_linear_565_17" x1="391.774" y1="387.891" x2="331.538" y2="380.406" gradientUnits="userSpaceOnUse">
<stop stop-color="#DBDCFC"/>
<stop offset="1" stop-color="white"/>
</linearGradient>
<linearGradient id="paint13_linear_565_17" x1="188.64" y1="154" x2="207.705" y2="154.046" gradientUnits="userSpaceOnUse">
<stop stop-color="#85A1E9" stop-opacity="0.39"/>
<stop offset="1" stop-color="#7B8ADC"/>
</linearGradient>
<linearGradient id="paint14_linear_565_17" x1="180.384" y1="110.355" x2="338.148" y2="126.775" gradientUnits="userSpaceOnUse">
<stop stop-color="#F1F6FF"/>
<stop offset="1" stop-color="#B1C3E8"/>
</linearGradient>
<linearGradient id="paint15_linear_565_17" x1="249.813" y1="148.056" x2="249.813" y2="291.107" gradientUnits="userSpaceOnUse">
<stop stop-color="#3D3F6F"/>
<stop offset="1" stop-color="#191943"/>
</linearGradient>
<linearGradient id="paint16_linear_565_17" x1="272.978" y1="351.277" x2="216.072" y2="350.168" gradientUnits="userSpaceOnUse">
<stop stop-color="#735AFF" stop-opacity="0.2"/>
<stop offset="1" stop-color="#8598FA"/>
</linearGradient>
<linearGradient id="paint17_linear_565_17" x1="173.137" y1="186.103" x2="213.221" y2="85.6979" gradientUnits="userSpaceOnUse">
<stop stop-color="#8598FA"/>
<stop offset="1" stop-color="#CDCEFA" stop-opacity="0"/>
</linearGradient>
<linearGradient id="paint18_linear_565_17" x1="309.028" y1="229.828" x2="372.185" y2="259.751" gradientUnits="userSpaceOnUse">
<stop stop-color="#F1F6FF"/>
<stop offset="1" stop-color="#B1C3E8"/>
</linearGradient>
<linearGradient id="paint19_linear_565_17" x1="362.838" y1="237.539" x2="310.892" y2="236.435" gradientUnits="userSpaceOnUse">
<stop stop-color="#735AFF" stop-opacity="0.2"/>
<stop offset="1" stop-color="#8598FA"/>
</linearGradient>
<linearGradient id="paint20_linear_565_17" x1="329.34" y1="235.068" x2="329.34" y2="239.356" gradientUnits="userSpaceOnUse">
<stop stop-color="#3D3F6F"/>
<stop offset="1" stop-color="#191943"/>
</linearGradient>
<linearGradient id="paint21_linear_565_17" x1="320.584" y1="245.135" x2="320.584" y2="253.571" gradientUnits="userSpaceOnUse">
<stop stop-color="#3D3F6F"/>
<stop offset="1" stop-color="#191943"/>
</linearGradient>
<linearGradient id="paint22_linear_565_17" x1="343.673" y1="279.518" x2="389.417" y2="283.405" gradientUnits="userSpaceOnUse">
<stop stop-color="#F1F6FF"/>
<stop offset="1" stop-color="#B1C3E8"/>
</linearGradient>
<linearGradient id="paint23_linear_565_17" x1="373.562" y1="285.124" x2="346.478" y2="284.89" gradientUnits="userSpaceOnUse">
<stop stop-color="#735AFF" stop-opacity="0.2"/>
<stop offset="1" stop-color="#8598FA"/>
</linearGradient>
<linearGradient id="paint24_linear_565_17" x1="372.301" y1="296.542" x2="372.301" y2="299.898" gradientUnits="userSpaceOnUse">
<stop stop-color="#3D3F6F"/>
<stop offset="1" stop-color="#191943"/>
</linearGradient>
<linearGradient id="paint25_linear_565_17" x1="123.573" y1="221.398" x2="174.338" y2="233.827" gradientUnits="userSpaceOnUse">
<stop stop-color="#F1F6FF"/>
<stop offset="1" stop-color="#B1C3E8"/>
</linearGradient>
<linearGradient id="paint26_linear_565_17" x1="123.29" y1="240.756" x2="165.679" y2="240.756" gradientUnits="userSpaceOnUse">
<stop stop-color="#6E80C5"/>
<stop offset="1" stop-color="#D9E3F7"/>
</linearGradient>
<linearGradient id="paint27_linear_565_17" x1="151.339" y1="243.301" x2="135.684" y2="243.284" gradientUnits="userSpaceOnUse">
<stop stop-color="#735AFF" stop-opacity="0.2"/>
<stop offset="1" stop-color="#8598FA"/>
</linearGradient>
<linearGradient id="paint28_linear_565_17" x1="98.105" y1="352.374" x2="111.972" y2="352.374" gradientUnits="userSpaceOnUse">
<stop offset="0.00177745" stop-color="white"/>
<stop offset="1" stop-color="#CDCEFA"/>
</linearGradient>
<linearGradient id="paint29_linear_565_17" x1="105.93" y1="277.867" x2="148.151" y2="281.429" gradientUnits="userSpaceOnUse">
<stop stop-color="#F1F6FF"/>
<stop offset="1" stop-color="#B1C3E8"/>
</linearGradient>
<linearGradient id="paint30_linear_565_17" x1="129.911" y1="293.38" x2="109.712" y2="293.252" gradientUnits="userSpaceOnUse">
<stop stop-color="#735AFF" stop-opacity="0.2"/>
<stop offset="1" stop-color="#8598FA"/>
</linearGradient>
<linearGradient id="paint31_linear_565_17" x1="100.408" y1="271.701" x2="117.47" y2="271.782" gradientUnits="userSpaceOnUse">
<stop stop-color="#85A1E9"/>
<stop offset="1" stop-color="#7B8ADC"/>
</linearGradient>
<linearGradient id="paint32_linear_565_17" x1="79.3577" y1="339.572" x2="95.8288" y2="339.572" gradientUnits="userSpaceOnUse">
<stop offset="0.00177745" stop-color="white"/>
<stop offset="1" stop-color="#CDCEFA"/>
</linearGradient>
<linearGradient id="paint33_linear_565_17" x1="136.431" y1="365.511" x2="123.347" y2="365.494" gradientUnits="userSpaceOnUse">
<stop stop-color="#735AFF" stop-opacity="0.2"/>
<stop offset="1" stop-color="#8598FA"/>
</linearGradient>
<linearGradient id="paint34_linear_565_17" x1="156.971" y1="341.833" x2="163.198" y2="341.833" gradientUnits="userSpaceOnUse">
<stop offset="0.00177745" stop-color="white"/>
<stop offset="1" stop-color="#CDCEFA"/>
</linearGradient>
<linearGradient id="paint35_linear_565_17" x1="160.028" y1="332.77" x2="171.93" y2="332.77" gradientUnits="userSpaceOnUse">
<stop offset="0.00177745" stop-color="white"/>
<stop offset="1" stop-color="#CDCEFA"/>
</linearGradient>
<linearGradient id="paint36_linear_565_17" x1="157.562" y1="331.881" x2="167.929" y2="331.881" gradientUnits="userSpaceOnUse">
<stop offset="0.00177745" stop-color="white"/>
<stop offset="1" stop-color="#CDCEFA"/>
</linearGradient>
<linearGradient id="paint37_linear_565_17" x1="242.255" y1="373.35" x2="242.255" y2="400.733" gradientUnits="userSpaceOnUse">
<stop stop-color="#826BFF" stop-opacity="0.2"/>
<stop offset="1" stop-color="#475BC0"/>
</linearGradient>
<linearGradient id="paint38_linear_565_17" x1="185.627" y1="362.258" x2="185.627" y2="374.609" gradientUnits="userSpaceOnUse">
<stop stop-color="#3D3F6F"/>
<stop offset="1" stop-color="#191943"/>
</linearGradient>
<linearGradient id="paint39_linear_565_17" x1="299.103" y1="362.305" x2="299.103" y2="374.655" gradientUnits="userSpaceOnUse">
<stop stop-color="#3D3F6F"/>
<stop offset="1" stop-color="#191943"/>
</linearGradient>
<linearGradient id="paint40_linear_565_17" x1="332.291" y1="295.67" x2="332.291" y2="318.217" gradientUnits="userSpaceOnUse">
<stop offset="0.00177745" stop-color="white"/>
<stop offset="1" stop-color="#CDCEFA"/>
</linearGradient>
<linearGradient id="paint41_linear_565_17" x1="321.82" y1="305.297" x2="328.731" y2="305.297" gradientUnits="userSpaceOnUse">
<stop offset="0.00177745" stop-color="white"/>
<stop offset="1" stop-color="#CDCEFA"/>
</linearGradient>
<linearGradient id="paint42_linear_565_17" x1="325.122" y1="301.835" x2="328.741" y2="301.835" gradientUnits="userSpaceOnUse">
<stop offset="0.00177745" stop-color="white"/>
<stop offset="1" stop-color="#CDCEFA"/>
</linearGradient>
<linearGradient id="paint43_linear_565_17" x1="321.844" y1="305.297" x2="323.749" y2="305.297" gradientUnits="userSpaceOnUse">
<stop offset="0.00177745" stop-color="white"/>
<stop offset="1" stop-color="#CDCEFA"/>
</linearGradient>
<linearGradient id="paint44_linear_565_17" x1="333.325" y1="312.752" x2="330.846" y2="312.739" gradientUnits="userSpaceOnUse">
<stop stop-color="#735AFF" stop-opacity="0.2"/>
<stop offset="1" stop-color="#8598FA"/>
</linearGradient>
<linearGradient id="paint45_linear_565_17" x1="80.7421" y1="351.818" x2="86.6123" y2="351.956" gradientUnits="userSpaceOnUse">
<stop stop-color="#85A1E9"/>
<stop offset="1" stop-color="#7B8ADC"/>
</linearGradient>
<linearGradient id="paint46_linear_565_17" x1="59.9874" y1="374.346" x2="159.877" y2="374.346" gradientUnits="userSpaceOnUse">
<stop offset="0.00177745" stop-color="white"/>
<stop offset="1" stop-color="#CDCEFA"/>
</linearGradient>
<linearGradient id="paint47_linear_565_17" x1="157.434" y1="341.983" x2="161.063" y2="342.085" gradientUnits="userSpaceOnUse">
<stop stop-color="#85A1E9" stop-opacity="0.39"/>
<stop offset="1" stop-color="#7B8ADC"/>
</linearGradient>
</defs>
</svg>
