<svg width="485" height="490" viewBox="0 0 485 490" fill="none" xmlns="http://www.w3.org/2000/svg">
<rect width="485" height="490" rx="20" fill="url(#paint0_linear_551_17)"/>
<path d="M429.422 332.671C430.634 332.067 430.179 328.994 430.634 319.424C431.088 309.803 434.32 305.874 438.258 305.874C439.47 305.874 440.934 306.73 442.348 307.939C442.146 299.527 441.035 294.389 439.217 291.72C436.743 287.992 432.249 287.085 432.249 287.085C432.249 287.085 422.807 272.679 413.718 270.715C406.75 269.204 377.111 269.506 363.781 269.707C358.681 269.808 353.581 270.614 348.734 272.226C344.896 273.536 340.604 275.248 337.979 277.313C332.273 281.746 323.891 288.345 323.891 288.345C323.891 288.345 318.034 294.943 311.773 296.001L389.179 302.801C389.179 302.801 393.723 302.499 397.965 312.12C402.206 321.69 402.206 349.646 402.206 349.646L401.701 350.755C403.822 349.596 406.094 348.337 408.265 347.027C409.931 346.02 411.598 345.012 413.112 344.005C420.686 338.968 421.949 337.507 422.151 337.154C422.201 337.104 422.201 337.054 422.201 337.054C422.201 337.054 428.21 333.276 429.422 332.671Z" fill="url(#paint1_linear_551_17)"/>
<path d="M330.758 363.448C329.749 362.139 328.688 360.829 328.183 359.268C327.83 358.311 327.729 357.202 327.981 356.195C327.678 356.195 327.375 356.195 327.072 356.195C315.156 355.993 300.109 354.633 283.547 350.251C270.773 346.876 267.44 341.386 264.915 339.119C265.016 339.623 265.117 340.127 265.269 340.63C267.339 348.841 268.601 358.865 288.95 365.01C300.968 368.637 315.358 368.687 325.457 368.334C326.669 366.219 328.991 364.355 330.758 363.448Z" fill="url(#paint2_linear_551_17)"/>
<path d="M343.331 366.622C339.039 365.967 334.646 365.11 330.657 363.499C328.89 364.405 326.618 366.219 325.406 368.334C332.374 368.082 337.322 367.679 338.029 368.082C339.847 369.09 338.029 371.659 343.684 372.716C346.512 373.22 350.35 373.119 353.379 372.817C353.379 371.105 353.329 369.14 353.026 367.226C349.794 367.478 346.563 367.125 343.331 366.622Z" fill="url(#paint3_linear_551_17)"/>
<path d="M327.981 356.195C327.779 357.202 327.88 358.31 328.183 359.267C328.738 360.829 329.748 362.139 330.758 363.448C330.708 363.448 330.708 363.499 330.657 363.499C334.646 365.111 338.989 365.967 343.331 366.622C346.563 367.075 349.845 367.478 353.026 367.176C352.824 365.866 352.521 364.556 352.016 363.398C349.895 358.31 339.544 356.497 327.981 356.195Z" fill="url(#paint4_linear_551_17)"/>
<path d="M276.731 330.153C276.933 326.929 276.882 322.849 276.933 321.892C276.529 321.489 276.125 321.086 275.721 320.633C275.721 320.583 275.67 320.583 275.67 320.532C275.519 320.331 275.367 320.18 275.165 319.978C274.963 319.777 274.812 319.525 274.66 319.323C273.651 317.913 273.045 316.251 272.742 314.488C271.732 315.294 270.974 316.1 270.57 317.057C269.308 319.877 269.51 321.842 269.51 321.842L269.409 321.993C269.46 322.295 269.51 322.598 269.561 322.9C270.318 327.635 275.923 329.851 276.731 330.153Z" fill="url(#paint5_linear_551_17)"/>
<path d="M265.673 327.534C266.027 327.786 273.348 333.931 275.722 334.233C276.277 334.334 276.58 332.47 276.731 330.153C275.924 329.851 270.268 327.584 269.511 322.9C269.46 322.598 269.41 322.295 269.359 321.993L266.229 325.972C266.279 326.023 266.027 326.577 265.673 327.534Z" fill="url(#paint6_linear_551_17)"/>
<path d="M320.457 363.096C320.104 358.563 317.579 348.942 317.579 348.942C317.579 348.942 308.794 345.063 294.302 342.645C288.293 341.638 276.377 340.882 276.377 340.882C276.377 340.882 274.812 345.214 273.903 352.065C277.336 355.188 283.093 359.318 291.272 360.98C301.523 363.046 314.297 363.146 320.457 363.096Z" fill="url(#paint7_linear_551_17)"/>
<path d="M288.899 365.01C297.635 367.68 307.582 368.385 316.267 368.485C317.63 367.78 319.7 366.471 320.306 365.161C320.458 364.808 320.508 364.053 320.407 363.096C314.196 363.196 301.422 363.096 291.273 360.98C283.143 359.318 277.336 355.187 273.903 352.064C273.701 353.626 273.549 355.389 273.448 357.202C276.781 360.124 281.628 362.794 288.899 365.01Z" fill="url(#paint8_linear_551_17)"/>
<path d="M306.723 350.251C306.723 350.251 295.564 348.387 288.798 346.523C282.032 344.66 282.032 344.66 282.032 344.66" stroke="#464491" stroke-width="0.252687" stroke-miterlimit="10" stroke-linecap="round" stroke-linejoin="round"/>
<path d="M398.116 312.07C393.875 302.499 389.33 302.751 389.33 302.751L311.924 295.951C311.924 295.951 288.748 303.759 282.184 308.393C277.841 311.415 274.761 313.027 272.792 314.538C273.095 316.301 273.65 317.963 274.711 319.374C280.063 326.678 292.03 330.808 303.441 330.808C314.903 330.808 344.593 328.844 356.56 328.844C368.527 328.844 379.888 329.448 380.494 330.153C381.1 330.858 390.088 326.224 390.946 333.981C391.653 340.58 391.35 352.619 391.249 356.145C392.208 355.691 396.652 353.525 401.853 350.755L402.358 349.647C402.358 349.596 402.358 321.64 398.116 312.07Z" fill="url(#paint9_linear_551_17)"/>
<path d="M408.417 346.977C409.225 343.955 410.285 340.479 411.295 338.817C414.728 333.427 424.069 331.463 425.736 326.274C427.099 322.144 426.342 308.695 425.13 304.061C423.918 299.427 422.908 294.792 422.908 294.792" stroke="#3D3F6F" stroke-width="0.252687" stroke-miterlimit="10" stroke-linecap="round" stroke-linejoin="round"/>
<path d="M344.795 340.228C353.48 339.976 360.6 337.558 363.276 334.334C364.791 332.47 366.204 330.204 367.164 328.592C361.155 328.693 338.13 329.095 332.021 329.801L322.78 339.925C329.647 340.127 339.494 340.379 344.795 340.228Z" fill="url(#paint10_linear_551_17)"/>
<path d="M351.561 344.257C360.903 342.796 366.356 335.392 367.871 332.42C369.335 329.448 368.628 328.592 368.628 328.592C368.628 328.592 368.123 328.592 367.164 328.592C366.204 330.204 364.791 332.47 363.276 334.334C360.6 337.608 353.48 339.976 344.795 340.228C339.494 340.379 329.647 340.127 322.78 339.875L318.69 344.358C318.69 344.408 342.271 345.718 351.561 344.257Z" fill="url(#paint11_linear_551_17)"/>
<path d="M321.164 330.203C331.617 329.75 343.533 329.095 351.713 328.894C355.954 325.871 362.922 321.237 370.496 317.409C379.282 312.976 389.633 308.594 394.884 306.478C393.319 304.464 391.905 303.557 390.896 303.104C385.291 304.514 373.071 307.99 357.318 314.286C343.129 319.927 329.294 326.325 321.164 330.203Z" fill="url(#paint12_linear_551_17)"/>
<path d="M282.184 308.392C277.841 311.414 274.761 313.026 272.792 314.537C273.095 316.3 273.65 317.963 274.711 319.373C275.67 320.632 276.781 321.841 278.094 322.899C282.436 318.315 287.94 312.825 292.333 309.45C298.089 305.017 306.421 299.426 311.369 296.152C307.683 297.411 288.142 304.211 282.184 308.392Z" fill="url(#paint13_linear_551_17)"/>
<path d="M314.398 288.848C312.833 289.402 311.874 290.158 311.47 291.065C311.116 291.871 311.318 292.777 312.076 293.634C313.691 295.397 311.874 295.951 311.874 295.951C313.388 295.699 314.903 295.094 316.317 294.339C320.659 292.022 323.992 288.294 323.992 288.294C323.992 288.294 317.428 287.79 314.398 288.848Z" fill="url(#paint14_linear_551_17)"/>
<path d="M324.043 288.294C324.043 288.294 317.428 287.74 314.398 288.848C312.833 289.402 311.874 290.158 311.47 291.064C312.076 292.172 312.985 293.129 314.146 293.683C314.853 294.036 315.61 294.238 316.368 294.389C320.71 292.072 324.043 288.294 324.043 288.294Z" fill="url(#paint15_linear_551_17)"/>
<path d="M370.395 344.156C376.757 331.714 380.443 330.153 380.443 330.153C379.888 329.447 368.477 328.843 356.51 328.843C344.543 328.843 314.853 330.807 303.391 330.807C291.929 330.807 280.013 326.677 274.66 319.373C273.65 317.963 273.045 316.301 272.742 314.538C271.732 315.344 270.974 316.149 270.57 317.107C269.308 319.927 269.51 321.892 269.51 321.892L266.278 326.022C266.278 326.022 263.552 331.664 264.915 339.119C265.016 339.622 265.117 340.126 265.269 340.63C267.339 348.84 268.601 358.864 288.95 365.009C300.967 368.636 315.358 368.687 325.456 368.334C332.424 368.082 337.373 367.679 338.08 368.082C339.897 369.09 338.08 371.658 343.735 372.716C346.563 373.22 350.4 373.119 353.43 372.817C353.43 372.414 353.43 372.011 353.43 371.558C353.43 372.011 353.43 372.414 353.43 372.817C356.459 372.565 358.782 372.162 358.782 372.162L365.598 371.961C365.598 372.011 364.033 356.597 370.395 344.156Z" fill="url(#paint16_linear_551_17)"/>
<path d="M362.973 376.847C364.639 376.998 367.063 377.149 370.193 377.35C376.253 377.703 383.524 374.933 386.755 368.133C389.532 362.29 391.047 356.245 391.047 356.245C391.047 356.245 391.148 356.195 391.249 356.144C391.35 352.669 391.653 340.58 390.946 333.981C390.088 326.224 381.049 330.858 380.494 330.153C380.494 330.153 376.808 331.765 370.446 344.156C364.084 356.547 365.649 372.011 365.649 372.011L358.832 372.213L359.741 374.429C360.196 375.789 361.458 376.696 362.973 376.847Z" fill="url(#paint17_linear_551_17)"/>
<path d="M284.153 331.413C284.153 331.413 287.233 336.55 291.474 337.256C296.978 338.162 304.098 334.485 304.098 334.485C304.098 334.485 297.736 334.787 292.838 333.881C286.526 332.672 284.153 331.413 284.153 331.413Z" fill="url(#paint18_linear_551_17)"/>
<path d="M338.332 338.716C340.396 338.716 342.069 337.047 342.069 334.988C342.069 332.93 340.396 331.261 338.332 331.261C336.269 331.261 334.596 332.93 334.596 334.988C334.596 337.047 336.269 338.716 338.332 338.716Z" fill="url(#paint19_linear_551_17)"/>
<path d="M338.332 337.155C339.531 337.155 340.503 336.185 340.503 334.989C340.503 333.792 339.531 332.823 338.332 332.823C337.133 332.823 336.161 333.792 336.161 334.989C336.161 336.185 337.133 337.155 338.332 337.155Z" fill="url(#paint20_linear_551_17)"/>
<path d="M349.966 338.708C352.029 338.708 353.702 337.039 353.702 334.981C353.702 332.922 352.029 331.253 349.966 331.253C347.902 331.253 346.229 332.922 346.229 334.981C346.229 337.039 347.902 338.708 349.966 338.708Z" fill="url(#paint21_linear_551_17)"/>
<path d="M349.965 337.147C351.165 337.147 352.137 336.178 352.137 334.981C352.137 333.785 351.165 332.815 349.965 332.815C348.766 332.815 347.794 333.785 347.794 334.981C347.794 336.178 348.766 337.147 349.965 337.147Z" fill="url(#paint22_linear_551_17)"/>
<path d="M430.634 319.373C430.179 328.994 430.634 332.016 429.422 332.621C428.21 333.225 422.353 336.953 422.353 336.953L422.757 337.255C423.514 337.859 424.474 338.212 425.433 338.212H433.764C433.764 338.212 441.237 335.391 442.146 319.726C442.399 315.192 442.5 311.263 442.399 307.838C440.985 306.629 439.521 305.773 438.309 305.773C434.32 305.823 431.088 309.803 430.634 319.373Z" fill="url(#paint23_linear_551_17)"/>
<path d="M421.646 295.346L430.28 292.324C430.28 292.324 429.018 288.898 427.957 286.984C425.736 283.106 421.747 279.58 418.263 277.666C418.616 278.723 419.02 280.184 419.424 282.199C419.979 285.372 420.989 291.366 421.646 295.346Z" fill="url(#paint24_linear_551_17)"/>
<path d="M414.223 276.105C414.072 276.105 413.971 276.054 413.819 276.054C409.982 275.702 403.468 276.659 398.924 285.826C394.38 294.994 396.854 304.061 396.854 304.061L418.566 296.455C418.263 293.987 417.758 290.511 417.051 286.632C416.193 281.998 415.031 278.371 414.223 276.105Z" fill="url(#paint25_linear_551_17)"/>
<path d="M419.374 282.149C418.97 280.134 418.566 278.673 418.212 277.616C416.748 276.81 415.385 276.256 414.223 276.104C415.031 278.321 416.193 281.998 417.051 286.531C417.808 290.46 418.263 293.936 418.566 296.354L421.646 295.296C420.99 291.367 419.98 285.373 419.374 282.149Z" fill="url(#paint26_linear_551_17)"/>
<path d="M400.439 298.47C400.843 299.125 401.499 299.628 402.155 300.031C404.175 301.24 406.599 301.794 408.972 301.845C410.689 301.895 412.456 301.694 414.122 301.341C416.092 298.52 412.91 292.324 399.328 294.541C399.58 295.296 399.681 296.253 399.833 296.808C399.984 297.412 400.136 297.966 400.439 298.47Z" fill="url(#paint27_linear_551_17)"/>
<path d="M397.914 302.702C397.914 302.702 408.518 304.062 412.759 302.45C413.365 302.198 413.819 301.845 414.122 301.392C412.406 301.744 410.689 301.946 408.972 301.896C406.599 301.845 404.175 301.291 402.155 300.082C401.499 299.679 400.843 299.176 400.439 298.521C400.136 298.017 399.984 297.413 399.833 296.858C399.681 296.304 399.58 295.347 399.328 294.592C398.873 294.693 398.368 294.743 397.864 294.844V302.702H397.914Z" fill="url(#paint28_linear_551_17)"/>
<path d="M392.006 275.046L350.249 274.089C350.249 274.089 343.786 276.608 335.858 282.955C332.122 285.977 329.243 288.848 327.527 290.762C326.214 292.173 325.507 293.079 325.507 293.079C325.507 293.079 336.06 293.482 356.358 295.396C376.657 297.31 389.734 299.829 389.734 299.829C389.734 299.829 390.138 286.531 392.057 281.695C392.663 280.134 393.218 278.925 393.723 277.968C394.43 276.658 393.471 275.097 392.006 275.046Z" fill="url(#paint29_linear_551_17)"/>
<path d="M356.358 295.347C376.657 297.261 389.734 299.78 389.734 299.78C389.734 299.78 390.138 286.482 392.057 281.646C392.663 280.084 393.218 278.876 393.723 277.918C393.673 277.918 393.673 277.969 393.622 277.969C388.522 281.747 385.493 288.093 385.745 294.39C385.745 294.692 385.796 295.045 385.594 295.297C385.341 295.699 384.786 295.699 384.281 295.699C374.283 295.145 330.758 290.259 327.83 290.662C327.729 290.662 327.628 290.713 327.476 290.713C326.163 292.123 325.456 293.03 325.456 293.03C325.456 293.03 336.111 293.483 356.358 295.347Z" fill="url(#paint30_linear_551_17)" fill-opacity="0.2"/>
<path d="M388.4 354.004C390.485 343.526 388.538 334.313 384.051 333.427C379.565 332.54 374.239 340.316 372.154 350.794C370.069 361.272 372.016 370.485 376.503 371.372C380.989 372.258 386.315 364.483 388.4 354.004Z" fill="url(#paint31_linear_551_17)"/>
<path d="M382.106 352.762C382.573 350.415 382.13 348.35 381.118 348.15C380.106 347.95 378.908 349.69 378.441 352.037C377.975 354.384 378.417 356.448 379.429 356.649C380.441 356.849 381.64 355.109 382.106 352.762Z" fill="url(#paint32_linear_551_17)"/>
<path d="M440.655 321.388C441.417 314.475 440.169 308.667 437.869 308.415C435.568 308.163 433.085 313.563 432.323 320.476C431.561 327.389 432.809 333.197 435.109 333.449C437.41 333.701 439.893 328.301 440.655 321.388Z" fill="url(#paint33_linear_551_17)"/>
<path d="M437.441 321.037C437.612 319.488 437.323 318.186 436.797 318.129C436.27 318.071 435.705 319.279 435.534 320.828C435.364 322.377 435.652 323.679 436.179 323.736C436.706 323.794 437.271 322.586 437.441 321.037Z" fill="url(#paint34_linear_551_17)"/>
<path d="M421.696 316.905C422.728 316.905 423.565 315.981 423.565 314.84C423.565 313.7 422.728 312.775 421.696 312.775C420.665 312.775 419.828 313.7 419.828 314.84C419.828 315.981 420.665 316.905 421.696 316.905Z" fill="url(#paint35_linear_551_17)"/>
<path d="M372.516 370.853C371.456 371.759 370.496 372.817 369.789 374.026" stroke="#191943" stroke-width="0.252687" stroke-miterlimit="10" stroke-linecap="round" stroke-linejoin="round"/>
<path d="M370.597 367.579C369.486 368.435 368.426 369.392 367.517 370.45" stroke="#191943" stroke-width="0.252687" stroke-miterlimit="10" stroke-linecap="round" stroke-linejoin="round"/>
<path d="M368.981 360.98C368.123 361.534 367.416 362.239 366.861 363.096" stroke="#191943" stroke-width="0.252687" stroke-miterlimit="10" stroke-linecap="round" stroke-linejoin="round"/>
<path d="M392.006 275.047C392.006 275.047 381.958 274.644 366.305 279.379C350.652 284.113 339.897 291.518 339.897 291.518L347.421 292.173C347.421 292.173 359.691 285.725 370.496 281.645C381.352 277.565 393.976 277.213 393.976 277.213C393.976 277.213 394.43 276.004 392.006 275.047Z" fill="url(#paint36_linear_551_17)"/>
<path d="M397.207 304.917C396.248 304.917 395.49 304.161 395.49 303.204V298.923C395.49 297.966 396.248 297.21 397.207 297.21C398.167 297.21 398.924 297.966 398.924 298.923V303.204C398.924 304.161 398.116 304.917 397.207 304.917Z" fill="url(#paint37_linear_551_17)"/>
<path d="M234.582 147.859L182.372 147.557C182.372 147.557 211.911 149.824 220.798 150.781C229.685 151.688 234.582 147.859 234.582 147.859Z" fill="#F1F6FF"/>
<path d="M234.582 147.86C234.582 147.86 229.634 151.688 220.798 150.731C211.911 149.774 182.372 147.507 182.372 147.507L228.776 153.804L234.582 147.86Z" fill="url(#paint38_linear_551_17)"/>
<path d="M247.326 137.862C247.139 137.506 249.477 105 249.477 105H251.581L253.31 137.891L247.326 137.862Z" fill="#F1F6FF"/>
<path d="M266.026 147.859L318.236 147.557C318.236 147.557 288.698 149.824 279.811 150.781C270.924 151.688 266.026 147.859 266.026 147.859Z" fill="#F1F6FF"/>
<path d="M266.026 147.86C266.026 147.86 270.974 151.688 279.811 150.731C288.698 149.774 318.236 147.507 318.236 147.507L271.833 153.804L266.026 147.86Z" fill="url(#paint39_linear_551_17)"/>
<path d="M207.05 196.771C207.496 196.771 207.858 196.005 207.858 195.059C207.858 194.113 207.496 193.346 207.05 193.346C206.604 193.346 206.242 194.113 206.242 195.059C206.242 196.005 206.604 196.771 207.05 196.771Z" fill="#7B8ADC"/>
<path d="M209.171 199.892C207.96 199.892 207 198.935 207 197.726V192.84C207 191.631 207.96 190.674 209.171 190.674C210.383 190.674 211.343 191.631 211.343 192.84V197.726C211.343 198.885 210.383 199.892 209.171 199.892Z" fill="#7B8ADC"/>
<path d="M209.373 198.736H209.02C207.909 198.736 207 197.829 207 196.721V192.641C207 191.533 207.909 190.626 209.02 190.626H209.373C210.484 190.626 211.393 191.533 211.393 192.641V196.721C211.393 197.829 210.484 198.736 209.373 198.736Z" fill="#7B8ADC"/>
<path d="M221.037 196.771C221.483 196.771 221.845 196.005 221.845 195.059C221.845 194.113 221.483 193.346 221.037 193.346C220.59 193.346 220.229 194.113 220.229 195.059C220.229 196.005 220.59 196.771 221.037 196.771Z" fill="#8598FA"/>
<path d="M218.915 199.892C220.126 199.892 221.086 198.935 221.086 197.726V192.84C221.086 191.631 220.126 190.674 218.915 190.674C217.703 190.674 216.743 191.631 216.743 192.84V197.726C216.743 198.885 217.703 199.892 218.915 199.892Z" fill="#8598FA"/>
<path d="M218.714 198.736H219.067C220.178 198.736 221.087 197.829 221.087 196.721V192.641C221.087 191.533 220.178 190.626 219.067 190.626H218.714C217.603 190.626 216.694 191.533 216.694 192.641V196.721C216.694 197.829 217.603 198.736 218.714 198.736Z" fill="#8598FA"/>
<path d="M216.593 194.252H211.089V195.562H216.593V194.252Z" fill="#4657B0"/>
<path d="M214.725 181.458H212.907V194.353H214.725V181.458Z" fill="#8598FA"/>
<path d="M215.344 186.73H212.346V188.724H215.344V186.73Z" fill="#D9E1FF"/>
<path d="M161.859 191.482C161.859 191.482 176.704 189.618 177.815 181.811C179.026 173.248 163.676 168.966 163.676 168.966L161.859 191.482Z" fill="url(#paint40_linear_551_17)"/>
<path d="M161.101 191.432C167.404 191.432 172.513 186.335 172.513 180.048C172.513 173.761 167.404 168.664 161.101 168.664C154.799 168.664 149.69 173.761 149.69 180.048C149.69 186.335 154.799 191.432 161.101 191.432Z" fill="url(#paint41_linear_551_17)"/>
<path d="M161.101 189.417C166.288 189.417 170.493 185.222 170.493 180.048C170.493 174.873 166.288 170.679 161.101 170.679C155.914 170.679 151.71 174.873 151.71 180.048C151.71 185.222 155.914 189.417 161.101 189.417Z" fill="url(#paint42_linear_551_17)"/>
<path d="M161.101 182.869C162.663 182.869 163.929 181.606 163.929 180.048C163.929 178.49 162.663 177.227 161.101 177.227C159.54 177.227 158.274 178.49 158.274 180.048C158.274 181.606 159.54 182.869 161.101 182.869Z" fill="url(#paint43_linear_551_17)"/>
<path d="M142.873 162.519L149.033 160.051C153.527 158.237 158.425 157.633 163.171 158.338L212.958 165.44L217.048 169.873C217.048 169.873 195.689 172.543 181.601 169.571C167.514 166.599 142.873 162.519 142.873 162.519Z" fill="url(#paint44_linear_551_17)"/>
<path d="M195.841 174.205C207.707 176.673 245.021 192.792 245.021 192.792L227.247 168.865C227.247 168.865 209.423 168.261 187.206 167.606C164.989 167.002 140.652 159.849 110.053 157.381C79.4539 154.862 46.3304 154.056 46.3304 154.056C53.4499 158.388 89.0981 161.813 128.937 165.793C129.19 165.692 129.493 165.591 129.897 165.541C138.026 164.533 183.975 171.686 195.841 174.205Z" fill="url(#paint45_linear_551_17)"/>
<path d="M232.751 192.741H245.021C245.021 192.741 207.707 176.672 195.841 174.154C183.975 171.686 138.076 164.482 129.947 165.44C129.543 165.49 129.24 165.591 128.988 165.691C133.381 166.145 137.874 166.598 142.368 167.051C187.307 171.585 232.751 192.741 232.751 192.741Z" fill="url(#paint46_linear_551_17)"/>
<path d="M76.6261 163.676C78.6619 163.676 80.3121 162.03 80.3121 159.999C80.3121 157.969 78.6619 156.322 76.6261 156.322C74.5904 156.322 72.9401 157.969 72.9401 159.999C72.9401 162.03 74.5904 163.676 76.6261 163.676Z" fill="url(#paint47_linear_551_17)"/>
<path d="M133.381 169.469C135.416 169.469 137.067 167.823 137.067 165.792C137.067 163.762 135.416 162.115 133.381 162.115C131.345 162.115 129.695 163.762 129.695 165.792C129.695 167.823 131.345 169.469 133.381 169.469Z" fill="url(#paint48_linear_551_17)"/>
<path d="M195.588 180.35C197.624 180.35 199.274 178.703 199.274 176.673C199.274 174.642 197.624 172.996 195.588 172.996C193.553 172.996 191.902 174.642 191.902 176.673C191.902 178.703 193.553 180.35 195.588 180.35Z" fill="url(#paint49_linear_551_17)"/>
<path d="M292.28 196.771C291.834 196.771 291.472 196.005 291.472 195.059C291.472 194.113 291.834 193.346 292.28 193.346C292.727 193.346 293.088 194.113 293.088 195.059C293.088 196.005 292.727 196.771 292.28 196.771Z" fill="#7B8ADC"/>
<path d="M290.159 199.892C291.371 199.892 292.33 198.935 292.33 197.726V192.84C292.33 191.631 291.371 190.674 290.159 190.674C288.947 190.674 287.988 191.631 287.988 192.84V197.726C287.988 198.885 288.947 199.892 290.159 199.892Z" fill="#7B8ADC"/>
<path d="M289.957 198.736H290.31C291.421 198.736 292.33 197.829 292.33 196.721V192.641C292.33 191.533 291.421 190.626 290.31 190.626H289.957C288.846 190.626 287.937 191.533 287.937 192.641V196.721C287.937 197.829 288.846 198.736 289.957 198.736Z" fill="#7B8ADC"/>
<path d="M278.294 196.771C277.848 196.771 277.486 196.005 277.486 195.059C277.486 194.113 277.848 193.346 278.294 193.346C278.74 193.346 279.102 194.113 279.102 195.059C279.102 196.005 278.74 196.771 278.294 196.771Z" fill="#8598FA"/>
<path d="M280.416 199.892C279.204 199.892 278.245 198.935 278.245 197.726V192.84C278.245 191.631 279.204 190.674 280.416 190.674C281.628 190.674 282.587 191.631 282.587 192.84V197.726C282.587 198.885 281.628 199.892 280.416 199.892Z" fill="#8598FA"/>
<path d="M280.616 198.736H280.263C279.152 198.736 278.243 197.829 278.243 196.721V192.641C278.243 191.533 279.152 190.626 280.263 190.626H280.616C281.727 190.626 282.636 191.533 282.636 192.641V196.721C282.636 197.829 281.727 198.736 280.616 198.736Z" fill="#8598FA"/>
<path d="M282.737 194.252H288.241V195.562H282.737V194.252Z" fill="#4657B0"/>
<path d="M284.605 181.458H286.423V194.353H284.605V181.458Z" fill="#8598FA"/>
<path d="M283.987 186.73H286.984V188.724H283.987V186.73Z" fill="#D9E1FF"/>
<path d="M337.472 191.482C337.472 191.482 322.627 189.618 321.516 181.811C320.304 173.248 335.654 168.966 335.654 168.966L337.472 191.482Z" fill="url(#paint50_linear_551_17)"/>
<path d="M338.229 191.432C331.927 191.432 326.818 186.335 326.818 180.048C326.818 173.761 331.927 168.664 338.229 168.664C344.531 168.664 349.64 173.761 349.64 180.048C349.64 186.335 344.531 191.432 338.229 191.432Z" fill="url(#paint51_linear_551_17)"/>
<path d="M338.229 189.417C333.042 189.417 328.837 185.222 328.837 180.048C328.837 174.873 333.042 170.679 338.229 170.679C343.416 170.679 347.621 174.873 347.621 180.048C347.621 185.222 343.416 189.417 338.229 189.417Z" fill="url(#paint52_linear_551_17)"/>
<path d="M338.229 182.869C336.668 182.869 335.402 181.606 335.402 180.048C335.402 178.49 336.668 177.227 338.229 177.227C339.791 177.227 341.057 178.49 341.057 180.048C341.057 181.606 339.791 182.869 338.229 182.869Z" fill="url(#paint53_linear_551_17)"/>
<path d="M356.457 162.519L350.297 160.051C345.803 158.237 340.905 157.633 336.159 158.338L286.373 165.44L282.283 169.873C282.283 169.873 303.641 172.543 317.729 169.571C331.816 166.599 356.457 162.519 356.457 162.519Z" fill="url(#paint54_linear_551_17)"/>
<path d="M303.49 174.205C291.624 176.673 254.309 192.792 254.309 192.792L272.083 168.865C272.083 168.865 289.907 168.261 312.124 167.606C334.341 167.002 358.679 159.849 389.278 157.381C419.876 154.862 453 154.056 453 154.056C445.88 158.388 410.232 161.813 370.393 165.793C370.141 165.692 369.838 165.591 369.434 165.541C361.304 164.533 315.356 171.686 303.49 174.205Z" fill="url(#paint55_linear_551_17)"/>
<path d="M266.579 192.741H254.309C254.309 192.741 291.624 176.672 303.49 174.154C315.356 171.686 361.254 164.482 369.383 165.44C369.787 165.49 370.09 165.591 370.343 165.691C365.95 166.145 361.456 166.598 356.962 167.051C312.023 171.585 266.579 192.741 266.579 192.741Z" fill="url(#paint56_linear_551_17)"/>
<path d="M422.704 163.676C420.668 163.676 419.018 162.03 419.018 159.999C419.018 157.969 420.668 156.322 422.704 156.322C424.74 156.322 426.39 157.969 426.39 159.999C426.39 162.03 424.74 163.676 422.704 163.676Z" fill="url(#paint57_linear_551_17)"/>
<path d="M365.95 169.469C363.914 169.469 362.264 167.823 362.264 165.792C362.264 163.762 363.914 162.115 365.95 162.115C367.986 162.115 369.636 163.762 369.636 165.792C369.636 167.823 367.986 169.469 365.95 169.469Z" fill="url(#paint58_linear_551_17)"/>
<path d="M303.742 180.35C301.706 180.35 300.056 178.703 300.056 176.673C300.056 174.642 301.706 172.996 303.742 172.996C305.778 172.996 307.428 174.642 307.428 176.673C307.428 178.703 305.778 180.35 303.742 180.35Z" fill="url(#paint59_linear_551_17)"/>
<path d="M250.121 193.344C263.032 193.344 273.499 180.512 273.499 164.683C273.499 148.854 263.032 136.022 250.121 136.022C237.209 136.022 226.742 148.854 226.742 164.683C226.742 180.512 237.209 193.344 250.121 193.344Z" fill="url(#paint60_linear_551_17)"/>
<path d="M268.803 169.52C268.096 168.966 266.178 172.844 260.472 177.579C254.766 182.314 246.081 182.314 240.376 177.579C234.67 172.844 232.701 168.966 232.044 169.52C231.337 170.074 231.085 191.179 248.758 191.179C249.363 191.179 251.535 191.179 252.141 191.179C269.763 191.23 269.51 170.074 268.803 169.52Z" fill="url(#paint61_linear_551_17)"/>
<path d="M238.817 146.046C238.236 146.046 237.683 146.3 237.303 146.74L236.512 147.657C235.488 148.844 236.166 150.694 237.715 150.939L247.243 152.444C249.313 152.796 251.484 152.796 253.554 152.444L263.337 150.916C264.864 150.678 265.555 148.873 264.578 147.676L263.849 146.782C263.469 146.316 262.9 146.046 262.3 146.046H250.676H238.817Z" fill="url(#paint62_linear_551_17)"/>
<path d="M35.9287 315.999L33.0001 320.028V329.045L36.9385 330.354V317.409L35.9287 315.999Z" fill="url(#paint63_linear_551_17)"/>
<path d="M45.6579 314.31H38.6624C38.6624 314.31 39.9426 319.053 40.6285 323.249C41.3143 327.446 39.0739 341.175 39.0739 341.175H45.6579C47.944 341.175 49.8186 335.154 49.8186 327.719C49.8186 320.285 47.9897 314.31 45.6579 314.31Z" fill="url(#paint64_linear_551_17)"/>
<path d="M38.6624 341.221C40.9603 341.221 42.8231 335.197 42.8231 327.765C42.8231 320.334 40.9603 314.31 38.6624 314.31C36.3645 314.31 34.5017 320.334 34.5017 327.765C34.5017 335.197 36.3645 341.221 38.6624 341.221Z" fill="url(#paint65_linear_551_17)"/>
<path d="M38.6624 337.389C40.3038 337.389 41.6344 333.08 41.6344 327.765C41.6344 322.45 40.3038 318.141 38.6624 318.141C37.0211 318.141 35.6905 322.45 35.6905 327.765C35.6905 333.08 37.0211 337.389 38.6624 337.389Z" fill="url(#paint66_linear_551_17)"/>
<path d="M38.6623 332.6C39.4956 332.6 40.1711 330.435 40.1711 327.765C40.1711 325.095 39.4956 322.93 38.6623 322.93C37.829 322.93 37.1535 325.095 37.1535 327.765C37.1535 330.435 37.829 332.6 38.6623 332.6Z" fill="url(#paint67_linear_551_17)"/>
<path d="M37.8394 332.6C38.6727 332.6 39.3482 330.435 39.3482 327.765C39.3482 325.095 38.6727 322.93 37.8394 322.93C37.0061 322.93 36.3306 325.095 36.3306 327.765C36.3306 330.435 37.0061 332.6 37.8394 332.6Z" fill="url(#paint68_linear_551_17)"/>
<path d="M41.0857 340.49H45.9779C45.9779 340.49 49.6814 336.02 49.1784 327.81C48.6755 319.6 47.6696 317.776 47.6696 317.776C47.6696 317.776 49.087 327.491 48.4012 331.596C47.5325 336.887 45.2921 339.304 45.2921 339.304L41.0857 340.49Z" fill="#191943"/>
<path d="M56.328 314.589H48.6025C48.6025 314.589 50.0163 319.827 50.7737 324.462C51.5311 329.096 49.0569 344.257 49.0569 344.257H56.328C58.8526 344.257 60.9228 337.608 60.9228 329.398C60.9228 321.188 58.9031 314.589 56.328 314.589Z" fill="url(#paint69_linear_551_17)"/>
<path d="M48.6024 344.308C51.1401 344.308 53.1973 337.656 53.1973 329.449C53.1973 321.242 51.1401 314.589 48.6024 314.589C46.0648 314.589 44.0076 321.242 44.0076 329.449C44.0076 337.656 46.0648 344.308 48.6024 344.308Z" fill="url(#paint70_linear_551_17)"/>
<path d="M48.6024 340.077C50.415 340.077 51.8845 335.318 51.8845 329.449C51.8845 323.579 50.415 318.82 48.6024 318.82C46.7898 318.82 45.3204 323.579 45.3204 329.449C45.3204 335.318 46.7898 340.077 48.6024 340.077Z" fill="url(#paint71_linear_551_17)"/>
<path d="M48.6024 334.788C49.5226 334.788 50.2687 332.397 50.2687 329.448C50.2687 326.499 49.5226 324.109 48.6024 324.109C47.6821 324.109 46.9361 326.499 46.9361 329.448C46.9361 332.397 47.6821 334.788 48.6024 334.788Z" fill="url(#paint72_linear_551_17)"/>
<path d="M47.6935 334.788C48.6138 334.788 49.3598 332.397 49.3598 329.448C49.3598 326.499 48.6138 324.109 47.6935 324.109C46.7732 324.109 46.0272 326.499 46.0272 329.448C46.0272 332.397 46.7732 334.788 47.6935 334.788Z" fill="url(#paint73_linear_551_17)"/>
<path d="M51.2786 343.502H56.6814C56.6814 343.502 60.7713 338.565 60.2159 329.499C59.6605 320.432 58.5496 318.417 58.5496 318.417C58.5496 318.417 60.1149 329.146 59.3575 333.679C58.3981 339.522 55.924 342.192 55.924 342.192L51.2786 343.502Z" fill="#191943"/>
<path d="M125.907 267.845C123.736 264.52 122.423 248.351 122.423 248.351C164.484 243.415 180.844 253.388 180.844 253.388C180.844 253.388 182.662 252.129 182.662 251.172C182.662 250.215 176.653 246.235 169.029 244.523C161.404 242.81 149.488 242.407 149.488 242.407C149.488 242.407 122.726 243.515 112.931 245.278C103.135 247.041 98.9441 251.474 98.9441 251.474V317.511C98.9441 317.511 107.679 319.777 113.638 319.979C114.092 319.979 114.547 319.979 115.001 320.029C117.223 317.007 120.05 314.388 123.383 312.373C131.26 307.638 141.308 302.953 150.599 302.953C167.716 302.953 186.095 318.468 192.861 326.729C192.609 313.028 192.508 296.304 193.265 293.987C193.619 292.829 194.174 291.418 195.083 290.008L130.755 273.234C130.805 273.285 128.079 271.169 125.907 267.845Z" fill="url(#paint74_linear_551_17)"/>
<path d="M145.044 357.606C142.166 345.819 135.956 321.842 127.17 319.827C107.427 315.294 112.88 344.358 111.719 357.001H115.506C115.506 357.001 114.849 372.264 121.111 379.467C125.453 384.454 131.916 384.303 140.803 382.993C149.69 381.683 153.275 370.753 153.275 370.753C148.074 367.277 147.922 369.393 145.044 357.606Z" fill="#191943"/>
<path d="M120.757 297.614H113.739V304.817H120.757V297.614Z" fill="url(#paint75_linear_551_17)"/>
<path d="M65.9721 338.163C65.6186 338.062 62.488 338.062 59.6604 338.062C57.1358 338.112 55.0655 336.047 55.0655 333.579V324.411C55.0655 322.497 54.5101 320.583 53.4497 318.971L52.3389 317.309H36.1306L35.8276 316.05L39.5136 313.279L59.6099 312.725L70.1125 315.244L65.9721 338.163Z" fill="url(#paint76_linear_551_17)"/>
<path d="M245.959 342.859C245.959 327.647 240.607 315.306 234.043 315.306C233.74 315.306 233.387 315.357 233.084 315.407H217.582V370.412H233.993C240.607 370.412 245.959 358.071 245.959 342.859Z" fill="url(#paint77_linear_551_17)"/>
<path d="M216.27 370.413C222.851 370.413 228.186 358.077 228.186 342.86C228.186 327.643 222.851 315.307 216.27 315.307C209.688 315.307 204.353 327.643 204.353 342.86C204.353 358.077 209.688 370.413 216.27 370.413Z" fill="url(#paint78_linear_551_17)"/>
<path d="M217.027 361.346C221.824 361.346 225.712 353.61 225.712 344.068C225.712 334.526 221.824 326.791 217.027 326.791C212.231 326.791 208.342 334.526 208.342 344.068C208.342 353.61 212.231 361.346 217.027 361.346Z" fill="url(#paint79_linear_551_17)"/>
<path d="M215.664 354.243C218.48 354.243 220.764 349.688 220.764 344.069C220.764 338.449 218.48 333.894 215.664 333.894C212.847 333.894 210.564 338.449 210.564 344.069C210.564 349.688 212.847 354.243 215.664 354.243Z" fill="url(#paint80_linear_551_17)"/>
<path d="M215.426 350.558C216.805 350.558 217.923 347.88 217.923 344.577C217.923 341.275 216.805 338.597 215.426 338.597C214.046 338.597 212.928 341.275 212.928 344.577C212.928 347.88 214.046 350.558 215.426 350.558Z" fill="url(#paint81_linear_551_17)"/>
<path d="M70.0116 234.247C71.4896 234.247 72.6878 232.826 72.6878 231.074C72.6878 229.321 71.4896 227.9 70.0116 227.9C68.5336 227.9 67.3355 229.321 67.3355 231.074C67.3355 232.826 68.5336 234.247 70.0116 234.247Z" stroke="#30FF29" stroke-width="0.252687" stroke-miterlimit="10" stroke-linecap="round" stroke-linejoin="round"/>
<path d="M83.6101 234.572L83.4589 234.623C83.6606 235.778 83.8118 236.985 83.8118 238.241V317.299H98.9362V251.359C98.9362 251.359 103.121 246.936 112.901 245.177C122.681 243.418 149.401 242.312 149.401 242.312L147.435 238.995C147.435 238.995 147.133 238.04 146.78 236.884C146.477 236.733 146.326 236.633 146.326 236.633L83.6101 234.572Z" fill="url(#paint82_linear_551_17)"/>
<path d="M118.233 220.495C102.731 216.818 82.5843 217.775 71.3749 219.992C71.3244 219.992 71.2234 220.042 71.1729 220.042C77.434 222.41 82.1804 227.95 83.4427 234.65L83.5942 234.599L146.408 236.614C146.408 236.614 146.559 236.715 146.862 236.866C146.559 236.01 146.206 235.053 145.903 234.347C145.095 232.635 133.734 224.173 118.233 220.495Z" fill="url(#paint83_linear_551_17)"/>
<path d="M60.0139 245.278V314.589L65.5682 317.561H83.7457V238.327C83.7457 237.068 83.6447 235.859 83.3923 234.7L60.0139 245.278Z" fill="url(#paint84_linear_551_17)"/>
<path d="M180.608 269.309H192.081V271.062H180.608V269.309Z" fill="url(#paint85_linear_551_17)"/>
<path d="M191.066 275.997H192.931C194.287 275.997 195.361 274.406 195.361 272.49V259.686C195.361 257.729 194.259 256.179 192.931 256.179H191.066C189.709 256.179 188.636 257.769 188.636 259.686V272.49C188.636 274.447 189.738 275.997 191.066 275.997Z" fill="#575AA6"/>
<path d="M191.178 274.733H192.789C193.948 274.733 194.908 273.347 194.908 271.675V260.502C194.908 258.83 193.948 257.444 192.789 257.444H191.178C190.02 257.444 189.059 258.83 189.059 260.502V271.675C189.059 273.347 190.02 274.733 191.178 274.733Z" fill="url(#paint86_linear_551_17)"/>
<path d="M179.563 273.265H179.704C180.354 273.265 180.891 272.49 180.891 271.552V269.472C180.891 268.535 180.354 267.76 179.704 267.76H179.563C178.913 267.76 178.376 268.535 178.376 269.472V271.552C178.376 272.49 178.913 273.265 179.563 273.265Z" fill="url(#paint87_linear_551_17)"/>
<path d="M179.93 273.265C180.439 273.265 180.863 272.653 180.863 271.919V269.146C180.863 268.412 180.439 267.801 179.93 267.801C179.421 267.801 178.997 268.412 178.997 269.146V271.919C178.997 272.653 179.421 273.265 179.93 273.265Z" fill="url(#paint88_linear_551_17)"/>
<path d="M71.1224 220.092C60.1149 222.46 60.0139 236.463 60.0139 236.463V245.278L83.3923 234.7C82.1299 227.95 77.4341 222.46 71.1224 220.092Z" fill="url(#paint89_linear_551_17)"/>
<path d="M199.325 299.074C199.325 293.583 203.465 288.949 208.969 288.395L230.832 286.128C229.923 285.171 229.014 284.416 228.106 283.912C223.107 283.005 217.553 282.401 212.402 282.653C197.709 283.408 194.578 290.007 193.265 294.037C192.508 296.354 192.659 313.077 192.861 326.778C193.619 327.735 194.275 328.591 194.73 329.347C196.042 331.412 197.507 333.225 199.325 334.636C199.325 334.585 199.325 334.535 199.325 334.535V299.074V299.074Z" fill="url(#paint90_linear_551_17)"/>
<path d="M219.37 337.105C228.29 334.914 232.976 333.204 235.134 332.293C236.115 331.878 236.69 330.909 236.69 329.844V313.092C236.69 313.053 236.63 312.999 236.592 312.988V312.988C236.54 312.972 236.535 312.937 236.53 312.882C236.484 312.282 236.245 308.781 236.336 301.039C236.426 295.579 234.323 290.556 231.799 287.278C231.222 286.529 230.278 286.187 229.338 286.284L208.969 288.396C203.465 288.95 199.325 293.584 199.325 299.075V334.536V334.536C199.325 334.6 199.353 334.66 199.403 334.7C203.741 338.128 209.835 339.408 219.37 337.105Z" fill="url(#paint91_linear_551_17)"/>
<path d="M212.402 282.654C217.553 282.402 223.056 283.006 228.106 283.913C227.853 283.762 227.601 283.661 227.348 283.56C223.41 282.2 184.48 271.169 184.48 271.169L130.805 273.234L195.134 290.008C197.355 286.633 202.001 283.208 212.402 282.654Z" fill="url(#paint92_linear_551_17)"/>
<path d="M87.9872 347.531L85.0081 347.934C92.683 353.022 100.106 357.505 109.346 356.951C109.396 356.095 109.396 355.188 109.396 354.281C109.396 352.921 109.346 351.511 109.346 350.1L99.9036 345.819L87.9872 347.531Z" fill="url(#paint93_linear_551_17)"/>
<path d="M65.5681 317.561L61.7812 322.497V339.472L83.2408 346.927C83.2408 346.927 83.8972 347.28 84.9575 347.934V323.857L65.5681 317.561Z" fill="url(#paint94_linear_551_17)"/>
<path d="M112.325 324.159C113.032 322.648 113.941 321.238 115.001 320.029C109.598 320.18 98.8432 317.561 98.9442 317.561H65.5682L85.0081 323.857L109.295 324.109L112.325 324.159Z" fill="url(#paint95_linear_551_17)"/>
<path d="M109.346 357.001C109.396 356.145 109.396 355.238 109.396 354.331C108.538 354.482 103.236 354.936 94.2988 351.662C92.3801 350.956 89.8554 349.093 87.9872 347.531L85.0081 347.934C92.683 353.022 100.106 357.505 109.346 357.001Z" fill="url(#paint96_linear_551_17)"/>
<path d="M112.325 324.159L109.295 324.109L100.005 324.008L99.9036 345.819L109.346 350.101C109.144 341.588 108.891 331.463 112.325 324.159Z" fill="url(#paint97_linear_551_17)"/>
<path d="M96.672 323.957L85.0081 323.856V345.063V347.934L99.8531 345.818L100.005 324.008L96.672 323.957Z" fill="url(#paint98_linear_551_17)"/>
<path d="M96.672 323.957L85.0081 323.856V346.07L96.672 344.156V323.957Z" fill="url(#paint99_linear_551_17)"/>
<path d="M96.672 326.527L86.3209 326.375V346.071L96.672 344.358V326.527Z" fill="#191943"/>
<path d="M59.8624 268.348L83.8972 258.324" stroke="#3D3F6F" stroke-width="0.252687" stroke-miterlimit="10" stroke-linecap="round" stroke-linejoin="round"/>
<path d="M78.7974 247.193L73.5462 242.357L65.4167 246.538V252.884L78.7974 247.193Z" fill="url(#paint100_linear_551_17)"/>
<path d="M125.857 303.054L122.979 277.818L102.226 281.042V304.212C102.226 307.134 104.65 309.451 107.578 309.35L120.909 308.746C123.938 308.645 126.16 306.026 125.857 303.054Z" stroke="#191943" stroke-width="0.252687" stroke-miterlimit="10" stroke-linecap="round" stroke-linejoin="round"/>
<path d="M115.203 251.725L106.064 253.236C103.842 253.588 102.226 255.503 102.226 257.719V281.091L122.979 277.867L122.423 273.183L120.454 255.754C120.151 253.085 117.778 251.271 115.203 251.725Z" fill="#2F3974"/>
<path d="M114.042 254.295L105.71 255.655C103.69 256.008 102.226 257.72 102.226 259.735V281.042L121.111 278.07L120.606 273.789L118.788 257.871C118.586 255.554 116.364 253.942 114.042 254.295Z" fill="url(#paint101_linear_551_17)"/>
<path d="M122.423 273.133L122.979 277.818L102.226 281.092V275.45L122.423 273.133Z" fill="url(#paint102_linear_551_17)"/>
<path d="M122.929 272.328H102.428V273.486H122.929V272.328Z" stroke="#30FF29" stroke-width="0.185624" stroke-miterlimit="10" stroke-linecap="round" stroke-linejoin="round"/>
<path d="M122.929 271.32H102.428V273.486H122.929V271.32Z" fill="url(#paint103_linear_551_17)"/>
<path d="M104.243 279.581H100.91C98.4865 279.581 96.5677 277.617 96.5677 275.25V259.433C96.5677 257.015 98.537 255.101 100.91 255.101H104.243C106.666 255.101 108.585 257.066 108.585 259.433V275.25C108.585 277.667 106.616 279.581 104.243 279.581Z" fill="#575AA6"/>
<path d="M104.042 278.02H101.164C99.0933 278.02 97.3765 276.307 97.3765 274.242V260.44C97.3765 258.375 99.0933 256.663 101.164 256.663H104.042C106.112 256.663 107.829 258.375 107.829 260.44V274.242C107.829 276.307 106.112 278.02 104.042 278.02Z" fill="url(#paint104_linear_551_17)"/>
<path d="M124.797 276.206H124.544C123.383 276.206 122.424 275.249 122.424 274.091V271.522C122.424 270.363 123.383 269.406 124.544 269.406H124.797C125.958 269.406 126.917 270.363 126.917 271.522V274.091C126.917 275.249 125.958 276.206 124.797 276.206Z" fill="url(#paint105_linear_551_17)"/>
<path d="M124.14 276.206C123.231 276.206 122.474 275.451 122.474 274.544V271.119C122.474 270.212 123.231 269.457 124.14 269.457C125.049 269.457 125.807 270.212 125.807 271.119V274.544C125.807 275.451 125.049 276.206 124.14 276.206Z" fill="url(#paint106_linear_551_17)"/>
<path d="M181.298 255.554L180.844 253.337C180.844 253.337 164.484 243.414 122.423 248.3C122.423 248.3 122.575 249.963 122.827 252.38C123.383 257.417 124.443 265.578 125.907 267.794C128.079 271.118 130.805 273.234 130.805 273.234L184.479 271.169L181.298 255.554Z" fill="#B1C3E8"/>
<path d="M122.423 248.351C122.423 248.351 122.575 250.013 122.827 252.431C128.584 251.524 134.441 251.071 140.298 251.071C153.78 251.122 167.867 252.885 181.298 255.554L180.844 253.338C180.844 253.338 164.484 243.415 122.423 248.351Z" fill="url(#paint107_linear_551_17)"/>
<path d="M168.776 249.358C163.373 253.186 158.122 257.015 152.871 261.044C147.922 264.822 143.025 268.701 138.48 272.932L130.856 273.335L130.603 273.033C139.642 263.16 150.7 254.546 162.565 248.25L168.776 249.358Z" fill="url(#paint108_linear_551_17)"/>
<path d="M160.344 291.015C160.344 291.015 157.819 285.474 147.922 282.905V291.015H160.344Z" fill="#8598FA"/>
<path d="M141.459 291.015H147.923V282.905C146.054 282.401 143.883 282.049 141.409 281.797L141.459 291.015Z" fill="url(#paint109_linear_551_17)"/>
<path d="M74.657 291.922L68.0928 296.656V271.269L74.657 267.895V291.922Z" fill="url(#paint110_linear_551_17)"/>
<path d="M74.8083 296.254C74.7073 296.607 74.8083 314.841 74.8083 314.841L68.1432 312.373V301.392L74.8083 296.254Z" fill="url(#paint111_linear_551_17)"/>
<path d="M101.923 230.771H125.15C125.15 230.771 124.746 228.303 122.171 226.137C119.091 223.518 116.263 223.417 116.263 223.417H96.369C96.369 223.467 99.5501 224.525 101.923 230.771Z" fill="url(#paint112_linear_551_17)"/>
<path d="M164.434 272.026C165.04 272.026 206.646 283.258 206.646 283.258L212.352 282.654L171.654 271.623L164.434 272.026Z" fill="#B1C3E8"/>
<path d="M188.468 292.375C188.468 292.375 187.307 294.39 187.307 298.369C187.307 302.348 187.459 314.337 187.459 314.337C187.459 314.337 172.765 305.774 165.04 303.104C157.314 300.434 148.326 301.694 148.326 301.694C148.326 301.694 162.162 297.009 171.149 301.291C177.814 304.464 183.419 307.688 183.419 307.285C183.419 306.882 181.652 294.239 188.468 292.375Z" fill="url(#paint113_linear_551_17)"/>
<path d="M97.0253 292.173H85.9673V314.689H97.0253V292.173Z" fill="url(#paint114_linear_551_17)"/>
<path d="M63.3969 338.868C63.7504 338.969 83.0387 345.013 83.0387 345.013V326.124L80.6151 341.286L63.3969 338.868Z" fill="#4657B0"/>
<path d="M221.441 336.601L217.856 337.709V287.489L221.39 286.985L221.441 336.601Z" fill="url(#paint115_linear_551_17)"/>
<path d="M222.337 287.391V286.409C222.337 284.753 220.995 283.411 219.34 283.411C217.685 283.411 216.343 284.753 216.343 286.409V287.391C216.343 289.046 217.685 290.388 219.34 290.388C220.995 290.388 222.337 289.046 222.337 287.391Z" fill="#B1C3E8"/>
<path d="M156.456 356.447C156.456 341.234 151.103 328.894 144.539 328.894C144.236 328.894 143.883 328.944 143.58 328.994H128.079V384H144.489C151.103 384 156.456 371.659 156.456 356.447Z" fill="url(#paint116_linear_551_17)"/>
<path d="M126.766 384C133.347 384 138.682 371.664 138.682 356.447C138.682 341.23 133.347 328.894 126.766 328.894C120.185 328.894 114.849 341.23 114.849 356.447C114.849 371.664 120.185 384 126.766 384Z" fill="url(#paint117_linear_551_17)"/>
<path d="M127.523 374.934C132.32 374.934 136.208 367.198 136.208 357.656C136.208 348.114 132.32 340.379 127.523 340.379C122.727 340.379 118.839 348.114 118.839 357.656C118.839 367.198 122.727 374.934 127.523 374.934Z" fill="url(#paint118_linear_551_17)"/>
<path d="M126.16 367.831C128.977 367.831 131.26 363.276 131.26 357.656C131.26 352.037 128.977 347.481 126.16 347.481C123.344 347.481 121.06 352.037 121.06 357.656C121.06 363.276 123.344 367.831 126.16 367.831Z" fill="url(#paint119_linear_551_17)"/>
<path d="M125.922 364.145C127.301 364.145 128.42 361.468 128.42 358.165C128.42 354.862 127.301 352.185 125.922 352.185C124.542 352.185 123.424 354.862 123.424 358.165C123.424 361.468 124.542 364.145 125.922 364.145Z" fill="url(#paint120_linear_551_17)"/>
<path d="M245.728 331.514C245.728 331.514 245.728 330.708 245.677 329.499C245.526 327.383 245.172 323.908 244.061 320.734C244.011 320.634 243.96 320.483 243.91 320.382C242.193 315.949 237.548 313.481 236.689 313.078V331.615C236.689 331.615 232.902 333.831 219.37 337.155C205.838 340.48 199.173 336.501 194.73 329.398C190.286 322.296 169.635 303.054 150.599 303.054C141.257 303.054 131.209 307.688 123.383 312.474C114.698 317.763 109.346 327.182 109.346 337.307V357.052C109.75 357.052 110.002 357.052 110.154 357.052C110.255 357.052 110.305 357.052 110.305 357.052H111.719C112.88 344.409 106.619 315.949 127.17 319.878C133.431 321.087 138.379 333.68 141.712 345.114C146.509 345.819 154.184 346.726 162.969 346.726C177.562 346.726 232.549 337.004 237.396 335.594C240.628 334.637 243.961 332.824 245.829 331.665C245.778 331.514 245.728 331.514 245.728 331.514Z" fill="url(#paint121_linear_551_17)"/>
<path d="M153.275 370.752C153.275 370.752 159.586 370.853 170.947 370.097C182.308 369.342 200.738 364.708 200.738 364.708C200.738 364.708 233.104 356.749 240.173 355.137C247.293 353.525 247.848 349.042 247.848 349.042C247.848 349.042 248.151 335.341 247.394 333.78C247.394 333.78 237.497 338.565 228.661 340.53C219.825 342.494 177.966 349.395 161.707 349.596C153.982 349.697 147.468 348.992 142.621 348.236C143.58 351.712 144.388 354.986 145.044 357.605C147.922 369.392 148.074 367.277 153.275 370.752Z" fill="url(#paint122_linear_551_17)"/>
<path d="M169.534 355.238L169.786 363.599C169.837 364.556 170.644 365.262 171.553 365.161L189.125 363.448C190.539 363.297 191.094 361.534 189.983 360.628C187.055 358.26 182.611 354.936 179.885 354.381C176.956 353.777 173.27 353.676 171.2 353.626C170.24 353.576 169.483 354.331 169.534 355.238Z" fill="#191943"/>
<path d="M195.235 355.339V359.671C195.235 359.923 195.437 360.074 195.689 360.074L202.96 359.066C203.364 359.016 203.414 358.462 203.061 358.311L195.79 354.986C195.538 354.885 195.235 355.037 195.235 355.339Z" fill="#191943"/>
<path d="M204.576 347.18L204.98 351.058L218.512 349.396L218.108 347.583L204.576 347.18Z" fill="#191943"/>
<path d="M233.66 342.394L233.912 346.222L223.309 348.64L223.056 346.776L233.66 342.394Z" fill="#191943"/>
<path d="M152.366 307.522C159.385 308.126 166.302 310.695 171.503 315.38C165.949 311.501 158.981 310.242 152.215 310.041C145.852 309.839 138.935 311.149 132.623 310.091C138.48 307.572 146.054 306.968 152.366 307.522Z" fill="url(#paint123_linear_551_17)"/>
<path d="M239.972 327.433C238.962 328.692 239.265 332.672 239.265 332.672C239.265 332.672 241.537 332.168 243.304 331.312C244.011 330.959 244.869 330.203 245.677 329.397C245.526 327.282 245.172 323.806 244.062 320.633C244.011 320.532 243.96 320.381 243.91 320.28C243.86 321.036 243.86 321.993 243.708 322.9C243.405 324.965 240.981 326.174 239.972 327.433Z" fill="#B1C3E8"/>
<path d="M161.707 349.546C177.966 349.294 219.825 342.444 228.661 340.479C237.497 338.515 247.394 333.729 247.394 333.729C246.738 332.47 246.031 331.765 245.829 331.563C243.961 332.672 240.628 334.535 237.396 335.492C232.549 336.953 177.562 346.624 162.97 346.624C154.184 346.624 146.509 345.718 141.712 345.013C142.015 346.07 142.318 347.179 142.621 348.186C147.468 348.942 153.982 349.647 161.707 349.546Z" fill="#8598FA"/>
<path d="M162.515 337.306C161.202 335.09 160.849 332.521 161.051 330.053C161.051 329.7 161.303 328.995 161.505 328.239C158.173 327.937 155.143 327.837 153.073 327.887L157.87 338.717C158.576 340.278 160.142 341.286 161.858 341.286H167.11C165.141 340.48 163.525 339.019 162.515 337.306Z" fill="white"/>
<path d="M183.672 341.285H188.469C188.469 341.285 189.832 336.198 185.086 333.075C184.833 332.924 184.53 332.773 184.227 332.622C184.783 333.679 185.237 334.788 185.389 335.946C185.641 337.86 184.934 339.825 183.672 341.285Z" fill="white"/>
<path d="M161.051 330.053C160.899 332.521 161.253 335.09 162.515 337.306C163.525 339.019 165.141 340.479 167.11 341.285H183.672C184.934 339.825 185.59 337.86 185.388 335.946C185.237 334.788 184.833 333.679 184.227 332.622C180.036 330.607 169.685 328.944 161.455 328.239C161.253 328.995 161.051 329.7 161.051 330.053Z" fill="#B1C3E8"/>
<path d="M158.021 330.002L180.289 333.125" stroke="white" stroke-miterlimit="10" stroke-linecap="round" stroke-linejoin="round"/>
<path d="M293.848 231.375C293.848 231.375 294.757 230.62 295.06 230.62C295.312 230.62 309.198 232.886 309.198 232.886C309.198 232.886 308.188 234.196 308.087 235.354C308.036 236.513 308.39 241.097 308.39 241.097L293.747 236.11L293.848 231.375Z" fill="url(#paint124_linear_551_17)"/>
<path d="M308.39 241.047C308.087 241.047 293.747 236.06 293.747 236.06L293.898 231.325L308.087 235.305L308.39 241.047Z" fill="url(#paint125_linear_551_17)"/>
<path d="M322.174 221.201C322.124 221.251 317.478 221.1 317.478 221.201V229.26C317.478 229.864 318.539 230.418 319.852 230.418C321.164 230.418 322.225 229.915 322.225 229.26C322.174 229.26 322.225 221.15 322.174 221.201Z" fill="url(#paint126_linear_551_17)"/>
<path d="M319.852 222.36C321.162 222.36 322.225 221.841 322.225 221.201C322.225 220.561 321.162 220.042 319.852 220.042C318.541 220.042 317.478 220.561 317.478 221.201C317.478 221.841 318.541 222.36 319.852 222.36Z" fill="url(#paint127_linear_551_17)"/>
<path d="M319.852 221.1C320.967 221.1 321.871 220.492 321.871 219.74C321.871 218.989 320.967 218.38 319.852 218.38C318.736 218.38 317.832 218.989 317.832 219.74C317.832 220.492 318.736 221.1 319.852 221.1Z" fill="url(#paint128_linear_551_17)"/>
<path d="M313.489 218.229C316.014 218.431 318.084 216.567 318.084 216.567L305.31 215.409C306.622 216.97 310.914 218.028 313.489 218.229Z" fill="url(#paint129_linear_551_17)"/>
<path d="M307.279 217.726C309.299 218.632 318.084 219.539 318.084 219.539V216.567C318.084 216.567 316.014 218.431 313.49 218.229C310.965 218.028 306.673 216.97 305.36 215.409C305.31 215.409 305.259 216.819 307.279 217.726Z" fill="url(#paint130_linear_551_17)"/>
<path d="M326.769 218.581C330.455 218.732 334.747 217.17 334.747 217.17L321.619 216.667C321.619 216.616 323.083 218.379 326.769 218.581Z" fill="url(#paint131_linear_551_17)"/>
<path d="M332.273 219.135C333.535 218.833 334.747 217.12 334.747 217.12C334.747 217.12 330.455 218.732 326.769 218.531C323.083 218.38 321.619 216.566 321.619 216.566L321.669 219.135C321.669 219.186 331.011 219.438 332.273 219.135Z" fill="url(#paint132_linear_551_17)"/>
<path d="M320.71 215.206C320.306 214.854 319.7 214.854 319.246 215.206C318.589 215.76 317.68 216.768 317.276 217.876C316.57 219.891 318.791 220.143 319.801 220.193C320.407 220.243 321.215 219.941 321.821 219.74C322.225 219.589 322.528 219.186 322.528 218.732C322.528 218.128 322.629 218.178 322.376 217.372C322.124 216.617 321.316 215.76 320.71 215.206Z" fill="url(#paint133_linear_551_17)"/>
<path d="M295.009 228.957C294.959 229.007 290.313 228.856 290.313 228.957V237.016C290.313 237.621 291.374 238.175 292.686 238.175C293.999 238.175 295.06 237.671 295.06 237.016C295.009 237.067 295.06 228.957 295.009 228.957Z" fill="url(#paint134_linear_551_17)"/>
<path d="M292.636 230.115C293.946 230.115 295.009 229.597 295.009 228.957C295.009 228.317 293.946 227.798 292.636 227.798C291.325 227.798 290.263 228.317 290.263 228.957C290.263 229.597 291.325 230.115 292.636 230.115Z" fill="url(#paint135_linear_551_17)"/>
<path d="M286.274 225.985C288.798 226.186 290.869 224.323 290.869 224.323L278.094 223.164C279.457 224.726 283.749 225.783 286.274 225.985Z" fill="url(#paint136_linear_551_17)"/>
<path d="M280.113 225.532C282.133 226.439 290.919 227.345 290.919 227.345V224.373C290.919 224.373 288.849 226.237 286.324 226.036C283.799 225.834 279.508 224.776 278.195 223.215C278.144 223.215 278.094 224.625 280.113 225.532Z" fill="url(#paint137_linear_551_17)"/>
<path d="M299.604 226.337C303.29 226.488 307.582 224.927 307.582 224.927L294.453 224.423C294.453 224.423 295.867 226.186 299.604 226.337Z" fill="url(#paint138_linear_551_17)"/>
<path d="M292.686 228.856C293.802 228.856 294.706 228.247 294.706 227.496C294.706 226.745 293.802 226.136 292.686 226.136C291.571 226.136 290.667 226.745 290.667 227.496C290.667 228.247 291.571 228.856 292.686 228.856Z" fill="url(#paint139_linear_551_17)"/>
<path d="M305.108 226.941C306.37 226.639 307.582 224.927 307.582 224.927C307.582 224.927 303.29 226.539 299.604 226.337C295.918 226.186 294.453 224.373 294.453 224.373L294.504 226.941C294.504 226.992 303.845 227.193 305.108 226.941Z" fill="url(#paint140_linear_551_17)"/>
<path d="M293.494 222.963C293.09 222.61 292.484 222.61 292.03 222.963C291.373 223.517 290.464 224.524 290.061 225.632C289.354 227.647 291.575 227.899 292.585 227.949C293.191 228 293.999 227.698 294.605 227.496C295.009 227.345 295.312 226.942 295.312 226.489C295.312 225.884 295.413 225.935 295.16 225.129C294.958 224.373 294.15 223.517 293.494 222.963Z" fill="url(#paint141_linear_551_17)"/>
<path d="M364.084 239.333C364.033 239.384 359.489 238.276 359.489 238.326L357.772 246.184C357.621 246.788 358.58 247.493 359.842 247.796C361.105 248.048 362.266 247.796 362.367 247.191C362.316 247.191 364.084 239.283 364.084 239.333Z" fill="url(#paint142_linear_551_17)"/>
<path d="M356.156 234.548C358.58 235.254 361.004 233.894 361.004 233.894L348.784 230.065C349.794 231.879 353.733 233.843 356.156 234.548Z" fill="url(#paint143_linear_551_17)"/>
<path d="M350.248 232.784C352.015 234.094 360.397 236.864 360.397 236.864L361.053 233.943C361.053 233.943 358.63 235.303 356.206 234.598C353.782 233.893 349.793 231.928 348.834 230.115C348.834 230.115 348.481 231.475 350.248 232.784Z" fill="url(#paint144_linear_551_17)"/>
<path d="M364.06 239.349C364.197 238.724 363.27 237.992 361.989 237.713C360.708 237.435 359.56 237.716 359.423 238.341C359.286 238.966 360.214 239.698 361.494 239.977C362.775 240.255 363.924 239.974 364.06 239.349Z" fill="url(#paint145_linear_551_17)"/>
<path d="M369.083 237.721C372.668 238.678 377.212 238.024 377.212 238.024L364.488 234.75C364.488 234.75 365.497 236.764 369.083 237.721Z" fill="url(#paint146_linear_551_17)"/>
<path d="M364.052 237.879C364.213 237.145 363.459 236.358 362.369 236.121C361.28 235.884 360.266 236.287 360.106 237.02C359.945 237.754 360.699 238.541 361.789 238.778C362.878 239.015 363.892 238.613 364.052 237.879Z" fill="url(#paint147_linear_551_17)"/>
<path d="M374.384 239.434C375.697 239.434 377.212 238.024 377.212 238.024C377.212 238.024 372.668 238.678 369.083 237.721C365.498 236.764 364.488 234.75 364.488 234.75L363.983 237.268C363.983 237.268 373.072 239.484 374.384 239.434Z" fill="url(#paint148_linear_551_17)"/>
<path d="M363.882 233.139C363.579 232.685 362.973 232.534 362.468 232.836C361.711 233.239 360.6 233.995 359.994 235.053C358.883 236.866 361.004 237.571 361.963 237.874C362.518 238.025 363.427 237.974 364.033 237.874C364.488 237.823 364.841 237.471 364.942 237.068C365.043 236.463 365.144 236.514 365.094 235.708C364.993 234.801 364.336 233.794 363.882 233.139Z" fill="url(#paint149_linear_551_17)"/>
<path d="M315.408 231.779C316.822 231.93 318.135 232.534 319.195 233.24C320.256 233.995 321.164 234.902 322.023 235.808C322.427 236.262 322.831 236.715 322.932 237.219" stroke="#30FF29" stroke-width="0.569101" stroke-miterlimit="10" stroke-linecap="round" stroke-linejoin="round"/>
<path d="M318.589 230.569C319.7 230.72 320.761 231.174 321.619 231.728C322.477 232.332 323.184 233.038 323.841 233.743C324.144 234.095 324.497 234.448 324.547 234.851" stroke="#30FF29" stroke-width="0.569101" stroke-miterlimit="10" stroke-linecap="round" stroke-linejoin="round"/>
<path d="M306.32 240.593C306.269 242.507 307.127 244.371 308.592 245.63C311.369 247.947 315.964 251.423 318.69 251.927C322.831 252.733 345.098 241.399 347.017 238.377C347.825 237.118 347.825 235.607 347.623 234.297C343.23 237.571 324.952 245.782 320.256 245.479C317.832 245.328 317.176 241.5 313.54 238.73C310.51 236.412 306.976 236.11 306.976 236.11L306.774 235.909C306.522 236.564 306.37 237.218 306.37 237.924L306.32 240.593Z" fill="url(#paint150_linear_551_17)"/>
<path d="M325.002 250.668L337.777 263.613L338.888 258.777L327.375 245.278L325.002 250.668Z" fill="url(#paint151_linear_551_17)"/>
<path d="M347.118 232.433C346.714 231.425 346.058 230.519 345.199 229.813C344.947 229.612 344.694 229.41 344.341 229.159C342.574 227.899 339.595 226.338 335.555 225.885C334.747 225.784 333.939 225.733 333.03 225.733C329.9 225.784 326.87 226.036 323.841 226.64C318.842 227.647 313.944 229.612 309.147 232.785C308.794 233.037 308.44 233.339 308.137 233.642C307.531 234.246 307.127 235.002 306.824 235.757L307.026 235.959C307.026 235.959 310.561 236.261 313.591 238.578C317.226 241.348 317.882 245.177 320.306 245.328C324.952 245.63 343.23 237.42 347.673 234.145C347.522 233.591 347.32 232.987 347.118 232.433Z" fill="url(#paint152_linear_551_17)"/>
<path d="M342.624 239.737L358.075 245.026L358.883 241.047L347.421 235.758L342.624 239.737Z" fill="url(#paint153_linear_551_17)"/>
<path d="M346.058 236.715L358.58 241.903L358.075 245.026L342.624 239.737L346.058 236.715Z" fill="url(#paint154_linear_551_17)"/>
<path d="M312.985 236.009C316.57 236.966 322.326 243.716 322.326 243.716L336.615 238.226L337.373 231.224L344.341 229.159C342.574 227.9 339.594 226.338 335.555 225.885L328.789 227.698C328.789 227.698 326.113 227.144 323.891 226.691C318.892 227.698 313.994 229.663 309.198 232.836C308.844 233.088 308.491 233.39 308.188 233.692C308.592 234.901 310.106 235.254 312.985 236.009Z" fill="url(#paint155_linear_551_17)"/>
<path d="M330.304 244.672L327.375 245.277L338.888 258.776L340.049 258.071L330.304 244.672Z" fill="url(#paint156_linear_551_17)"/>
<path d="M342.548 255.054C342.498 255.104 337.953 253.996 337.953 254.046L336.237 261.904C336.085 262.508 337.044 263.214 338.307 263.516C339.569 263.768 340.73 263.516 340.831 262.911C340.781 262.911 342.548 255.003 342.548 255.054Z" fill="url(#paint157_linear_551_17)"/>
<path d="M334.621 250.269C337.045 250.974 339.468 249.614 339.468 249.614L327.249 245.786C328.259 247.599 332.197 249.563 334.621 250.269Z" fill="url(#paint158_linear_551_17)"/>
<path d="M328.712 248.505C330.48 249.814 338.862 252.585 338.862 252.585L339.518 249.663C339.518 249.663 337.094 251.023 334.671 250.318C332.247 249.613 328.258 247.648 327.299 245.835C327.299 245.835 326.945 247.195 328.712 248.505Z" fill="url(#paint159_linear_551_17)"/>
<path d="M342.525 255.069C342.661 254.444 341.734 253.712 340.454 253.433C339.173 253.155 338.024 253.436 337.888 254.061C337.751 254.686 338.678 255.419 339.959 255.697C341.239 255.976 342.388 255.695 342.525 255.069Z" fill="url(#paint160_linear_551_17)"/>
<path d="M347.547 253.442C351.132 254.399 355.676 253.744 355.676 253.744L342.952 250.47C342.952 250.47 343.962 252.485 347.547 253.442Z" fill="url(#paint161_linear_551_17)"/>
<path d="M352.849 255.154C354.162 255.154 355.677 253.744 355.677 253.744C355.677 253.744 351.132 254.399 347.547 253.442C343.962 252.485 342.952 250.47 342.952 250.47L342.447 252.988C342.447 252.988 351.536 255.205 352.849 255.154Z" fill="url(#paint162_linear_551_17)"/>
<path d="M342.346 248.859C342.043 248.406 341.438 248.254 340.933 248.557C340.175 248.96 339.064 249.715 338.458 250.773C337.348 252.586 339.468 253.292 340.428 253.594C340.983 253.745 341.892 253.695 342.498 253.594C342.952 253.543 343.306 253.191 343.407 252.788C343.508 252.183 343.609 252.234 343.558 251.428C343.457 250.521 342.801 249.514 342.346 248.859Z" fill="url(#paint163_linear_551_17)"/>
<defs>
<linearGradient id="paint0_linear_551_17" x1="4.13839" y1="7.38754" x2="477.176" y2="481.073" gradientUnits="userSpaceOnUse">
<stop stop-color="#171932"/>
<stop offset="1" stop-color="#131645" stop-opacity="0"/>
</linearGradient>
<linearGradient id="paint1_linear_551_17" x1="396.413" y1="145.817" x2="415.383" y2="588.62" gradientUnits="userSpaceOnUse">
<stop stop-color="#735AFF" stop-opacity="0.2"/>
<stop offset="1" stop-color="#8598FA"/>
</linearGradient>
<linearGradient id="paint2_linear_551_17" x1="290.577" y1="347.322" x2="296.092" y2="370.943" gradientUnits="userSpaceOnUse">
<stop stop-color="#575AA6"/>
<stop offset="1" stop-color="#191943"/>
</linearGradient>
<linearGradient id="paint3_linear_551_17" x1="343.538" y1="348.919" x2="334.077" y2="368.296" gradientUnits="userSpaceOnUse">
<stop stop-color="#735AFF" stop-opacity="0.2"/>
<stop offset="1" stop-color="#8598FA"/>
</linearGradient>
<linearGradient id="paint4_linear_551_17" x1="344.178" y1="339.307" x2="346.015" y2="399.804" gradientUnits="userSpaceOnUse">
<stop stop-color="#735AFF" stop-opacity="0.2"/>
<stop offset="1" stop-color="#8598FA"/>
</linearGradient>
<linearGradient id="paint5_linear_551_17" x1="272.639" y1="314.454" x2="282.683" y2="323.215" gradientUnits="userSpaceOnUse">
<stop stop-color="#F1F6FF"/>
<stop offset="1" stop-color="#B1C3E8"/>
</linearGradient>
<linearGradient id="paint6_linear_551_17" x1="270.421" y1="321.967" x2="277.465" y2="333.52" gradientUnits="userSpaceOnUse">
<stop stop-color="#F1F6FF"/>
<stop offset="1" stop-color="#B1C3E8"/>
</linearGradient>
<linearGradient id="paint7_linear_551_17" x1="293.89" y1="340.834" x2="300.961" y2="367.739" gradientUnits="userSpaceOnUse">
<stop stop-color="#F1F6FF"/>
<stop offset="1" stop-color="#B1C3E8"/>
</linearGradient>
<linearGradient id="paint8_linear_551_17" x1="290.278" y1="360.158" x2="288.178" y2="369.157" gradientUnits="userSpaceOnUse">
<stop stop-color="#F1F6FF"/>
<stop offset="1" stop-color="#B1C3E8"/>
</linearGradient>
<linearGradient id="paint9_linear_551_17" x1="356.778" y1="204.253" x2="367.288" y2="532.707" gradientUnits="userSpaceOnUse">
<stop stop-color="#735AFF" stop-opacity="0.2"/>
<stop offset="1" stop-color="#8598FA"/>
</linearGradient>
<linearGradient id="paint10_linear_551_17" x1="341.835" y1="328.567" x2="343.981" y2="343.376" gradientUnits="userSpaceOnUse">
<stop stop-color="#F1F6FF"/>
<stop offset="1" stop-color="#B1C3E8"/>
</linearGradient>
<linearGradient id="paint11_linear_551_17" x1="351.724" y1="340.722" x2="341.355" y2="356.016" gradientUnits="userSpaceOnUse">
<stop stop-color="#F1F6FF"/>
<stop offset="1" stop-color="#B1C3E8"/>
</linearGradient>
<linearGradient id="paint12_linear_551_17" x1="368.951" y1="261.82" x2="372.696" y2="409.75" gradientUnits="userSpaceOnUse">
<stop stop-color="#735AFF" stop-opacity="0.2"/>
<stop offset="1" stop-color="#8598FA"/>
</linearGradient>
<linearGradient id="paint13_linear_551_17" x1="297.798" y1="255.406" x2="304.759" y2="401.171" gradientUnits="userSpaceOnUse">
<stop stop-color="#735AFF" stop-opacity="0.2"/>
<stop offset="1" stop-color="#8598FA"/>
</linearGradient>
<linearGradient id="paint14_linear_551_17" x1="319.528" y1="276.328" x2="321.317" y2="318.728" gradientUnits="userSpaceOnUse">
<stop stop-color="#735AFF" stop-opacity="0.2"/>
<stop offset="1" stop-color="#8598FA"/>
</linearGradient>
<linearGradient id="paint15_linear_551_17" x1="319.62" y1="278.659" x2="320.781" y2="312.668" gradientUnits="userSpaceOnUse">
<stop stop-color="#735AFF" stop-opacity="0.2"/>
<stop offset="1" stop-color="#8598FA"/>
</linearGradient>
<linearGradient id="paint16_linear_551_17" x1="339.668" y1="225.372" x2="350.774" y2="544.696" gradientUnits="userSpaceOnUse">
<stop stop-color="#735AFF" stop-opacity="0.2"/>
<stop offset="1" stop-color="#8598FA"/>
</linearGradient>
<linearGradient id="paint17_linear_551_17" x1="374.466" y1="353.152" x2="387.06" y2="372.663" gradientUnits="userSpaceOnUse">
<stop stop-color="#3D3F6F"/>
<stop offset="1" stop-color="#191943"/>
</linearGradient>
<linearGradient id="paint18_linear_551_17" x1="292.716" y1="331.4" x2="293.962" y2="338.943" gradientUnits="userSpaceOnUse">
<stop stop-color="#F1F6FF"/>
<stop offset="1" stop-color="#B1C3E8"/>
</linearGradient>
<linearGradient id="paint19_linear_551_17" x1="339.735" y1="331.253" x2="348.103" y2="347.999" gradientUnits="userSpaceOnUse">
<stop stop-color="#F1F6FF"/>
<stop offset="1" stop-color="#B1C3E8"/>
</linearGradient>
<linearGradient id="paint20_linear_551_17" x1="338.025" y1="332.813" x2="340.391" y2="337.121" gradientUnits="userSpaceOnUse">
<stop stop-color="#F1F6FF"/>
<stop offset="1" stop-color="#B1C3E8"/>
</linearGradient>
<linearGradient id="paint21_linear_551_17" x1="351.368" y1="331.246" x2="359.737" y2="347.992" gradientUnits="userSpaceOnUse">
<stop stop-color="#F1F6FF"/>
<stop offset="1" stop-color="#B1C3E8"/>
</linearGradient>
<linearGradient id="paint22_linear_551_17" x1="349.659" y1="332.806" x2="352.025" y2="337.113" gradientUnits="userSpaceOnUse">
<stop stop-color="#F1F6FF"/>
<stop offset="1" stop-color="#B1C3E8"/>
</linearGradient>
<linearGradient id="paint23_linear_551_17" x1="431.994" y1="321.826" x2="440.809" y2="334.279" gradientUnits="userSpaceOnUse">
<stop stop-color="#3D3F6F"/>
<stop offset="1" stop-color="#191943"/>
</linearGradient>
<linearGradient id="paint24_linear_551_17" x1="423.422" y1="277.627" x2="434.615" y2="291.444" gradientUnits="userSpaceOnUse">
<stop stop-color="#F1F6FF"/>
<stop offset="1" stop-color="#B1C3E8"/>
</linearGradient>
<linearGradient id="paint25_linear_551_17" x1="405.791" y1="275.934" x2="422.776" y2="300.535" gradientUnits="userSpaceOnUse">
<stop stop-color="#F1F6FF"/>
<stop offset="1" stop-color="#B1C3E8"/>
</linearGradient>
<linearGradient id="paint26_linear_551_17" x1="417.116" y1="281.763" x2="425.188" y2="287.412" gradientUnits="userSpaceOnUse">
<stop stop-color="#575AA6"/>
<stop offset="1" stop-color="#191943"/>
</linearGradient>
<linearGradient id="paint27_linear_551_17" x1="409.263" y1="282.218" x2="410.747" y2="324.667" gradientUnits="userSpaceOnUse">
<stop stop-color="#735AFF"/>
<stop offset="1" stop-color="#8598FA"/>
</linearGradient>
<linearGradient id="paint28_linear_551_17" x1="401.68" y1="326.27" x2="407.291" y2="283.231" gradientUnits="userSpaceOnUse">
<stop stop-color="#735AFF"/>
<stop offset="1" stop-color="#8598FA"/>
</linearGradient>
<linearGradient id="paint29_linear_551_17" x1="354.895" y1="274.034" x2="361.51" y2="305.98" gradientUnits="userSpaceOnUse">
<stop stop-color="#F1F6FF"/>
<stop offset="1" stop-color="#B1C3E8"/>
</linearGradient>
<linearGradient id="paint30_linear_551_17" x1="385.7" y1="336.474" x2="421.857" y2="275.53" gradientUnits="userSpaceOnUse">
<stop offset="0.171022" stop-color="#575AA6"/>
<stop offset="1" stop-color="#191943"/>
</linearGradient>
<linearGradient id="paint31_linear_551_17" x1="371.585" y1="353.469" x2="392.441" y2="352.735" gradientUnits="userSpaceOnUse">
<stop stop-color="#F1F6FF"/>
<stop offset="1" stop-color="#B1C3E8"/>
</linearGradient>
<linearGradient id="paint32_linear_551_17" x1="373.108" y1="349.673" x2="393.225" y2="353.054" gradientUnits="userSpaceOnUse">
<stop stop-color="#BDB1FF"/>
<stop offset="1" stop-color="#8598FA"/>
</linearGradient>
<linearGradient id="paint33_linear_551_17" x1="432.11" y1="322.243" x2="442.755" y2="321.481" gradientUnits="userSpaceOnUse">
<stop stop-color="#F1F6FF"/>
<stop offset="1" stop-color="#B1C3E8"/>
</linearGradient>
<linearGradient id="paint34_linear_551_17" x1="432.72" y1="319.678" x2="443.159" y2="320.581" gradientUnits="userSpaceOnUse">
<stop stop-color="#BDB1FF"/>
<stop offset="1" stop-color="#8598FA"/>
</linearGradient>
<linearGradient id="paint35_linear_551_17" x1="422.25" y1="306.483" x2="423.958" y2="328.914" gradientUnits="userSpaceOnUse">
<stop stop-color="#735AFF" stop-opacity="0.2"/>
<stop offset="1" stop-color="#8598FA"/>
</linearGradient>
<linearGradient id="paint36_linear_551_17" x1="393.454" y1="275.227" x2="384.977" y2="298.686" gradientUnits="userSpaceOnUse">
<stop stop-color="white"/>
<stop offset="1" stop-color="white" stop-opacity="0"/>
</linearGradient>
<linearGradient id="paint37_linear_551_17" x1="396.829" y1="299.363" x2="400.056" y2="302.109" gradientUnits="userSpaceOnUse">
<stop stop-color="#575AA6"/>
<stop offset="1" stop-color="#191943"/>
</linearGradient>
<linearGradient id="paint38_linear_551_17" x1="200.739" y1="137.916" x2="200.454" y2="172.305" gradientUnits="userSpaceOnUse">
<stop stop-color="#F1F6FF"/>
<stop offset="1" stop-color="#8FA0F9"/>
</linearGradient>
<linearGradient id="paint39_linear_551_17" x1="299.869" y1="137.916" x2="300.155" y2="172.305" gradientUnits="userSpaceOnUse">
<stop stop-color="#F1F6FF"/>
<stop offset="1" stop-color="#8FA0F9"/>
</linearGradient>
<linearGradient id="paint40_linear_551_17" x1="163.322" y1="160.729" x2="184.42" y2="161.794" gradientUnits="userSpaceOnUse">
<stop stop-color="#F1F6FF"/>
<stop offset="1" stop-color="#8FA0F9"/>
</linearGradient>
<linearGradient id="paint41_linear_551_17" x1="151.774" y1="160.335" x2="181.748" y2="162.467" gradientUnits="userSpaceOnUse">
<stop stop-color="#F1F6FF"/>
<stop offset="1" stop-color="#8FA0F9"/>
</linearGradient>
<linearGradient id="paint42_linear_551_17" x1="163.885" y1="142.133" x2="170.885" y2="244.004" gradientUnits="userSpaceOnUse">
<stop stop-color="#735AFF" stop-opacity="0.2"/>
<stop offset="1" stop-color="#8598FA"/>
</linearGradient>
<linearGradient id="paint43_linear_551_17" x1="161.391" y1="179.753" x2="165.868" y2="180.696" gradientUnits="userSpaceOnUse">
<stop stop-color="#F1F6FF"/>
<stop offset="1" stop-color="#8FA0F9"/>
</linearGradient>
<linearGradient id="paint44_linear_551_17" x1="190.954" y1="138.364" x2="191.801" y2="208.945" gradientUnits="userSpaceOnUse">
<stop stop-color="#735AFF" stop-opacity="0.2"/>
<stop offset="1" stop-color="#8598FA"/>
</linearGradient>
<linearGradient id="paint45_linear_551_17" x1="64.4755" y1="139.885" x2="296.067" y2="224.174" gradientUnits="userSpaceOnUse">
<stop stop-color="#F1F6FF"/>
<stop offset="1" stop-color="#8FA0F9"/>
</linearGradient>
<linearGradient id="paint46_linear_551_17" x1="203.354" y1="109.485" x2="203.723" y2="192.709" gradientUnits="userSpaceOnUse">
<stop stop-color="white"/>
<stop offset="1" stop-color="#8598FA"/>
</linearGradient>
<linearGradient id="paint47_linear_551_17" x1="77.7188" y1="145.119" x2="80.466" y2="185.1" gradientUnits="userSpaceOnUse">
<stop stop-color="#F1F6FF"/>
<stop offset="1" stop-color="#8598FA"/>
</linearGradient>
<linearGradient id="paint48_linear_551_17" x1="134.473" y1="150.912" x2="137.22" y2="190.893" gradientUnits="userSpaceOnUse">
<stop stop-color="#F1F6FF"/>
<stop offset="1" stop-color="#8598FA"/>
</linearGradient>
<linearGradient id="paint49_linear_551_17" x1="196.681" y1="161.792" x2="199.428" y2="201.774" gradientUnits="userSpaceOnUse">
<stop stop-color="#F1F6FF"/>
<stop offset="1" stop-color="#8598FA"/>
</linearGradient>
<linearGradient id="paint50_linear_551_17" x1="336.008" y1="160.729" x2="314.911" y2="161.794" gradientUnits="userSpaceOnUse">
<stop stop-color="#F1F6FF"/>
<stop offset="1" stop-color="#8FA0F9"/>
</linearGradient>
<linearGradient id="paint51_linear_551_17" x1="347.556" y1="160.335" x2="317.582" y2="162.467" gradientUnits="userSpaceOnUse">
<stop stop-color="#F1F6FF"/>
<stop offset="1" stop-color="#8FA0F9"/>
</linearGradient>
<linearGradient id="paint52_linear_551_17" x1="335.445" y1="142.133" x2="328.445" y2="244.004" gradientUnits="userSpaceOnUse">
<stop stop-color="#735AFF" stop-opacity="0.2"/>
<stop offset="1" stop-color="#8598FA"/>
</linearGradient>
<linearGradient id="paint53_linear_551_17" x1="337.94" y1="179.753" x2="333.462" y2="180.696" gradientUnits="userSpaceOnUse">
<stop stop-color="#F1F6FF"/>
<stop offset="1" stop-color="#8FA0F9"/>
</linearGradient>
<linearGradient id="paint54_linear_551_17" x1="308.376" y1="138.364" x2="307.529" y2="208.945" gradientUnits="userSpaceOnUse">
<stop stop-color="#735AFF" stop-opacity="0.2"/>
<stop offset="1" stop-color="#8598FA"/>
</linearGradient>
<linearGradient id="paint55_linear_551_17" x1="434.855" y1="139.885" x2="203.263" y2="224.174" gradientUnits="userSpaceOnUse">
<stop stop-color="#F1F6FF"/>
<stop offset="1" stop-color="#8FA0F9"/>
</linearGradient>
<linearGradient id="paint56_linear_551_17" x1="295.976" y1="109.485" x2="295.607" y2="192.709" gradientUnits="userSpaceOnUse">
<stop stop-color="white"/>
<stop offset="1" stop-color="#8598FA"/>
</linearGradient>
<linearGradient id="paint57_linear_551_17" x1="421.612" y1="145.119" x2="418.864" y2="185.1" gradientUnits="userSpaceOnUse">
<stop stop-color="#F1F6FF"/>
<stop offset="1" stop-color="#8598FA"/>
</linearGradient>
<linearGradient id="paint58_linear_551_17" x1="364.857" y1="150.912" x2="362.11" y2="190.893" gradientUnits="userSpaceOnUse">
<stop stop-color="#F1F6FF"/>
<stop offset="1" stop-color="#8598FA"/>
</linearGradient>
<linearGradient id="paint59_linear_551_17" x1="302.65" y1="161.792" x2="299.902" y2="201.774" gradientUnits="userSpaceOnUse">
<stop stop-color="#F1F6FF"/>
<stop offset="1" stop-color="#8598FA"/>
</linearGradient>
<linearGradient id="paint60_linear_551_17" x1="246.816" y1="135.898" x2="281.223" y2="186.867" gradientUnits="userSpaceOnUse">
<stop stop-color="#F1F6FF"/>
<stop offset="1" stop-color="#B1C3E8"/>
</linearGradient>
<linearGradient id="paint61_linear_551_17" x1="255.942" y1="136.39" x2="258.372" y2="205.083" gradientUnits="userSpaceOnUse">
<stop stop-color="#F1F6FF"/>
<stop offset="1" stop-color="#8FA0F9"/>
</linearGradient>
<linearGradient id="paint62_linear_551_17" x1="255.309" y1="135.898" x2="255.82" y2="172.278" gradientUnits="userSpaceOnUse">
<stop stop-color="#735AFF" stop-opacity="0.2"/>
<stop offset="1" stop-color="#8598FA"/>
</linearGradient>
<linearGradient id="paint63_linear_551_17" x1="34.7313" y1="314.933" x2="42.4369" y2="326.95" gradientUnits="userSpaceOnUse">
<stop stop-color="#575AA6"/>
<stop offset="1" stop-color="#191943"/>
</linearGradient>
<linearGradient id="paint64_linear_551_17" x1="44.0177" y1="327.605" x2="51.7468" y2="334.928" gradientUnits="userSpaceOnUse">
<stop stop-color="#3D3F6F"/>
<stop offset="1" stop-color="#191943"/>
</linearGradient>
<linearGradient id="paint65_linear_551_17" x1="38.0743" y1="314.252" x2="52.9453" y2="322.603" gradientUnits="userSpaceOnUse">
<stop stop-color="#F1F6FF"/>
<stop offset="0.722206" stop-color="#B1C3E8"/>
</linearGradient>
<linearGradient id="paint66_linear_551_17" x1="38.5437" y1="327.667" x2="43.7661" y2="331.346" gradientUnits="userSpaceOnUse">
<stop stop-color="#3D3F6F"/>
<stop offset="1" stop-color="#191943"/>
</linearGradient>
<linearGradient id="paint67_linear_551_17" x1="35.846" y1="319.472" x2="43.6205" y2="323.295" gradientUnits="userSpaceOnUse">
<stop stop-color="#3D3F6F"/>
<stop offset="1" stop-color="#191943"/>
</linearGradient>
<linearGradient id="paint68_linear_551_17" x1="37.6261" y1="322.909" x2="42.9951" y2="325.952" gradientUnits="userSpaceOnUse">
<stop stop-color="#F1F6FF"/>
<stop offset="0.722206" stop-color="#B1C3E8"/>
</linearGradient>
<linearGradient id="paint69_linear_551_17" x1="54.5166" y1="329.271" x2="63.0523" y2="337.359" gradientUnits="userSpaceOnUse">
<stop stop-color="#3D3F6F"/>
<stop offset="1" stop-color="#191943"/>
</linearGradient>
<linearGradient id="paint70_linear_551_17" x1="47.9529" y1="314.525" x2="64.3758" y2="323.748" gradientUnits="userSpaceOnUse">
<stop stop-color="#F1F6FF"/>
<stop offset="0.722206" stop-color="#B1C3E8"/>
</linearGradient>
<linearGradient id="paint71_linear_551_17" x1="48.4713" y1="329.34" x2="54.2387" y2="333.403" gradientUnits="userSpaceOnUse">
<stop stop-color="#3D3F6F"/>
<stop offset="1" stop-color="#191943"/>
</linearGradient>
<linearGradient id="paint72_linear_551_17" x1="45.4922" y1="320.289" x2="54.078" y2="324.512" gradientUnits="userSpaceOnUse">
<stop stop-color="#3D3F6F"/>
<stop offset="1" stop-color="#191943"/>
</linearGradient>
<linearGradient id="paint73_linear_551_17" x1="47.458" y1="324.086" x2="53.3871" y2="327.446" gradientUnits="userSpaceOnUse">
<stop stop-color="#F1F6FF"/>
<stop offset="0.722206" stop-color="#B1C3E8"/>
</linearGradient>
<linearGradient id="paint74_linear_551_17" x1="136.413" y1="265.969" x2="163.55" y2="325.051" gradientUnits="userSpaceOnUse">
<stop stop-color="#575AA6"/>
<stop offset="1" stop-color="#191943"/>
</linearGradient>
<linearGradient id="paint75_linear_551_17" x1="118.288" y1="286.641" x2="121.056" y2="325.79" gradientUnits="userSpaceOnUse">
<stop stop-color="#735AFF" stop-opacity="0.2"/>
<stop offset="1" stop-color="#8598FA"/>
</linearGradient>
<linearGradient id="paint76_linear_551_17" x1="56.8418" y1="315.148" x2="61.6834" y2="337.522" gradientUnits="userSpaceOnUse">
<stop offset="0.302083" stop-color="#7679CB"/>
<stop offset="1" stop-color="#191943"/>
</linearGradient>
<linearGradient id="paint77_linear_551_17" x1="231.204" y1="342.577" x2="246.877" y2="360.992" gradientUnits="userSpaceOnUse">
<stop stop-color="#3D3F6F"/>
<stop offset="1" stop-color="#191943"/>
</linearGradient>
<linearGradient id="paint78_linear_551_17" x1="214.585" y1="315.187" x2="249.233" y2="342.402" gradientUnits="userSpaceOnUse">
<stop stop-color="#F1F6FF"/>
<stop offset="0.722206" stop-color="#B1C3E8"/>
</linearGradient>
<linearGradient id="paint79_linear_551_17" x1="216.68" y1="343.891" x2="226.543" y2="355.204" gradientUnits="userSpaceOnUse">
<stop stop-color="#3D3F6F"/>
<stop offset="1" stop-color="#191943"/>
</linearGradient>
<linearGradient id="paint80_linear_551_17" x1="214.943" y1="333.849" x2="228.055" y2="345.785" gradientUnits="userSpaceOnUse">
<stop stop-color="#F1F6FF"/>
<stop offset="0.722206" stop-color="#B1C3E8"/>
</linearGradient>
<linearGradient id="paint81_linear_551_17" x1="215.326" y1="344.516" x2="218.768" y2="347.797" gradientUnits="userSpaceOnUse">
<stop stop-color="#3D3F6F"/>
<stop offset="1" stop-color="#191943"/>
</linearGradient>
<linearGradient id="paint82_linear_551_17" x1="123.877" y1="242.451" x2="148.457" y2="309.631" gradientUnits="userSpaceOnUse">
<stop offset="0.302083" stop-color="#7679CB"/>
<stop offset="1" stop-color="#191943"/>
</linearGradient>
<linearGradient id="paint83_linear_551_17" x1="103.668" y1="217.989" x2="106.947" y2="241.92" gradientUnits="userSpaceOnUse">
<stop stop-color="#F1F6FF"/>
<stop offset="1" stop-color="#B1C3E8"/>
</linearGradient>
<linearGradient id="paint84_linear_551_17" x1="74.5598" y1="242.592" x2="112.702" y2="280.048" gradientUnits="userSpaceOnUse">
<stop offset="0.302083" stop-color="#7679CB"/>
<stop offset="1" stop-color="#191943"/>
</linearGradient>
<linearGradient id="paint85_linear_551_17" x1="185.049" y1="269.476" x2="184.977" y2="271.087" gradientUnits="userSpaceOnUse">
<stop offset="0.302083" stop-color="#7679CB"/>
<stop offset="1" stop-color="#191943"/>
</linearGradient>
<linearGradient id="paint86_linear_551_17" x1="191.323" y1="259.09" x2="183.45" y2="268.223" gradientUnits="userSpaceOnUse">
<stop offset="0.302083" stop-color="#7679CB"/>
<stop offset="1" stop-color="#191943"/>
</linearGradient>
<linearGradient id="paint87_linear_551_17" x1="179.349" y1="268.284" x2="177.05" y2="271.885" gradientUnits="userSpaceOnUse">
<stop offset="0.302083" stop-color="#7679CB"/>
<stop offset="1" stop-color="#191943"/>
</linearGradient>
<linearGradient id="paint88_linear_551_17" x1="179.719" y1="268.321" x2="177.235" y2="271.229" gradientUnits="userSpaceOnUse">
<stop offset="0.302083" stop-color="#7679CB"/>
<stop offset="1" stop-color="#191943"/>
</linearGradient>
<linearGradient id="paint89_linear_551_17" x1="68.472" y1="201.183" x2="92.7454" y2="237.006" gradientUnits="userSpaceOnUse">
<stop stop-color="#F1F6FF"/>
<stop offset="1" stop-color="#B1C3E8"/>
</linearGradient>
<linearGradient id="paint90_linear_551_17" x1="207.56" y1="297.137" x2="228.448" y2="326.365" gradientUnits="userSpaceOnUse">
<stop stop-color="#575AA6"/>
<stop offset="1" stop-color="#191943"/>
</linearGradient>
<linearGradient id="paint91_linear_551_17" x1="215.366" y1="286.017" x2="247.97" y2="328.451" gradientUnits="userSpaceOnUse">
<stop stop-color="#F1F6FF"/>
<stop offset="1" stop-color="#B1C3E8"/>
</linearGradient>
<linearGradient id="paint92_linear_551_17" x1="168.726" y1="276.433" x2="170.331" y2="292.255" gradientUnits="userSpaceOnUse">
<stop stop-color="#575AA6"/>
<stop offset="1" stop-color="#191943"/>
</linearGradient>
<linearGradient id="paint93_linear_551_17" x1="95.7285" y1="344.989" x2="96.7864" y2="358.109" gradientUnits="userSpaceOnUse">
<stop stop-color="#575AA6"/>
<stop offset="1" stop-color="#191943"/>
</linearGradient>
<linearGradient id="paint94_linear_551_17" x1="71.9689" y1="315.306" x2="79.8235" y2="349.375" gradientUnits="userSpaceOnUse">
<stop stop-color="#575AA6"/>
<stop offset="1" stop-color="#191943"/>
</linearGradient>
<linearGradient id="paint95_linear_551_17" x1="122.924" y1="321.287" x2="104.769" y2="288.565" gradientUnits="userSpaceOnUse">
<stop stop-color="#575AA6"/>
<stop offset="1" stop-color="#191943"/>
</linearGradient>
<linearGradient id="paint96_linear_551_17" x1="94.5129" y1="350.188" x2="96.0944" y2="357.933" gradientUnits="userSpaceOnUse">
<stop stop-color="#575AA6"/>
<stop offset="1" stop-color="#191943"/>
</linearGradient>
<linearGradient id="paint97_linear_551_17" x1="115.431" y1="350.191" x2="97.8568" y2="316.22" gradientUnits="userSpaceOnUse">
<stop stop-color="#575AA6"/>
<stop offset="1" stop-color="#191943"/>
</linearGradient>
<linearGradient id="paint98_linear_551_17" x1="90.8527" y1="330.584" x2="100.916" y2="342.553" gradientUnits="userSpaceOnUse">
<stop stop-color="#575AA6"/>
<stop offset="1" stop-color="#191943"/>
</linearGradient>
<linearGradient id="paint99_linear_551_17" x1="91.4519" y1="323.28" x2="104.044" y2="340.759" gradientUnits="userSpaceOnUse">
<stop stop-color="#575AA6"/>
<stop offset="1" stop-color="#191943"/>
</linearGradient>
<linearGradient id="paint100_linear_551_17" x1="74.0903" y1="226.319" x2="77.1974" y2="283.655" gradientUnits="userSpaceOnUse">
<stop stop-color="#735AFF" stop-opacity="0.2"/>
<stop offset="1" stop-color="#8598FA"/>
</linearGradient>
<linearGradient id="paint101_linear_551_17" x1="110.334" y1="254.189" x2="127.16" y2="275.725" gradientUnits="userSpaceOnUse">
<stop stop-color="#F1F6FF"/>
<stop offset="0.722206" stop-color="#B1C3E8"/>
</linearGradient>
<linearGradient id="paint102_linear_551_17" x1="115.678" y1="261.009" x2="116.826" y2="304.451" gradientUnits="userSpaceOnUse">
<stop stop-color="#735AFF" stop-opacity="0.2"/>
<stop offset="1" stop-color="#8598FA"/>
</linearGradient>
<linearGradient id="paint103_linear_551_17" x1="114.993" y1="271.526" x2="115.055" y2="273.519" gradientUnits="userSpaceOnUse">
<stop offset="0.302083" stop-color="#7679CB"/>
<stop offset="1" stop-color="#191943"/>
</linearGradient>
<linearGradient id="paint104_linear_551_17" x1="103.783" y1="258.697" x2="112.431" y2="273.208" gradientUnits="userSpaceOnUse">
<stop offset="0.302083" stop-color="#7679CB"/>
<stop offset="1" stop-color="#191943"/>
</linearGradient>
<linearGradient id="paint105_linear_551_17" x1="125.178" y1="270.054" x2="127.491" y2="275.295" gradientUnits="userSpaceOnUse">
<stop offset="0.302083" stop-color="#7679CB"/>
<stop offset="1" stop-color="#191943"/>
</linearGradient>
<linearGradient id="paint106_linear_551_17" x1="124.517" y1="270.099" x2="127.238" y2="274.707" gradientUnits="userSpaceOnUse">
<stop offset="0.302083" stop-color="#7679CB"/>
<stop offset="1" stop-color="#191943"/>
</linearGradient>
<linearGradient id="paint107_linear_551_17" x1="174.379" y1="269.956" x2="182.517" y2="239.815" gradientUnits="userSpaceOnUse">
<stop offset="0.171022" stop-color="#575AA6"/>
<stop offset="1" stop-color="#191943"/>
</linearGradient>
<linearGradient id="paint108_linear_551_17" x1="168.385" y1="248.526" x2="149.747" y2="273.378" gradientUnits="userSpaceOnUse">
<stop stop-color="white"/>
<stop offset="1" stop-color="white" stop-opacity="0"/>
</linearGradient>
<linearGradient id="paint109_linear_551_17" x1="145.631" y1="267.754" x2="150.493" y2="317.631" gradientUnits="userSpaceOnUse">
<stop stop-color="#735AFF" stop-opacity="0.2"/>
<stop offset="1" stop-color="#8598FA"/>
</linearGradient>
<linearGradient id="paint110_linear_551_17" x1="72.3478" y1="224.079" x2="115.804" y2="368.067" gradientUnits="userSpaceOnUse">
<stop stop-color="#735AFF" stop-opacity="0.2"/>
<stop offset="1" stop-color="#8598FA"/>
</linearGradient>
<linearGradient id="paint111_linear_551_17" x1="72.4636" y1="267.939" x2="91.271" y2="365.852" gradientUnits="userSpaceOnUse">
<stop stop-color="#735AFF" stop-opacity="0.2"/>
<stop offset="1" stop-color="#8598FA"/>
</linearGradient>
<linearGradient id="paint112_linear_551_17" x1="115.025" y1="212.214" x2="115.732" y2="252.371" gradientUnits="userSpaceOnUse">
<stop stop-color="#735AFF" stop-opacity="0.2"/>
<stop offset="1" stop-color="#8598FA"/>
</linearGradient>
<linearGradient id="paint113_linear_551_17" x1="194.861" y1="335.24" x2="171.466" y2="295.323" gradientUnits="userSpaceOnUse">
<stop stop-color="#B1C3E8"/>
<stop offset="1" stop-color="#B1C3E8" stop-opacity="0"/>
</linearGradient>
<linearGradient id="paint114_linear_551_17" x1="93.1352" y1="257.873" x2="110.051" y2="378.487" gradientUnits="userSpaceOnUse">
<stop stop-color="#735AFF" stop-opacity="0.2"/>
<stop offset="1" stop-color="#8598FA"/>
</linearGradient>
<linearGradient id="paint115_linear_551_17" x1="222.837" y1="274.441" x2="240.551" y2="275.943" gradientUnits="userSpaceOnUse">
<stop stop-color="#575AA6"/>
<stop offset="1" stop-color="#191943"/>
</linearGradient>
<linearGradient id="paint116_linear_551_17" x1="141.7" y1="356.164" x2="157.373" y2="374.58" gradientUnits="userSpaceOnUse">
<stop stop-color="#3D3F6F"/>
<stop offset="1" stop-color="#191943"/>
</linearGradient>
<linearGradient id="paint117_linear_551_17" x1="125.081" y1="328.775" x2="159.729" y2="355.989" gradientUnits="userSpaceOnUse">
<stop stop-color="#F1F6FF"/>
<stop offset="0.722206" stop-color="#B1C3E8"/>
</linearGradient>
<linearGradient id="paint118_linear_551_17" x1="127.177" y1="357.479" x2="137.04" y2="368.792" gradientUnits="userSpaceOnUse">
<stop stop-color="#3D3F6F"/>
<stop offset="1" stop-color="#191943"/>
</linearGradient>
<linearGradient id="paint119_linear_551_17" x1="125.439" y1="347.437" x2="138.551" y2="359.373" gradientUnits="userSpaceOnUse">
<stop stop-color="#F1F6FF"/>
<stop offset="0.722206" stop-color="#B1C3E8"/>
</linearGradient>
<linearGradient id="paint120_linear_551_17" x1="125.822" y1="358.104" x2="129.264" y2="361.384" gradientUnits="userSpaceOnUse">
<stop stop-color="#3D3F6F"/>
<stop offset="1" stop-color="#191943"/>
</linearGradient>
<linearGradient id="paint121_linear_551_17" x1="162.538" y1="318.143" x2="171.64" y2="362.074" gradientUnits="userSpaceOnUse">
<stop stop-color="#575AA6"/>
<stop offset="1" stop-color="#191943"/>
</linearGradient>
<linearGradient id="paint122_linear_551_17" x1="183.655" y1="344.112" x2="189.236" y2="374.461" gradientUnits="userSpaceOnUse">
<stop stop-color="#575AA6"/>
<stop offset="1" stop-color="#191943"/>
</linearGradient>
<linearGradient id="paint123_linear_551_17" x1="121.925" y1="339.227" x2="117.036" y2="304.093" gradientUnits="userSpaceOnUse">
<stop stop-color="white"/>
<stop offset="0.876172" stop-color="white" stop-opacity="0"/>
</linearGradient>
<linearGradient id="paint124_linear_551_17" x1="300.38" y1="230.597" x2="304.824" y2="242.499" gradientUnits="userSpaceOnUse">
<stop stop-color="#F1F6FF"/>
<stop offset="1" stop-color="#B1C3E8"/>
</linearGradient>
<linearGradient id="paint125_linear_551_17" x1="303.238" y1="216.515" x2="305.662" y2="269.506" gradientUnits="userSpaceOnUse">
<stop stop-color="#A597EF"/>
<stop offset="1" stop-color="#8598FA"/>
</linearGradient>
<linearGradient id="paint126_linear_551_17" x1="320.555" y1="207.069" x2="327.222" y2="256.717" gradientUnits="userSpaceOnUse">
<stop stop-color="#A597EF"/>
<stop offset="1" stop-color="#8598FA"/>
</linearGradient>
<linearGradient id="paint127_linear_551_17" x1="319.516" y1="220.037" x2="320.268" y2="222.834" gradientUnits="userSpaceOnUse">
<stop stop-color="#F1F6FF"/>
<stop offset="1" stop-color="#B1C3E8"/>
</linearGradient>
<linearGradient id="paint128_linear_551_17" x1="320.45" y1="214.237" x2="321.138" y2="229.062" gradientUnits="userSpaceOnUse">
<stop stop-color="#735AFF"/>
<stop offset="1" stop-color="#8598FA"/>
</linearGradient>
<linearGradient id="paint129_linear_551_17" x1="310.794" y1="215.403" x2="311.236" y2="219.019" gradientUnits="userSpaceOnUse">
<stop stop-color="#F1F6FF"/>
<stop offset="1" stop-color="#B1C3E8"/>
</linearGradient>
<linearGradient id="paint130_linear_551_17" x1="313.603" y1="209.116" x2="314.106" y2="231.667" gradientUnits="userSpaceOnUse">
<stop stop-color="#A597EF"/>
<stop offset="1" stop-color="#8598FA"/>
</linearGradient>
<linearGradient id="paint131_linear_551_17" x1="327.255" y1="216.661" x2="327.455" y2="219.137" gradientUnits="userSpaceOnUse">
<stop stop-color="#F1F6FF"/>
<stop offset="1" stop-color="#B1C3E8"/>
</linearGradient>
<linearGradient id="paint132_linear_551_17" x1="330.129" y1="212.43" x2="330.34" y2="227.258" gradientUnits="userSpaceOnUse">
<stop stop-color="#A597EF"/>
<stop offset="1" stop-color="#8598FA"/>
</linearGradient>
<linearGradient id="paint133_linear_551_17" x1="319.462" y1="214.931" x2="322.293" y2="220.219" gradientUnits="userSpaceOnUse">
<stop stop-color="#F1F6FF"/>
<stop offset="1" stop-color="#B1C3E8"/>
</linearGradient>
<linearGradient id="paint134_linear_551_17" x1="293.39" y1="214.825" x2="300.057" y2="264.474" gradientUnits="userSpaceOnUse">
<stop stop-color="#A597EF"/>
<stop offset="1" stop-color="#8598FA"/>
</linearGradient>
<linearGradient id="paint135_linear_551_17" x1="292.3" y1="227.793" x2="293.052" y2="230.59" gradientUnits="userSpaceOnUse">
<stop stop-color="#F1F6FF"/>
<stop offset="1" stop-color="#B1C3E8"/>
</linearGradient>
<linearGradient id="paint136_linear_551_17" x1="283.578" y1="223.158" x2="284.02" y2="226.775" gradientUnits="userSpaceOnUse">
<stop stop-color="#F1F6FF"/>
<stop offset="1" stop-color="#B1C3E8"/>
</linearGradient>
<linearGradient id="paint137_linear_551_17" x1="286.437" y1="216.923" x2="286.941" y2="239.473" gradientUnits="userSpaceOnUse">
<stop stop-color="#A597EF"/>
<stop offset="1" stop-color="#8598FA"/>
</linearGradient>
<linearGradient id="paint138_linear_551_17" x1="300.09" y1="224.419" x2="300.289" y2="226.893" gradientUnits="userSpaceOnUse">
<stop stop-color="#F1F6FF"/>
<stop offset="1" stop-color="#B1C3E8"/>
</linearGradient>
<linearGradient id="paint139_linear_551_17" x1="293.285" y1="221.993" x2="293.973" y2="236.818" gradientUnits="userSpaceOnUse">
<stop stop-color="#4C3BAA"/>
<stop offset="1" stop-color="#8598FA"/>
</linearGradient>
<linearGradient id="paint140_linear_551_17" x1="302.963" y1="220.27" x2="303.171" y2="234.977" gradientUnits="userSpaceOnUse">
<stop stop-color="#A597EF"/>
<stop offset="1" stop-color="#8598FA"/>
</linearGradient>
<linearGradient id="paint141_linear_551_17" x1="292.246" y1="222.687" x2="295.077" y2="227.976" gradientUnits="userSpaceOnUse">
<stop stop-color="#F1F6FF"/>
<stop offset="1" stop-color="#B1C3E8"/>
</linearGradient>
<linearGradient id="paint142_linear_551_17" x1="361.858" y1="223.748" x2="367.243" y2="275.451" gradientUnits="userSpaceOnUse">
<stop stop-color="#A597EF"/>
<stop offset="1" stop-color="#8598FA"/>
</linearGradient>
<linearGradient id="paint143_linear_551_17" x1="354.03" y1="230.055" x2="355.256" y2="235.862" gradientUnits="userSpaceOnUse">
<stop stop-color="#F1F6FF"/>
<stop offset="1" stop-color="#B1C3E8"/>
</linearGradient>
<linearGradient id="paint144_linear_551_17" x1="356.745" y1="219.832" x2="358.142" y2="256.648" gradientUnits="userSpaceOnUse">
<stop stop-color="#A597EF"/>
<stop offset="1" stop-color="#8598FA"/>
</linearGradient>
<linearGradient id="paint145_linear_551_17" x1="359.378" y1="238.499" x2="362.671" y2="236.094" gradientUnits="userSpaceOnUse">
<stop stop-color="#F1F6FF"/>
<stop offset="1" stop-color="#B1C3E8"/>
</linearGradient>
<linearGradient id="paint146_linear_551_17" x1="369.95" y1="234.742" x2="370.618" y2="239.162" gradientUnits="userSpaceOnUse">
<stop stop-color="#F1F6FF"/>
<stop offset="1" stop-color="#B1C3E8"/>
</linearGradient>
<linearGradient id="paint147_linear_551_17" x1="354.18" y1="235.319" x2="375.988" y2="237.799" gradientUnits="userSpaceOnUse">
<stop stop-color="#735AFF"/>
<stop offset="1" stop-color="#8598FA"/>
</linearGradient>
<linearGradient id="paint148_linear_551_17" x1="372.558" y1="227.612" x2="373.182" y2="253.189" gradientUnits="userSpaceOnUse">
<stop stop-color="#A597EF"/>
<stop offset="1" stop-color="#8598FA"/>
</linearGradient>
<linearGradient id="paint149_linear_551_17" x1="362.01" y1="232.668" x2="364.863" y2="237.983" gradientUnits="userSpaceOnUse">
<stop stop-color="#F1F6FF"/>
<stop offset="1" stop-color="#B1C3E8"/>
</linearGradient>
<linearGradient id="paint150_linear_551_17" x1="333.165" y1="207.377" x2="335.999" y2="303.816" gradientUnits="userSpaceOnUse">
<stop stop-color="#4C3BAA"/>
<stop offset="1" stop-color="#8598FA"/>
</linearGradient>
<linearGradient id="paint151_linear_551_17" x1="334.003" y1="217.346" x2="343.037" y2="316.675" gradientUnits="userSpaceOnUse">
<stop stop-color="#A597EF"/>
<stop offset="1" stop-color="#8598FA"/>
</linearGradient>
<linearGradient id="paint152_linear_551_17" x1="333.303" y1="195.871" x2="336.838" y2="302.827" gradientUnits="userSpaceOnUse">
<stop stop-color="#735AFF"/>
<stop offset="1" stop-color="#8598FA"/>
</linearGradient>
<linearGradient id="paint153_linear_551_17" x1="349.604" y1="235.738" x2="353.032" y2="246.658" gradientUnits="userSpaceOnUse">
<stop stop-color="#F1F6FF"/>
<stop offset="1" stop-color="#B1C3E8"/>
</linearGradient>
<linearGradient id="paint154_linear_551_17" x1="352.967" y1="224.054" x2="354.593" y2="269.393" gradientUnits="userSpaceOnUse">
<stop stop-color="#A597EF"/>
<stop offset="1" stop-color="#8598FA"/>
</linearGradient>
<linearGradient id="paint155_linear_551_17" x1="323.709" y1="225.846" x2="329.546" y2="247.341" gradientUnits="userSpaceOnUse">
<stop stop-color="#F1F6FF"/>
<stop offset="1" stop-color="#B1C3E8"/>
</linearGradient>
<linearGradient id="paint156_linear_551_17" x1="332.816" y1="244.642" x2="340.949" y2="257.914" gradientUnits="userSpaceOnUse">
<stop stop-color="#F1F6FF"/>
<stop offset="1" stop-color="#B1C3E8"/>
</linearGradient>
<linearGradient id="paint157_linear_551_17" x1="340.322" y1="239.468" x2="345.708" y2="291.172" gradientUnits="userSpaceOnUse">
<stop stop-color="#A597EF"/>
<stop offset="1" stop-color="#8598FA"/>
</linearGradient>
<linearGradient id="paint158_linear_551_17" x1="332.495" y1="245.775" x2="333.721" y2="251.582" gradientUnits="userSpaceOnUse">
<stop stop-color="#F1F6FF"/>
<stop offset="1" stop-color="#B1C3E8"/>
</linearGradient>
<linearGradient id="paint159_linear_551_17" x1="335.209" y1="235.553" x2="336.607" y2="272.368" gradientUnits="userSpaceOnUse">
<stop stop-color="#A597EF"/>
<stop offset="1" stop-color="#8598FA"/>
</linearGradient>
<linearGradient id="paint160_linear_551_17" x1="337.843" y1="254.219" x2="341.136" y2="251.814" gradientUnits="userSpaceOnUse">
<stop stop-color="#F1F6FF"/>
<stop offset="1" stop-color="#B1C3E8"/>
</linearGradient>
<linearGradient id="paint161_linear_551_17" x1="348.415" y1="250.462" x2="349.083" y2="254.882" gradientUnits="userSpaceOnUse">
<stop stop-color="#F1F6FF"/>
<stop offset="1" stop-color="#B1C3E8"/>
</linearGradient>
<linearGradient id="paint162_linear_551_17" x1="351.023" y1="243.332" x2="351.647" y2="268.909" gradientUnits="userSpaceOnUse">
<stop stop-color="#A597EF"/>
<stop offset="1" stop-color="#8598FA"/>
</linearGradient>
<linearGradient id="paint163_linear_551_17" x1="340.475" y1="248.388" x2="343.327" y2="253.704" gradientUnits="userSpaceOnUse">
<stop stop-color="#F1F6FF"/>
<stop offset="1" stop-color="#B1C3E8"/>
</linearGradient>
</defs>
</svg>
