<svg width="207" height="207" viewBox="0 0 207 207" fill="none" xmlns="http://www.w3.org/2000/svg">
<rect x="44" y="40" width="131" height="131" rx="28" fill="#065353"/>
<g filter="url(#filter0_f_362_172)">
<circle cx="103.921" cy="103.845" r="49.95" fill="#58FFC3" fill-opacity="0.31"/>
</g>
<path d="M60.674 141.163V78.0239C60.674 73.3134 64.4786 69.5088 69.1891 69.5088H140.481C145.191 69.5088 148.996 73.3134 148.996 78.0239V141.163C148.996 145.873 145.191 149.678 140.481 149.678H69.1891C64.4786 149.678 60.674 145.873 60.674 141.163Z" fill="url(#paint0_linear_362_172)"/>
<path d="M125.171 101.033V78.7484C125.171 77.1178 126.44 75.8496 128.07 75.8496H161.587C163.218 75.8496 164.486 77.1178 164.486 78.7484V100.942C164.486 102.573 163.218 103.841 161.587 103.841H128.07C126.53 103.931 125.171 102.663 125.171 101.033Z" fill="url(#paint1_linear_362_172)"/>
<path d="M77.6136 54.3808V62.8959C77.6136 64.7982 76.0736 66.3382 74.1713 66.3382H62.4857C60.5833 66.3382 59.0434 64.7982 59.0434 62.8959V54.3808C59.0434 52.4784 60.5833 50.9385 62.4857 50.9385H74.1713C76.0736 50.9385 77.6136 52.4784 77.6136 54.3808Z" fill="url(#paint2_linear_362_172)"/>
<path d="M102.072 79.5635L86.6722 113.352L105.152 110.363L93.1944 140.075L116.928 102.663L97.3614 103.388L102.072 79.5635Z" fill="url(#paint3_linear_362_172)"/>
<path d="M70.0043 84.0024C72.2556 84.0024 74.0807 82.1773 74.0807 79.926C74.0807 77.6747 72.2556 75.8496 70.0043 75.8496C67.753 75.8496 65.9279 77.6747 65.9279 79.926C65.9279 82.1773 67.753 84.0024 70.0043 84.0024Z" fill="white" fill-opacity="0.3"/>
<path d="M85.1323 83.3686C87.3836 83.3686 89.2087 81.5435 89.2087 79.2922C89.2087 77.0409 87.3836 75.2158 85.1323 75.2158C82.881 75.2158 81.0559 77.0409 81.0559 79.2922C81.0559 81.5435 82.881 83.3686 85.1323 83.3686Z" fill="white" fill-opacity="0.3"/>
<path d="M84.4076 63.1676C86.0086 63.1676 87.3064 61.8698 87.3064 60.2689C87.3064 58.6679 86.0086 57.3701 84.4076 57.3701C82.8067 57.3701 81.5088 58.6679 81.5088 60.2689C81.5088 61.8698 82.8067 63.1676 84.4076 63.1676Z" stroke="url(#paint4_linear_362_172)" stroke-miterlimit="10"/>
<path d="M155.065 120.689C156.666 120.689 157.964 119.391 157.964 117.79C157.964 116.189 156.666 114.892 155.065 114.892C153.464 114.892 152.166 116.189 152.166 117.79C152.166 119.391 153.464 120.689 155.065 120.689Z" fill="white" fill-opacity="0.4"/>
<path d="M160.862 135.455C163.164 135.455 165.029 133.589 165.029 131.288C165.029 128.987 163.164 127.121 160.862 127.121C158.561 127.121 156.696 128.987 156.696 131.288C156.696 133.589 158.561 135.455 160.862 135.455Z" stroke="url(#paint5_linear_362_172)" stroke-miterlimit="10"/>
<path d="M53.9706 97.9531L54.967 124.133" stroke="white" stroke-opacity="0.3" stroke-miterlimit="10" stroke-linecap="round"/>
<path d="M119.917 159.28L85.4947 159.008" stroke="white" stroke-opacity="0.3" stroke-miterlimit="10" stroke-linecap="round"/>
<path fill-rule="evenodd" clip-rule="evenodd" d="M147.177 82.9106L144.657 81.0967L141.95 82.9013C141.742 83.0401 141.686 83.3213 141.825 83.5294C141.964 83.7376 142.245 83.7938 142.453 83.6551L144.115 82.5473L144.186 87.3445L142.557 86.1714C142.354 86.0253 142.071 86.0713 141.925 86.2743C141.779 86.4773 141.825 86.7604 142.028 86.9066L144.547 88.7205L147.254 86.9158C147.462 86.7771 147.518 86.4959 147.38 86.2877C147.241 86.0796 146.96 86.0234 146.752 86.1621L145.091 87.2691L145.019 82.4736L146.648 83.6458C146.851 83.7919 147.134 83.7459 147.28 83.5429C147.426 83.3399 147.38 83.0568 147.177 82.9106ZM129.605 87.8145C129.751 87.6116 130.034 87.5654 130.237 87.7114C130.237 87.7114 130.237 87.7115 129.973 88.0791L129.708 88.4467C129.505 88.3006 129.459 88.0176 129.605 87.8145ZM129.973 88.0791L130.237 87.7115L130.238 87.7124L130.245 87.7169L130.273 87.7366C130.298 87.7543 130.337 87.7811 130.389 87.816C130.493 87.8858 130.648 87.9881 130.853 88.1156C131.261 88.3705 131.864 88.7259 132.636 89.123C134.179 89.9176 136.39 90.8768 139.06 91.5345C144.395 92.8487 151.55 92.9594 158.893 88.1531C159.103 88.0161 159.383 88.0747 159.52 88.284C159.657 88.4933 159.599 88.774 159.389 88.911C151.786 93.888 144.357 93.7723 138.844 92.4141C136.09 91.7357 133.811 90.7473 132.221 89.9284C131.425 89.5187 130.801 89.1507 130.373 88.8841C130.159 88.7508 129.995 88.6428 129.883 88.5674C129.827 88.5297 129.784 88.5002 129.755 88.4798L129.721 88.4561L129.712 88.4496L129.709 88.4477L129.708 88.4471C129.708 88.4469 129.708 88.4467 129.973 88.0791ZM131.875 96.6848C131.625 96.6848 131.422 96.8876 131.422 97.1377C131.422 97.3879 131.625 97.5906 131.875 97.5906H157.511C157.761 97.5906 157.964 97.3879 157.964 97.1377C157.964 96.8876 157.761 96.6848 157.511 96.6848H131.875Z" fill="white" fill-opacity="0.5"/>
<path d="M113.758 139.441V138.082C113.758 136.905 114.754 135.908 115.932 135.908H137.038C138.216 135.908 139.212 136.905 139.212 138.082V139.441C139.212 140.619 138.216 141.615 137.038 141.615H115.932C114.663 141.615 113.758 140.619 113.758 139.441Z" fill="white" fill-opacity="0.3"/>
<defs>
<filter id="filter0_f_362_172" x="0.970566" y="0.895508" width="205.9" height="205.9" filterUnits="userSpaceOnUse" color-interpolation-filters="sRGB">
<feFlood flood-opacity="0" result="BackgroundImageFix"/>
<feBlend mode="normal" in="SourceGraphic" in2="BackgroundImageFix" result="shape"/>
<feGaussianBlur stdDeviation="26.5" result="effect1_foregroundBlur_362_172"/>
</filter>
<linearGradient id="paint0_linear_362_172" x1="104.848" y1="69.5088" x2="104.848" y2="149.678" gradientUnits="userSpaceOnUse">
<stop stop-color="#33B495"/>
<stop offset="1" stop-color="#088080"/>
</linearGradient>
<linearGradient id="paint1_linear_362_172" x1="127.142" y1="78.9318" x2="160.197" y2="108.621" gradientUnits="userSpaceOnUse">
<stop stop-color="#86EB84"/>
<stop offset="1" stop-color="#8AEF89" stop-opacity="0"/>
</linearGradient>
<linearGradient id="paint2_linear_362_172" x1="59.0434" y1="53.1235" x2="77.6136" y2="66.3382" gradientUnits="userSpaceOnUse">
<stop stop-color="#7DFF7A"/>
<stop offset="1" stop-color="#73FB72" stop-opacity="0"/>
</linearGradient>
<linearGradient id="paint3_linear_362_172" x1="86.6722" y1="88.1491" x2="128.599" y2="100.52" gradientUnits="userSpaceOnUse">
<stop stop-color="#7DFF7A"/>
<stop offset="1" stop-color="#73FB72" stop-opacity="0"/>
</linearGradient>
<linearGradient id="paint4_linear_362_172" x1="81.5088" y1="58.1927" x2="87.9864" y2="62.0152" gradientUnits="userSpaceOnUse">
<stop stop-color="#7DFF7A"/>
<stop offset="1" stop-color="#73FB72" stop-opacity="0"/>
</linearGradient>
<linearGradient id="paint5_linear_362_172" x1="156.696" y1="128.304" x2="166.007" y2="133.798" gradientUnits="userSpaceOnUse">
<stop stop-color="#7DFF7A"/>
<stop offset="1" stop-color="#73FB72" stop-opacity="0"/>
</linearGradient>
</defs>
</svg>
