<svg width="92" height="92" viewBox="0 0 92 92" fill="none" xmlns="http://www.w3.org/2000/svg">
<circle cx="46" cy="46" r="41" stroke="url(#paint0_linear_540_19)" stroke-width="10"/>
<path d="M43.7049 65.5C41.3382 65.5 39.1715 65.0833 37.2049 64.25C35.2382 63.3833 33.5882 62.15 32.2549 60.55L36.7549 56.1C37.4215 57.1 38.3715 57.9 39.6049 58.5C40.8382 59.1 42.1715 59.4 43.6049 59.4C44.9382 59.4 46.0882 59.1667 47.0549 58.7C48.0216 58.2 48.7716 57.5167 49.3049 56.65C49.8716 55.75 50.1549 54.7167 50.1549 53.55C50.1549 52.3167 49.8716 51.2667 49.3049 50.4C48.7716 49.5333 47.9882 48.8667 46.9549 48.4C45.9216 47.9333 44.6882 47.7 43.2549 47.7C42.6216 47.7 41.9716 47.75 41.3049 47.85C40.6382 47.9167 40.0715 48.0333 39.6049 48.2L42.6049 44.4C43.4382 44.1333 44.2549 43.9167 45.0549 43.75C45.8882 43.55 46.6549 43.45 47.3549 43.45C49.1549 43.45 50.7716 43.8833 52.2049 44.75C53.6716 45.5833 54.8216 46.7833 55.6549 48.35C56.5216 49.8833 56.9549 51.7 56.9549 53.8C56.9549 56.1333 56.4049 58.1833 55.3049 59.95C54.2049 61.6833 52.6549 63.05 50.6549 64.05C48.6882 65.0167 46.3716 65.5 43.7049 65.5ZM39.6049 48.2V44.3L48.6049 33.85L56.4049 33.75L47.1049 44.4L39.6049 48.2ZM34.2049 35.75V29.85H56.4049V33.75L50.8549 35.75H34.2049Z" fill="#576AC9"/>
<defs>
<linearGradient id="paint0_linear_540_19" x1="84.6034" y1="76.766" x2="5.5911" y2="18.8638" gradientUnits="userSpaceOnUse">
<stop stop-color="#4657B0" stop-opacity="0.2"/>
<stop offset="1" stop-color="#4657B0"/>
</linearGradient>
</defs>
</svg>
