<svg width="92" height="92" viewBox="0 0 92 92" fill="none" xmlns="http://www.w3.org/2000/svg">
<circle cx="46" cy="46" r="41" stroke="url(#paint0_linear_540_18)" stroke-width="10"/>
<path d="M32.4816 61.1L45.7316 47.25C46.665 46.25 47.415 45.3667 47.9816 44.6C48.5816 43.8 49.015 43.05 49.2816 42.35C49.5483 41.6167 49.6816 40.8833 49.6816 40.15C49.6816 38.6833 49.1983 37.5333 48.2316 36.7C47.2983 35.8667 46.0816 35.45 44.5816 35.45C43.0483 35.45 41.6816 35.85 40.4816 36.65C39.315 37.45 38.215 38.7167 37.1816 40.45L32.5316 36.5C33.9316 34.1333 35.665 32.35 37.7316 31.15C39.8316 29.9167 42.2316 29.3 44.9316 29.3C47.2316 29.3 49.2316 29.75 50.9316 30.65C52.665 31.55 53.9983 32.8 54.9316 34.4C55.865 36 56.3316 37.8667 56.3316 40C56.3316 41.4333 56.1483 42.7333 55.7816 43.9C55.4483 45.0667 54.865 46.2333 54.0316 47.4C53.2316 48.5333 52.115 49.8167 50.6816 51.25L41.0316 61.1H32.4816ZM32.4816 65V61.1L38.2816 59.1H57.0816V65H32.4816Z" fill="#219ED3"/>
<defs>
<linearGradient id="paint0_linear_540_18" x1="78.445" y1="67.1958" x2="6.43372" y2="23.8155" gradientUnits="userSpaceOnUse">
<stop stop-color="#1C85B1" stop-opacity="0.2"/>
<stop offset="1" stop-color="#1C85B1"/>
<stop offset="1" stop-color="#1C85B1"/>
</linearGradient>
</defs>
</svg>
