<svg width="207" height="207" viewBox="0 0 207 207" fill="none" xmlns="http://www.w3.org/2000/svg">
<rect x="31.5" y="48" width="131" height="131" rx="28" fill="#065353"/>
<g filter="url(#filter0_f_362_460)">
<circle cx="103.55" cy="103.899" r="49.95" fill="#58FFC3" fill-opacity="0.31"/>
</g>
<mask id="mask0_362_460" style="mask-type:alpha" maskUnits="userSpaceOnUse" x="31" y="48" width="132" height="131">
<rect x="31.5" y="48" width="131" height="131" rx="28" fill="#065353"/>
</mask>
<g mask="url(#mask0_362_460)">
<path d="M98.0999 160.9C125.659 160.9 148 138.559 148 111C148 83.4406 125.659 61.0996 98.0999 61.0996C70.5409 61.0996 48.2 83.4406 48.2 111C48.2 138.559 70.5409 160.9 98.0999 160.9Z" fill="url(#paint0_linear_362_460)"/>
<path d="M40.2999 103.9C42.5999 84.7998 54.1999 68.5998 70.2999 59.7998" stroke="white" stroke-opacity="0.5" stroke-miterlimit="10" stroke-linecap="round"/>
<path d="M156.3 111C156.3 134 142.9 154 123.5 163.4" stroke="white" stroke-opacity="0.5" stroke-miterlimit="10" stroke-linecap="round"/>
<g filter="url(#filter1_d_362_460)">
<path d="M156.1 79.1992C156.1 83.0652 152.966 86.1992 149.1 86.1992C145.234 86.1992 142.1 83.0652 142.1 79.1992C142.1 75.3332 145.234 72.1992 149.1 72.1992C152.966 72.1992 156.1 75.3332 156.1 79.1992Z" stroke="url(#paint1_linear_362_460)" shape-rendering="crispEdges"/>
</g>
<path d="M153.5 101.199C155.93 101.199 157.9 99.2295 157.9 96.7994C157.9 94.3694 155.93 92.3994 153.5 92.3994C151.07 92.3994 149.1 94.3694 149.1 96.7994C149.1 99.2295 151.07 101.199 153.5 101.199Z" fill="url(#paint2_linear_362_460)"/>
<path d="M127.2 158L123.3 163.6L127.7 167.2" stroke="white" stroke-opacity="0.5" stroke-miterlimit="10" stroke-linecap="round"/>
<path d="M36.1 99.6992L40.3 104.999L45.9 100.199" stroke="white" stroke-opacity="0.5" stroke-miterlimit="10" stroke-linecap="round"/>
<path d="M65.7 95.4995L122.5 95.3994C122.5 95.3994 127.7 97.2994 127.7 102.899C127.7 108.499 123.3 111.199 123.3 111.199L70.4 110.899C70.4 110.899 65 113.199 65.9 119.999C66.8 126.999 72.6 127.199 74.3 127.599C76.1 127.999 121.1 127.799 121.1 127.799C121.1 127.799 126.8 128.599 126.8 133.799C126.8 138.899 123.3 140.599 120.4 140.899C114.6 141.499 86.7 141.199 86.7 141.199" stroke="white" stroke-opacity="0.5" stroke-miterlimit="10" stroke-linecap="round"/>
<path d="M91.6999 137.199L86.3999 141.499L92.2999 145.899" stroke="white" stroke-opacity="0.5" stroke-miterlimit="10" stroke-linecap="round"/>
<path d="M47.7999 144.699C49.7329 144.699 51.2999 143.132 51.2999 141.199C51.2999 139.266 49.7329 137.699 47.7999 137.699C45.8669 137.699 44.2999 139.266 44.2999 141.199C44.2999 143.132 45.8669 144.699 47.7999 144.699Z" fill="url(#paint3_linear_362_460)"/>
<path d="M59.7 90.9C59.7 90.8 65.7 95.5 65.7 95.5L61.8 101.1" stroke="white" stroke-opacity="0.5" stroke-miterlimit="10" stroke-linecap="round"/>
<path d="M118.6 80.6C118.7 78.3 117.6 75.5 114.6 75.5C111.6 75.5 109.9 78.3 109.9 80.4C109.9 83.8 112.496 88.0035 113.496 90.1035C113.796 90.8035 114.796 90.8035 115.096 90.2035C116.596 87.9035 118.5 83 118.6 80.6Z" fill="url(#paint4_linear_362_460)"/>
<path d="M114.253 82.3913C115.369 82.3913 116.273 81.4867 116.273 80.3709C116.273 79.2551 115.369 78.3506 114.253 78.3506C113.137 78.3506 112.233 79.2551 112.233 80.3709C112.233 81.4867 113.137 82.3913 114.253 82.3913Z" fill="white" fill-opacity="0.5"/>
</g>
<defs>
<filter id="filter0_f_362_460" x="0.600037" y="0.949219" width="205.9" height="205.9" filterUnits="userSpaceOnUse" color-interpolation-filters="sRGB">
<feFlood flood-opacity="0" result="BackgroundImageFix"/>
<feBlend mode="normal" in="SourceGraphic" in2="BackgroundImageFix" result="shape"/>
<feGaussianBlur stdDeviation="26.5" result="effect1_foregroundBlur_362_460"/>
</filter>
<filter id="filter1_d_362_460" x="68.6" y="33.6992" width="161" height="161" filterUnits="userSpaceOnUse" color-interpolation-filters="sRGB">
<feFlood flood-opacity="0" result="BackgroundImageFix"/>
<feColorMatrix in="SourceAlpha" type="matrix" values="0 0 0 0 0 0 0 0 0 0 0 0 0 0 0 0 0 0 127 0" result="hardAlpha"/>
<feOffset dy="35"/>
<feGaussianBlur stdDeviation="36.5"/>
<feComposite in2="hardAlpha" operator="out"/>
<feColorMatrix type="matrix" values="0 0 0 0 0.0433333 0 0 0 0 0.059 0 0 0 0 0.2 0 0 0 0.33 0"/>
<feBlend mode="normal" in2="BackgroundImageFix" result="effect1_dropShadow_362_460"/>
<feBlend mode="normal" in="SourceGraphic" in2="effect1_dropShadow_362_460" result="shape"/>
</filter>
<linearGradient id="paint0_linear_362_460" x1="98.1143" y1="61.0996" x2="98.1143" y2="160.9" gradientUnits="userSpaceOnUse">
<stop stop-color="#33B495"/>
<stop offset="1" stop-color="#088080"/>
</linearGradient>
<linearGradient id="paint1_linear_362_460" x1="141.6" y1="73.8275" x2="158.36" y2="83.7175" gradientUnits="userSpaceOnUse">
<stop stop-color="#7DFF7A"/>
<stop offset="1" stop-color="#73FB72" stop-opacity="0"/>
</linearGradient>
<linearGradient id="paint2_linear_362_460" x1="149.1" y1="93.648" x2="158.932" y2="99.4502" gradientUnits="userSpaceOnUse">
<stop stop-color="#7DFF7A"/>
<stop offset="1" stop-color="#73FB72" stop-opacity="0"/>
</linearGradient>
<linearGradient id="paint3_linear_362_460" x1="44.2999" y1="138.692" x2="52.121" y2="143.308" gradientUnits="userSpaceOnUse">
<stop stop-color="white"/>
<stop offset="1" stop-color="white" stop-opacity="0"/>
</linearGradient>
<linearGradient id="paint4_linear_362_460" x1="110.198" y1="76.8687" x2="121.559" y2="81.0378" gradientUnits="userSpaceOnUse">
<stop stop-color="#86EB84"/>
<stop offset="0.97034" stop-color="#8AEF89" stop-opacity="0"/>
</linearGradient>
</defs>
</svg>
