<svg width="207" height="207" viewBox="0 0 207 207" fill="none" xmlns="http://www.w3.org/2000/svg">
<rect x="39.8999" y="34" width="131" height="131" rx="28" fill="#065353"/>
<g filter="url(#filter0_f_362_346)">
<circle cx="103.35" cy="103.849" r="49.95" fill="#58FFC3" fill-opacity="0.31"/>
</g>
<path d="M53.3999 129.9V78.0002C53.3999 73.2002 57.2999 69.2002 62.1999 69.2002H149.6C154.4 69.2002 158.4 73.1002 158.4 78.0002V129.9C158.4 134.7 154.5 138.7 149.6 138.7H62.1999C57.2999 138.7 53.3999 134.8 53.3999 129.9Z" fill="url(#paint0_linear_362_346)"/>
<path d="M58.3999 125.4V83.0002C58.3999 78.2002 62.2999 74.2002 67.1999 74.2002H145.1C149.9 74.2002 153.9 78.1002 153.9 83.0002V125.4C153.9 130.2 150 134.2 145.1 134.2H67.1999C62.2999 134.2 58.3999 130.3 58.3999 125.4Z" fill="white" fill-opacity="0.3"/>
<path d="M132.9 91.4998V67.4998C132.9 64.2998 135.5 61.7998 138.6 61.7998H164.6C167.8 61.7998 170.3 64.3998 170.3 67.4998V91.4998C170.3 94.6998 167.7 97.1998 164.6 97.1998H138.6C135.5 97.1998 132.9 94.5998 132.9 91.4998Z" fill="url(#paint1_linear_362_346)"/>
<path d="M165.5 117C167.046 117 168.3 115.747 168.3 114.2C168.3 112.654 167.046 111.4 165.5 111.4C163.954 111.4 162.7 112.654 162.7 114.2C162.7 115.747 163.954 117 165.5 117Z" stroke="white" stroke-opacity="0.19" stroke-miterlimit="10" stroke-linecap="round"/>
<path d="M166.8 129.7C169.175 129.7 171.1 127.774 171.1 125.4C171.1 123.025 169.175 121.1 166.8 121.1C164.425 121.1 162.5 123.025 162.5 125.4C162.5 127.774 164.425 129.7 166.8 129.7Z" fill="url(#paint2_linear_362_346)"/>
<path d="M55.3999 64.7C56.8359 64.7 57.9999 63.5359 57.9999 62.1C57.9999 60.6641 56.8359 59.5 55.3999 59.5C53.964 59.5 52.8 60.6641 52.8 62.1C52.8 63.5359 53.964 64.7 55.3999 64.7Z" fill="url(#paint3_linear_362_346)"/>
<path d="M45.2999 76.4996C47.8956 76.4996 49.9998 74.3953 49.9998 71.7996C49.9998 69.2039 47.8956 67.0996 45.2999 67.0996C42.7042 67.0996 40.5999 69.2039 40.5999 71.7996C40.5999 74.3953 42.7042 76.4996 45.2999 76.4996Z" stroke="url(#paint4_linear_362_346)" stroke-miterlimit="10" stroke-linecap="round"/>
<path d="M66.4999 61.5L122.638 61.5004" stroke="white" stroke-opacity="0.5" stroke-miterlimit="10" stroke-linecap="round"/>
<path d="M47.8999 89.0996L48.3 118.6" stroke="white" stroke-opacity="0.5" stroke-miterlimit="10" stroke-linecap="round"/>
<path d="M71.9999 84.5996H70.4999C69.9476 84.5996 69.4999 85.0473 69.4999 85.5996V98.3997C69.4999 98.9519 69.9476 99.3997 70.4999 99.3997H71.9999C72.5522 99.3997 72.9999 98.9519 72.9999 98.3997V85.5996C72.9999 85.0473 72.5522 84.5996 71.9999 84.5996Z" fill="url(#paint5_linear_362_346)"/>
<path d="M79.2 81.7998H77.7C77.1477 81.7998 76.7 82.2475 76.7 82.7998V98.2998C76.7 98.8521 77.1477 99.2998 77.7 99.2998H79.2C79.7523 99.2998 80.2 98.8521 80.2 98.2998V82.7998C80.2 82.2475 79.7523 81.7998 79.2 81.7998Z" fill="url(#paint6_linear_362_346)"/>
<path d="M86.2 79.9004H84.7C84.1477 79.9004 83.7 80.3481 83.7 80.9004V98.3004C83.7 98.8527 84.1477 99.3004 84.7 99.3004H86.2C86.7523 99.3004 87.2 98.8527 87.2 98.3004V80.9004C87.2 80.3481 86.7523 79.9004 86.2 79.9004Z" fill="url(#paint7_linear_362_346)"/>
<path d="M92.8 79.2002H91.3C90.7477 79.2002 90.3 79.6479 90.3 80.2002V97.6002C90.3 98.1524 90.7477 98.6002 91.3 98.6002H92.8C93.3522 98.6002 93.8 98.1524 93.8 97.6002V80.2002C93.8 79.6479 93.3522 79.2002 92.8 79.2002Z" fill="url(#paint8_linear_362_346)"/>
<path d="M66.4999 82.4004L66.5999 99.6003L97.8 99.1003" stroke="white" stroke-opacity="0.5" stroke-miterlimit="10" stroke-linecap="round"/>
<path d="M65.8 124V110.6C65.8 108.6 67.3999 107 69.3999 107H101.5C103.5 107 105.1 108.6 105.1 110.6V124C105.1 126 103.5 127.6 101.5 127.6H69.3999C67.3999 127.5 65.8 125.9 65.8 124Z" fill="url(#paint9_linear_362_346)"/>
<path d="M116.3 108.4L141.8 108.2" stroke="white" stroke-opacity="0.5" stroke-miterlimit="10" stroke-linecap="round"/>
<path d="M125.8 114.7H141.8" stroke="white" stroke-opacity="0.5" stroke-miterlimit="10" stroke-linecap="round"/>
<path d="M112.6 122.7H141.6" stroke="white" stroke-opacity="0.5" stroke-miterlimit="10" stroke-linecap="round"/>
<path d="M70.2 115C71.1 114.1 72.6 114 73.7 114.6C74.8 115.1 75.7 116.2 76.4 117.2C77.1 118.3 77.7 119.4 78.6 120.3C79.5 121.2 80.7 121.9 82 121.8C83.2 121.7 84.3 120.8 85 119.8C85.7 118.8 86.2 117.6 86.8 116.5C87.5 115.3 88.4 114.1 89.4 113.2C90.1 112.6 91 111.9 92 112.2C93.1 112.5 93.5 113.9 93.6 115C93.8 116.4 94 117.7 94.2 119.1C94.4 120.2 94.6 121.4 95.6 121.9C96.4 122.3 97.4 122 98.1 121.4C98.8 120.8 99.1 119.9 99.4 119C99.7 118.1 99.9 117.2 100.3 116.4" stroke="white" stroke-opacity="0.5" stroke-miterlimit="10" stroke-linecap="round"/>
<path d="M157.9 71.0001C156.5 69.6001 154.4 68.8001 152.4 69.0001C150.4 69.2001 148.5 70.3001 147.4 72.0001C146.4 73.5001 146.1 75.7002 147.1 77.2002C147.8 78.3002 149.1 79.0001 150.4 79.4001C151.8 79.8001 153.3 79.9002 154.7 80.2002C156.1 80.5002 157.9 80.7001 158.6 82.0001C160.4 85.1001 157.6 87.8001 154.2 88.1001C152.6 88.2001 147.2 88.1001 145.2 84.6001" stroke="white" stroke-opacity="0.5" stroke-miterlimit="10" stroke-linecap="round"/>
<path d="M151.8 65.9004L151.1 91.2004" stroke="white" stroke-opacity="0.5" stroke-miterlimit="10" stroke-linecap="round"/>
<path d="M154.8 65.9004L154.1 91.2004" stroke="white" stroke-opacity="0.5" stroke-miterlimit="10" stroke-linecap="round"/>
<defs>
<filter id="filter0_f_362_346" x="0.399933" y="0.899414" width="205.9" height="205.9" filterUnits="userSpaceOnUse" color-interpolation-filters="sRGB">
<feFlood flood-opacity="0" result="BackgroundImageFix"/>
<feBlend mode="normal" in="SourceGraphic" in2="BackgroundImageFix" result="shape"/>
<feGaussianBlur stdDeviation="26.5" result="effect1_foregroundBlur_362_346"/>
</filter>
<linearGradient id="paint0_linear_362_346" x1="105.915" y1="69.2002" x2="105.915" y2="138.7" gradientUnits="userSpaceOnUse">
<stop stop-color="#33B495"/>
<stop offset="1" stop-color="#088080"/>
</linearGradient>
<linearGradient id="paint1_linear_362_346" x1="134.181" y1="65.0217" x2="172.413" y2="90.6246" gradientUnits="userSpaceOnUse">
<stop stop-color="#86EB84"/>
<stop offset="0.97034" stop-color="#8AEF89" stop-opacity="0"/>
</linearGradient>
<linearGradient id="paint2_linear_362_346" x1="162.5" y1="122.32" x2="172.109" y2="127.99" gradientUnits="userSpaceOnUse">
<stop stop-color="#7DFF7A"/>
<stop offset="1" stop-color="#73FB72" stop-opacity="0"/>
</linearGradient>
<linearGradient id="paint3_linear_362_346" x1="52.8" y1="60.2378" x2="58.6099" y2="63.6663" gradientUnits="userSpaceOnUse">
<stop stop-color="#7DFF7A"/>
<stop offset="1" stop-color="#73FB72" stop-opacity="0"/>
</linearGradient>
<linearGradient id="paint4_linear_362_346" x1="40.5999" y1="68.4333" x2="51.1025" y2="74.631" gradientUnits="userSpaceOnUse">
<stop stop-color="#7DFF7A"/>
<stop offset="1" stop-color="#73FB72" stop-opacity="0"/>
</linearGradient>
<linearGradient id="paint5_linear_362_346" x1="69.6754" y1="86.229" x2="74.8731" y2="87.0152" gradientUnits="userSpaceOnUse">
<stop stop-color="#86EB84"/>
<stop offset="1" stop-color="#8AEF89" stop-opacity="0"/>
</linearGradient>
<linearGradient id="paint6_linear_362_346" x1="76.8754" y1="83.7265" x2="82.1065" y2="84.3956" gradientUnits="userSpaceOnUse">
<stop stop-color="#86EB84"/>
<stop offset="1" stop-color="#8AEF89" stop-opacity="0"/>
</linearGradient>
<linearGradient id="paint7_linear_362_346" x1="83.8754" y1="82.0362" x2="89.1223" y2="82.6417" gradientUnits="userSpaceOnUse">
<stop stop-color="#86EB84"/>
<stop offset="1" stop-color="#8AEF89" stop-opacity="0"/>
</linearGradient>
<linearGradient id="paint8_linear_362_346" x1="90.4754" y1="81.336" x2="95.7222" y2="81.9415" gradientUnits="userSpaceOnUse">
<stop stop-color="#86EB84"/>
<stop offset="1" stop-color="#8AEF89" stop-opacity="0"/>
</linearGradient>
<linearGradient id="paint9_linear_362_346" x1="67.1464" y1="108.875" x2="90.7787" y2="137.453" gradientUnits="userSpaceOnUse">
<stop stop-color="#86EB84"/>
<stop offset="0.97034" stop-color="#8AEF89" stop-opacity="0"/>
</linearGradient>
</defs>
</svg>
