<svg width="485" height="490" viewBox="0 0 485 490" fill="none" xmlns="http://www.w3.org/2000/svg">
<rect width="485" height="490" rx="20" fill="url(#paint0_linear_565_19)"/>
<g clip-path="url(#clip0_565_19)">
<path d="M288.49 246.968V254.354H288.445L288.49 246.968Z" stroke="black" stroke-miterlimit="10"/>
<path d="M313.614 183.725V290.309H295.35L294.726 272.663V272.619C294.682 270.452 291.608 270.717 290.628 270.85C290.539 270.85 290.45 270.894 290.405 270.894H290.361C290.316 270.894 290.316 270.894 290.316 270.894L290.361 246.968L290.405 236.309V234.187V232.816L290.494 185.405L313.614 183.725Z" fill="url(#paint1_linear_565_19)"/>
<path d="M299.894 234.32V272.619H294.682C294.637 270.452 291.564 270.718 290.584 270.85C290.494 270.85 290.405 270.895 290.361 270.895V232.816L299.894 234.32Z" fill="url(#paint2_linear_565_19)"/>
<path d="M392.731 183.725L392.686 211.277C390.993 210.614 389.211 210.039 387.385 209.597C382.93 208.58 376.827 208.005 370.234 207.695C355.756 206.988 339.007 207.562 332.413 207.828C332.324 207.828 332.191 207.828 332.102 207.828C332.013 207.828 331.968 207.828 331.879 207.828C331.79 207.828 331.656 207.828 331.567 207.828C331.523 207.828 331.433 207.828 331.389 207.828C331.3 207.828 331.211 207.828 331.122 207.828C330.988 207.828 330.854 207.828 330.765 207.828C330.632 207.828 330.498 207.828 330.364 207.828C330.32 207.828 330.275 207.828 330.275 207.828C330.231 207.828 330.142 207.828 330.097 207.828C330.008 207.828 329.963 207.828 329.919 207.828C329.874 207.828 329.83 207.828 329.785 207.828C329.741 207.828 329.741 207.828 329.696 207.828C329.652 207.828 329.607 207.828 329.607 207.828L330.142 208.314L330.052 208.27L329.562 208.093L329.607 222.246L350.01 222.378H350.054L350.232 222.467H350.188C339.497 222.422 331.166 222.378 328.627 222.29C328.582 222.29 328.493 222.29 328.449 222.29C328.36 222.29 328.315 222.29 328.226 222.29C327.959 222.29 327.691 222.29 327.469 222.29C327.38 222.29 327.291 222.29 327.157 222.29C327.023 222.29 326.979 222.29 326.89 222.29C326.845 222.29 326.756 222.29 326.711 222.334C326.622 222.334 326.578 222.334 326.489 222.378C326.444 222.378 326.4 222.378 326.355 222.378C326.221 222.378 326.088 222.422 325.954 222.467C325.731 222.511 325.509 222.555 325.33 222.644C325.197 222.688 325.063 222.732 324.93 222.776C324.93 222.776 324.93 222.776 324.885 222.776C324.751 222.82 324.662 222.865 324.529 222.909C324.484 222.909 324.44 222.953 324.395 222.953C324.306 222.997 324.172 223.042 324.083 223.086C324.039 223.13 323.949 223.13 323.905 223.174C323.816 223.218 323.682 223.263 323.593 223.351C323.593 223.351 323.549 223.351 323.549 223.395C323.415 223.484 323.326 223.528 323.192 223.617C323.059 223.705 322.925 223.793 322.836 223.882L322.791 223.926C322.702 224.015 322.613 224.103 322.479 224.147L322.435 224.191C322.346 224.28 322.257 224.368 322.168 224.413C322.079 224.457 322.034 224.545 321.945 224.634C321.722 224.855 321.499 225.12 321.277 225.341C321.188 225.43 321.098 225.562 321.009 225.651C320.564 226.226 320.208 226.801 319.94 227.332C319.896 227.376 319.896 227.42 319.851 227.464C319.584 227.995 319.361 228.481 319.227 228.791C319.227 228.835 319.227 228.835 319.183 228.879C319.183 228.924 319.183 228.924 319.138 228.968V229.012C319.094 229.145 319.049 229.233 319.049 229.233L318.337 277.661V278.501L318.292 290.133H313.57V181.336L392.731 183.725Z" fill="url(#paint3_linear_565_19)"/>
<path d="M326.444 222.511C326.533 222.511 326.578 222.467 326.667 222.467C326.622 222.467 326.578 222.467 326.533 222.467C326.489 222.511 326.444 222.511 326.444 222.511Z" stroke="black" stroke-miterlimit="10"/>
<path d="M318.292 290.31V301.985H295.751L295.306 290.31H318.292Z" fill="url(#paint4_linear_565_19)"/>
<path d="M412.599 292.742L391.528 292.653L378.075 292.609L363.908 292.565H362.617H361.325H362.617H363.908L373.664 292.609L382.44 292.653L429.839 292.875V292.83L412.599 292.742Z" stroke="black" stroke-miterlimit="10"/>
<path d="M438.926 306.01H361.325V292.609H373.709L382.485 292.654L429.883 292.875V292.831L441.822 292.875C442.535 300.26 438.926 306.01 438.926 306.01Z" fill="url(#paint5_linear_565_19)"/>
<path d="M383.376 290.309L383.287 292.609H378.119L363.953 292.565H362.661H361.369V275.848L364.22 275.759C368.185 275.759 374.511 275.671 378.832 278.457C381.906 280.447 383.999 284.029 383.376 290.309Z" fill="url(#paint6_linear_565_19)"/>
<path d="M368.14 222.644H367.606C367.784 222.644 367.962 222.644 368.14 222.644Z" stroke="black" stroke-miterlimit="10"/>
<path d="M409.302 222.599C404.758 222.599 398.967 222.599 392.552 222.644C384.89 222.644 376.382 222.644 368.096 222.644L330.052 208.447L329.963 208.403L329.473 207.96C329.473 207.96 329.518 207.96 329.607 207.96C329.652 207.96 329.652 207.96 329.696 207.96C329.741 207.96 329.785 207.96 329.83 207.96C329.874 207.96 329.919 207.96 330.008 207.96C330.052 207.96 330.142 207.96 330.186 207.96C330.231 207.96 330.275 207.96 330.275 207.96C330.409 207.96 330.542 207.96 330.676 207.96C330.765 207.96 330.899 207.96 331.032 207.96C331.122 207.96 331.211 207.96 331.3 207.96C331.344 207.96 331.433 207.96 331.478 207.96C331.567 207.96 331.656 207.96 331.79 207.96C331.879 207.96 331.923 207.96 332.013 207.96C332.102 207.96 332.235 207.96 332.324 207.96C338.917 207.695 355.667 207.076 370.145 207.828C376.694 208.137 382.797 208.712 387.251 209.73C389.078 210.128 390.86 210.703 392.552 211.41C402.175 215.258 409.213 222.555 409.213 222.555L409.302 222.599Z" fill="url(#paint7_linear_565_19)"/>
<path d="M330.231 191.73C330.231 191.243 330.632 190.845 331.122 190.845H375.223C375.714 190.845 376.114 191.243 376.114 191.73C376.114 192.216 375.714 192.614 375.223 192.614H331.122C330.632 192.614 330.231 192.216 330.231 191.73Z" fill="url(#paint8_linear_565_19)"/>
<path d="M346.669 195.975C346.669 195.71 346.891 195.489 347.159 195.489H354.821C355.088 195.489 355.311 195.71 355.311 195.975C355.311 196.241 355.088 196.462 354.821 196.462H347.159C346.891 196.462 346.669 196.241 346.669 195.975Z" fill="url(#paint9_linear_565_19)"/>
<path d="M354.197 307.911C354.197 307.823 354.197 307.734 354.197 307.646C354.197 307.513 354.197 307.381 354.197 307.248C354.197 307.115 354.197 306.983 354.197 306.85C354.197 306.585 354.153 306.275 354.108 306.01H345.199C345.199 306.01 345.243 303.71 343.283 296.899C342.526 294.245 341.59 292.123 340.477 290.53C340.343 290.486 340.165 290.486 340.031 290.442C339.318 290.354 338.606 290.265 337.848 290.265C337.136 290.265 336.467 290.309 335.799 290.398C335.71 290.398 335.576 290.442 335.487 290.442C335.175 290.486 334.908 290.53 334.596 290.619C334.329 290.663 334.062 290.752 333.794 290.796C333.394 290.884 333.037 291.017 332.636 291.15C332.547 291.194 332.413 291.238 332.28 291.282C332.146 291.327 332.013 291.371 331.879 291.459C331.656 291.548 331.389 291.68 331.166 291.769C331.033 291.813 330.899 291.901 330.765 291.946C330.632 291.99 330.543 292.078 330.409 292.123C330.409 292.123 330.364 292.123 330.364 292.167C330.142 292.3 329.919 292.432 329.741 292.565C329.652 292.653 329.518 292.698 329.384 292.786L329.34 292.83C329.162 292.963 328.939 293.096 328.761 293.228C328.716 293.228 328.716 293.273 328.672 293.273C328.493 293.405 328.271 293.582 328.092 293.715C328.003 293.803 327.87 293.892 327.781 293.98C327.38 294.334 326.979 294.688 326.578 295.086C326.489 295.174 326.4 295.307 326.311 295.395C326.221 295.484 326.132 295.616 326.043 295.705C325.865 295.926 325.687 296.103 325.509 296.324C325.33 296.545 325.152 296.766 325.019 296.988C324.93 297.076 324.84 297.209 324.796 297.341C324.618 297.562 324.484 297.784 324.35 298.049C324.261 298.182 324.217 298.27 324.128 298.403C323.905 298.757 323.727 299.11 323.504 299.508C323.46 299.641 323.37 299.774 323.326 299.862C323.281 299.995 323.192 300.128 323.148 300.26C323.103 300.393 323.014 300.526 322.969 300.658C322.925 300.791 322.88 300.924 322.791 301.056C322.702 301.322 322.569 301.587 322.479 301.852C322.435 301.985 322.39 302.118 322.346 302.25C322.257 302.516 322.168 302.781 322.123 303.091C322.079 303.223 322.034 303.356 322.034 303.533C321.945 303.798 321.9 304.108 321.856 304.373C321.811 304.506 321.811 304.683 321.767 304.816C321.722 305.081 321.678 305.39 321.633 305.7C321.633 305.833 321.588 306.01 321.588 306.142C321.588 306.275 321.544 306.452 321.544 306.585C321.499 306.894 321.499 307.204 321.499 307.513C321.499 307.558 321.499 307.646 321.499 307.69C321.499 307.779 321.499 307.867 321.499 307.956C321.499 308.044 321.499 308.132 321.499 308.221C321.499 309.194 321.589 310.123 321.722 311.051C322.969 319.587 329.741 326.088 337.893 326.088C346.58 326.088 353.663 318.702 354.242 309.415C354.286 309.017 354.286 308.619 354.286 308.265C354.197 308.088 354.197 308 354.197 307.911ZM334.552 319.72C330.231 319.72 326.756 314.457 326.756 307.956C326.756 307.867 326.756 307.779 326.756 307.69C326.845 301.322 330.32 296.191 334.552 296.191C338.784 296.191 342.258 301.322 342.348 307.69C342.348 307.779 342.348 307.867 342.348 307.956C342.348 314.413 338.828 319.72 334.552 319.72Z" fill="url(#paint10_linear_565_19)"/>
<path d="M342.348 307.646C342.259 301.278 338.784 296.147 334.552 296.147C330.32 296.147 326.845 301.278 326.756 307.646C326.756 307.735 326.756 307.823 326.756 307.912C326.756 314.413 330.231 319.676 334.552 319.676C338.873 319.676 342.348 314.413 342.348 307.912C342.348 307.823 342.348 307.735 342.348 307.646Z" fill="url(#paint11_linear_565_19)"/>
<path d="M333.973 317.067C330.899 317.067 328.404 313.219 328.404 308.442C328.404 308.177 328.404 307.912 328.404 307.691C328.672 303.268 331.033 299.818 333.973 299.818C336.868 299.818 339.274 303.268 339.541 307.691C339.541 307.956 339.541 308.177 339.541 308.442C339.541 313.175 337.046 317.067 333.973 317.067Z" fill="url(#paint12_linear_565_19)"/>
<path d="M333.973 308.354C333.973 309.46 333.438 310.344 332.814 310.344C332.146 310.344 331.656 309.46 331.656 308.354C331.656 308.133 331.701 307.867 331.745 307.691C331.923 306.939 332.324 306.364 332.859 306.364C333.394 306.364 333.794 306.894 333.973 307.691C333.973 307.867 333.973 308.089 333.973 308.354Z" fill="url(#paint13_linear_565_19)"/>
<path d="M361.325 289.911V292.565L345.421 292.476C345.421 292.476 345.154 291.592 344.486 290.309C342.793 287.081 338.65 281.376 330.052 281.066C323.459 280.801 319.049 284.162 318.381 284.693V282.791C319.584 282.349 327.914 276.909 335.576 278.899C343.951 281.066 343.639 281.066 346.268 282.349C351.346 284.87 361.325 289.911 361.325 289.911Z" fill="url(#paint14_linear_565_19)"/>
<path d="M436.12 274.963L435.719 265.455L435.674 263.995L435.229 254C430.418 243.474 424.181 231.489 421.196 225.828C420.127 223.794 419.459 222.6 419.459 222.6C419.459 222.6 415.539 222.6 409.391 222.644C404.847 222.644 399.056 222.644 392.641 222.688C379.188 222.688 363.062 222.688 350.232 222.688H350.188C339.496 222.644 331.166 222.6 328.627 222.511C328.582 222.511 328.493 222.511 328.449 222.511C328.36 222.511 328.315 222.511 328.226 222.511C327.959 222.511 327.691 222.511 327.469 222.511C327.38 222.511 327.291 222.511 327.157 222.511C327.023 222.511 326.979 222.511 326.89 222.511C326.845 222.511 326.756 222.511 326.711 222.555C326.667 222.555 326.622 222.555 326.578 222.555C321.054 223.352 319.227 229.455 319.227 229.455L318.515 277.882L318.426 282.836C321.544 281.199 324.529 279.784 327.736 279.121C331.122 278.413 334.774 278.501 338.071 279.651C343.06 281.465 344.798 284.472 346.446 285.445C348.272 286.551 352.549 287.833 357.271 289.027C359.053 289.469 360.166 289.646 361.414 290.089V275.892L364.265 275.804C368.23 275.804 374.555 275.715 378.876 278.501C381.995 280.536 384.088 284.118 383.509 290.398L383.42 292.698H378.253L391.706 292.742L412.777 292.831L430.106 292.919L434.516 279.209L435.541 277.705C435.897 276.821 436.164 275.892 436.12 274.963ZM333.973 273.769H325.598V268.02H328.538C331.523 268.02 333.973 270.408 333.973 273.415V273.769Z" fill="url(#paint15_linear_565_19)"/>
<path d="M357.271 233.877C357.226 232.329 355.934 231.091 354.331 231.091L332.681 230.87C331.033 230.87 329.652 232.152 329.652 233.744L329.518 250.683C329.518 251.789 330.186 252.85 331.211 253.336L348.05 261.12C348.05 261.12 347.292 259.97 346.49 258.644L333.171 252.496C332.28 252.098 331.701 251.214 331.745 250.241L331.834 235.867C331.834 234.496 332.993 233.391 334.418 233.435L352.772 233.656C354.153 233.656 355.222 234.717 355.266 236.044L356.068 259.13C356.157 260.988 354.153 262.226 352.415 261.43L349.876 260.28C350.366 261.253 350.856 262.137 351.212 262.668L353.885 263.906C355.934 264.835 358.251 263.376 358.162 261.164L357.271 233.877Z" fill="url(#paint16_linear_565_19)"/>
<path d="M351.257 262.536L348.05 261.076C348.05 261.076 347.292 259.926 346.49 258.6C345.689 257.273 344.798 255.725 344.441 254.84L347.159 254.354C347.159 254.354 348.629 257.627 349.921 260.148C350.411 261.121 350.901 262.005 351.257 262.536Z" fill="url(#paint17_linear_565_19)"/>
<path d="M337.982 249.444L336.779 243.032C336.289 240.511 337.982 238.078 340.521 237.636L342.303 237.327C344.842 236.84 347.292 238.521 347.738 241.042L349.475 250.373C349.832 252.231 348.584 254.044 346.713 254.398L345.51 254.619C342.036 255.194 338.65 252.894 337.982 249.444Z" fill="url(#paint18_linear_565_19)"/>
<path d="M435.719 265.455C421.998 265.808 390.815 266.251 376.738 265.322C374.243 265.145 372.283 264.968 371.081 264.703C366.002 263.641 359.988 226.049 359.988 226.049L421.152 225.828C424.136 231.445 430.418 243.43 435.184 254L435.63 263.995L435.719 265.455Z" fill="url(#paint19_linear_565_19)"/>
<path d="M363.508 232.241L371.927 259.749C372.239 260.811 373.263 261.563 374.377 261.563L430.15 262.491C431.576 262.536 432.734 261.43 432.779 260.015L432.957 255.327C432.957 254.885 432.868 254.442 432.69 254.044L420.528 230.339C420.083 229.455 419.192 228.924 418.212 228.924H366.002C364.265 228.924 362.973 230.56 363.508 232.241Z" fill="url(#paint20_linear_565_19)"/>
<path d="M435.407 277.573L434.382 279.076L429.928 292.831L382.529 292.61V292.565H383.287L383.376 290.266C383.955 283.985 381.861 280.447 378.743 278.369L376.738 265.278C390.815 266.207 421.954 265.764 435.719 265.411L436.12 274.919C436.164 275.892 435.897 276.821 435.407 277.573Z" fill="url(#paint21_linear_565_19)"/>
<path d="M388.944 279.43L427.789 280.049C429.883 280.094 431.264 282.084 430.418 283.897L427.968 289.071C427.478 290.089 426.408 290.708 425.25 290.708L391.038 290.31C389.835 290.31 388.766 289.602 388.32 288.541L386.138 283.101C385.38 281.332 386.85 279.43 388.944 279.43Z" fill="url(#paint22_linear_565_19)"/>
<path d="M437.412 255.769L437.323 259.13C437.323 259.749 436.877 260.28 436.253 260.457L435.63 260.59L435.674 262.315L437.545 261.916C438.124 261.784 438.57 261.297 438.614 260.722L438.882 255.15L437.412 255.769Z" fill="url(#paint23_linear_565_19)"/>
<path d="M440.575 253.381C441.599 251.656 441.287 245.199 441.154 242.324C441.02 239.582 440.263 238.167 438.837 237.637C436.966 236.929 435.095 237.371 434.65 238.698C434.204 240.025 434.739 246.659 434.872 250.02C435.095 254.664 437.189 255.504 437.189 255.504C438.659 255.46 439.55 255.106 440.575 253.381Z" fill="url(#paint24_linear_565_19)"/>
<path d="M399.368 302.649V299.774C399.368 298.447 400.437 297.386 401.774 297.386H403.823C404.313 297.386 404.714 297.784 404.714 298.27V302.693H399.368V302.649Z" fill="url(#paint25_linear_565_19)"/>
<path d="M422.978 302.339V299.42C422.978 298.094 421.909 297.032 420.573 297.032H418.39C417.989 297.032 417.677 297.342 417.677 297.74V302.339H422.978Z" fill="url(#paint26_linear_565_19)"/>
<path d="M407.253 301.499V298.491C407.253 297.872 407.788 297.341 408.411 297.341H414.336C414.96 297.341 415.494 297.872 415.494 298.491V301.499C415.494 302.118 414.96 302.648 414.336 302.648H408.411C407.788 302.648 407.253 302.162 407.253 301.499Z" fill="url(#paint27_linear_565_19)"/>
<path d="M404.268 241.396L396.473 250.595" stroke="white" stroke-miterlimit="10" stroke-linecap="round"/>
<path d="M408.946 243.165L401.15 252.364" stroke="white" stroke-miterlimit="10" stroke-linecap="round"/>
<path d="M395.136 239.583L389.568 245.995" stroke="white" stroke-miterlimit="10" stroke-linecap="round"/>
<path d="M393.8 283.853L416.653 283.986" stroke="white" stroke-miterlimit="10" stroke-linecap="round"/>
<path d="M404.268 287.302L409.213 287.391" stroke="white" stroke-miterlimit="10" stroke-linecap="round"/>
<path d="M354.153 309.327C354.197 308.929 354.197 308.531 354.197 308.177C354.197 308.088 354.197 308 354.197 307.911C354.197 307.823 354.197 307.735 354.197 307.646C354.197 307.513 354.197 307.381 354.197 307.248C354.197 307.115 354.197 306.983 354.197 306.85C354.197 306.585 354.153 306.275 354.108 306.01H385.737C385.737 306.142 385.737 306.231 385.737 306.364C385.737 307.381 385.826 308.354 385.959 309.327H354.153Z" fill="url(#paint28_linear_565_19)"/>
<path d="M418.39 306.01H411.351C411.04 312.599 406.318 317.862 400.526 317.862C394.735 317.862 389.969 312.599 389.701 306.01H385.692C385.692 306.142 385.692 306.231 385.692 306.364C385.692 307.381 385.781 308.354 385.915 309.327C386.182 311.007 386.672 312.644 387.34 314.147C389.969 320.118 395.582 324.231 402.086 324.231C411.129 324.231 418.479 316.226 418.479 306.364C418.434 306.231 418.434 306.098 418.39 306.01Z" fill="url(#paint29_linear_565_19)"/>
<path d="M400.526 317.862C406.318 317.862 411.084 312.599 411.351 306.01H389.657C389.969 312.599 394.735 317.862 400.526 317.862Z" fill="url(#paint30_linear_565_19)"/>
<path d="M400.526 317.862C406.318 317.862 411.084 312.599 411.351 306.01H389.657C389.969 312.599 394.735 317.862 400.526 317.862Z" fill="url(#paint31_linear_565_19)"/>
<path d="M387.296 314.147H381.549C379.456 314.147 377.718 312.467 377.718 310.344V309.327H385.915C386.138 311.007 386.628 312.644 387.296 314.147Z" fill="url(#paint32_linear_565_19)"/>
<path d="M339.987 290.442C339.274 290.354 338.561 290.265 337.804 290.265C337.091 290.265 336.423 290.309 335.755 290.398C335.665 290.398 335.532 290.442 335.443 290.442C335.131 290.486 334.864 290.531 334.552 290.619C334.284 290.663 334.017 290.752 333.75 290.796C333.349 290.884 332.993 291.017 332.592 291.15C332.503 291.194 332.369 291.238 332.235 291.282C332.102 291.327 331.968 291.371 331.834 291.459C331.612 291.548 331.344 291.68 331.122 291.769C330.988 291.813 330.854 291.902 330.721 291.946C330.587 291.99 330.498 292.078 330.364 292.123C330.364 292.123 330.32 292.123 330.32 292.167C330.097 292.3 329.874 292.388 329.696 292.565C329.607 292.653 329.473 292.698 329.34 292.786L329.295 292.83C329.072 292.963 328.894 293.096 328.716 293.228C328.671 293.228 328.672 293.273 328.627 293.273C328.449 293.405 328.226 293.582 328.048 293.715C327.959 293.803 327.825 293.892 327.736 293.98C327.335 294.334 326.934 294.688 326.533 295.086C326.444 295.174 326.355 295.307 326.266 295.395C326.177 295.484 326.088 295.617 325.999 295.705C325.82 295.926 325.642 296.103 325.464 296.324C325.286 296.545 325.108 296.766 324.974 296.988C324.885 297.076 324.796 297.209 324.751 297.341C324.573 297.562 324.439 297.784 324.306 298.049C324.217 298.182 324.172 298.27 324.083 298.403C323.86 298.757 323.682 299.11 323.459 299.508C323.415 299.641 323.326 299.774 323.281 299.862C323.237 299.995 323.148 300.128 323.103 300.26C323.059 300.393 322.969 300.526 322.925 300.658C322.88 300.791 322.836 300.924 322.747 301.056C322.658 301.322 322.524 301.587 322.435 301.852C322.39 301.985 322.346 302.118 322.301 302.25C322.212 302.516 322.123 302.781 322.078 303.091C322.034 303.223 321.989 303.356 321.989 303.533C321.9 303.798 321.856 304.108 321.811 304.373C321.767 304.506 321.767 304.683 321.722 304.816C321.678 305.125 321.633 305.39 321.588 305.7C321.588 305.833 321.544 306.01 321.544 306.142C321.544 306.275 321.499 306.452 321.499 306.585C321.455 306.894 321.455 307.204 321.455 307.513C321.455 307.558 321.455 307.646 321.455 307.69C321.455 307.779 321.455 307.867 321.455 307.956C321.455 308.044 321.455 308.132 321.455 308.221C321.455 309.194 321.544 310.123 321.678 311.051H320.297C319.227 311.051 318.336 310.167 318.336 309.105V291.636C318.336 291.636 322.791 285.223 328.983 285.223C338.338 285.179 339.987 290.442 339.987 290.442Z" fill="url(#paint33_linear_565_19)"/>
<path d="M401.64 306.01C401.64 307.071 400.794 307.911 399.725 307.911C398.655 307.911 397.809 307.071 397.809 306.01H401.64Z" fill="url(#paint34_linear_565_19)"/>
<path d="M295.751 301.985L295.35 290.265L294.726 272.619V272.575C294.682 270.408 291.608 270.673 290.628 270.806C291.786 271.071 292.499 271.69 292.855 272.575C293.034 273.061 293.078 273.636 292.989 274.255C292.722 276.157 291.875 276.909 289.782 277.661C287.51 278.501 285.995 278.988 284.213 280.049C281.941 281.376 279.981 284.516 278.912 286.816C277.843 289.115 277.353 291.327 277.13 293.847C284.703 291.636 287.287 292.167 287.287 292.167L287.332 293.671C287.332 294.688 286.619 295.572 285.55 295.749C282.743 296.324 277.353 297.43 274.19 298.226C273.566 298.359 273.076 297.872 273.166 297.297C273.923 292.521 275.794 286.285 277.754 282.437C279.358 279.253 281.095 276.024 285.862 274.609C287.153 274.211 288.49 273.592 289.203 272.929C289.871 272.265 290.316 271.867 290.361 270.85C290.316 270.85 290.316 270.85 290.316 270.85L290.361 246.924L290.405 236.265V232.727L290.494 185.317L290.539 163.956H187.768C187.768 163.956 187.768 175.631 187.768 191.508C187.768 183.68 194.183 177.312 202.068 177.312H274.19C282.075 177.312 288.49 183.68 288.49 191.508V254.265H187.813V267.843C187.813 267.887 187.813 267.931 187.813 267.975V268.019C187.813 268.064 187.813 268.108 187.768 268.108C187.768 268.152 187.724 268.196 187.679 268.241C187.635 268.285 187.635 268.329 187.59 268.329C187.545 268.373 187.456 268.462 187.367 268.506C187.367 268.506 187.323 268.506 187.323 268.55C187.323 268.55 187.278 268.55 187.278 268.594C186.877 268.816 186.298 268.992 185.675 269.214C185.541 269.258 185.363 269.346 185.229 269.39C185.184 269.39 185.14 269.435 185.14 269.435C185.051 269.479 185.006 269.523 184.917 269.567C184.828 269.612 184.694 269.7 184.605 269.789C184.516 269.833 184.472 269.877 184.383 269.921C184.294 269.965 184.249 270.054 184.16 270.098C183.893 270.319 183.625 270.629 183.447 270.983C183.403 271.071 183.358 271.115 183.314 271.204C183.269 271.292 183.224 271.336 183.224 271.425C182.957 272 182.779 272.707 182.734 273.592C182.69 273.99 182.69 274.388 182.645 274.786L182.244 281.862V282.172V282.216C182.2 282.924 182.155 283.675 182.155 284.427C181.71 293.626 181.309 303.798 181.131 309.371C181.086 310.432 181.443 311.405 182.111 312.113C182.868 312.997 183.982 313.528 185.229 313.528L201.489 313.572L276.061 313.749L292.499 313.793C293.702 313.793 294.771 313.218 295.439 312.334C295.885 311.715 296.152 311.007 296.152 310.167L295.751 301.985ZM202.736 298.27C199.573 297.43 194.183 296.28 191.377 295.661C190.352 295.44 189.595 294.511 189.595 293.449L189.639 291.857C189.639 291.857 192.134 291.592 199.707 293.936C199.484 291.282 199.039 288.673 198.014 286.241C196.945 283.808 194.985 280.491 192.713 279.076C190.931 277.97 189.506 277.395 187.145 276.909C185.452 276.555 184.115 275.626 183.536 274.211C183.403 273.902 183.314 273.548 183.269 273.194C183.002 271.204 184.605 269.612 186.565 269.258C186.254 269.877 186.476 270.806 186.922 271.469C187.011 271.602 187.145 271.779 187.278 271.911C187.991 272.619 188.971 273.017 189.862 273.459C194.361 275.671 197.702 279.784 199.841 284.295C201.801 288.408 202.87 292.874 203.761 297.297C203.894 297.916 203.315 298.447 202.736 298.27Z" fill="url(#paint35_linear_565_19)"/>
<path d="M188.837 232.772V201.061C188.837 185.096 187.679 164.044 203.761 164.044H275.081C285.327 163.381 287.955 177.002 287.955 192.968V232.816H188.837V232.772Z" fill="url(#paint36_linear_565_19)"/>
<path d="M189.595 291.902C189.194 286.639 189.238 283.012 188.837 277.352C189.951 277.528 191.777 278.457 192.357 278.811C193.648 279.607 194.673 280.845 195.653 282.04C196.856 283.455 197.613 285.268 198.281 286.993C199.217 289.248 199.707 291.415 199.751 293.892C196.678 292.831 192.713 292.123 189.595 291.902Z" fill="url(#paint37_linear_565_19)"/>
<path d="M186.209 298.359L186.298 303.047C186.298 303.268 186.476 303.489 186.744 303.489L204.696 303.931C205.097 303.931 205.32 303.445 205.008 303.179C203.003 301.499 197.39 297.739 186.699 297.961C186.432 297.916 186.209 298.137 186.209 298.359Z" fill="url(#paint38_linear_565_19)"/>
<path d="M287.242 292.034C287.643 287.169 287.599 283.852 288 278.634C286.886 278.811 285.06 279.651 284.481 280.005C283.189 280.757 282.164 281.907 281.184 282.968C279.981 284.295 279.224 285.975 278.556 287.523C277.62 289.602 277.13 291.636 277.086 293.892C280.159 292.919 284.124 292.3 287.242 292.034Z" fill="url(#paint39_linear_565_19)"/>
<path d="M290.628 298.359L290.539 303.047C290.539 303.268 290.361 303.489 290.094 303.489L272.141 303.931C271.74 303.931 271.517 303.445 271.829 303.179C273.834 301.499 279.447 297.739 290.138 297.961C290.405 297.916 290.628 298.137 290.628 298.359Z" fill="url(#paint40_linear_565_19)"/>
<path d="M201.355 313.75V318.968C201.355 321.445 199.351 323.435 196.856 323.435H186.521C184.026 323.435 182.022 321.445 182.022 318.968V312.29C182.779 313.175 183.893 313.705 185.14 313.705L201.355 313.75Z" fill="url(#paint41_linear_565_19)"/>
<path d="M295.306 312.467V319.322C295.306 321.798 293.301 323.789 290.806 323.789H280.471C277.977 323.789 275.972 321.798 275.972 319.322V313.926L292.41 313.97C293.568 313.97 294.637 313.396 295.306 312.467Z" fill="url(#paint42_linear_565_19)"/>
<path d="M199.751 275.804L277.041 275.936L277.13 279.74L269.156 301.411C268.399 303.489 266.394 304.86 264.122 304.86L213.383 304.108C211.334 304.064 209.463 302.826 208.616 300.968L199.707 280.447V275.804H199.751Z" fill="url(#paint43_linear_565_19)"/>
<path d="M277.041 253.16H199.751V275.98H277.041V253.16Z" fill="url(#paint44_linear_565_19)"/>
<path d="M208.304 280.801L268.978 281.287C270.136 281.287 270.983 282.393 270.626 283.499L268.844 289.336C268.622 290.044 267.953 290.575 267.196 290.575L210.576 290.929C209.819 290.929 209.151 290.442 208.928 289.734L206.656 283.056C206.255 281.951 207.102 280.801 208.304 280.801Z" fill="url(#paint45_linear_565_19)"/>
<path d="M212.447 292.963L265.281 292.919C265.993 292.919 266.483 293.627 266.216 294.29L263.231 301.455C263.098 301.808 262.697 302.074 262.296 302.074L215.922 301.985C215.521 301.985 215.209 301.764 215.031 301.41L211.556 294.378C211.2 293.759 211.69 292.963 212.447 292.963Z" fill="url(#paint46_linear_565_19)"/>
<path d="M269.245 256.831H207.547V267.887H269.245V256.831Z" fill="url(#paint47_linear_565_19)"/>
<path d="M212.358 260.104L264.523 260.059" stroke="url(#paint48_linear_565_19)" stroke-miterlimit="10" stroke-linecap="round"/>
<path d="M212.358 262.403L264.523 262.314" stroke="url(#paint49_linear_565_19)" stroke-miterlimit="10" stroke-linecap="round"/>
<path d="M212.358 264.57L264.523 264.526" stroke="url(#paint50_linear_565_19)" stroke-miterlimit="10" stroke-linecap="round"/>
<path d="M288.49 191.553V254.309H187.813V191.553C187.813 183.725 194.228 177.356 202.112 177.356H274.235C282.075 177.4 288.49 183.725 288.49 191.553Z" fill="url(#paint51_linear_565_19)"/>
<path d="M288.49 235.514V248.383C287.955 248.737 287.242 249.091 286.396 249.489C285.772 249.754 283.233 249.976 279.402 250.108C261.182 250.772 213.338 250.064 198.103 249.843C195.742 249.799 194.138 249.799 193.604 249.799C191.02 249.799 189.105 248.782 187.813 247.809V234.895L192.98 238.477C194.005 239.184 195.252 239.582 196.544 239.582L281.139 239.406C282.52 239.406 283.812 238.963 284.926 238.167L288.49 235.514Z" fill="url(#paint52_linear_565_19)"/>
<path d="M288.49 233.435V235.558L284.882 238.167C283.768 238.963 282.476 239.405 281.095 239.405L196.5 239.582C195.252 239.582 194.005 239.184 192.936 238.477L187.768 234.894V232.771L192.936 236.354C193.96 237.061 195.208 237.459 196.5 237.459L281.095 237.283C282.476 237.283 283.768 236.84 284.882 236.044L288.49 233.435Z" fill="white"/>
<path d="M279.358 249.976V250.152C261.138 250.816 213.294 250.108 198.059 249.887C198.103 248.206 199.484 246.835 201.222 246.835H276.15C277.932 246.791 279.358 248.206 279.358 249.976Z" fill="url(#paint53_linear_565_19)"/>
<path d="M208.621 167.052H204.825C203.721 167.052 202.825 167.947 202.825 169.052V170.58C202.825 171.685 203.721 172.58 204.825 172.58H208.621C209.726 172.58 210.621 171.685 210.621 170.58V169.052C210.621 167.947 209.726 167.052 208.621 167.052Z" fill="url(#paint54_linear_565_19)"/>
<path d="M272.636 166.742H268.84C267.735 166.742 266.84 167.638 266.84 168.742V170.27C266.84 171.375 267.735 172.27 268.84 172.27H272.636C273.74 172.27 274.636 171.375 274.636 170.27V168.742C274.636 167.638 273.74 166.742 272.636 166.742Z" fill="url(#paint55_linear_565_19)"/>
<path d="M192.357 201.415L283.01 201.062" stroke="white" stroke-miterlimit="10" stroke-linecap="round"/>
<path d="M231.068 222.556L241.982 212.339" stroke="white" stroke-miterlimit="10" stroke-linecap="round"/>
<path d="M238.374 226.447L249.333 216.187" stroke="white" stroke-miterlimit="10" stroke-linecap="round"/>
<path d="M294.816 203.538H290.316V243.563L299.894 234.319L301.052 233.17C302.121 232.108 302.745 230.693 302.745 229.189V211.455C302.789 207.076 299.226 203.538 294.816 203.538ZM298.736 230.604C298.736 234.143 295.84 237.017 292.276 237.017H290.361V204.157H293.034C296.196 204.157 298.736 206.678 298.736 209.818V230.604Z" fill="url(#paint56_linear_565_19)"/>
<path d="M294.86 218.973V208.668C294.86 207.872 295.528 207.209 296.33 207.209C297.667 207.209 298.78 208.315 298.78 209.641V221.361H297.31C295.929 221.406 294.86 220.344 294.86 218.973Z" fill="url(#paint57_linear_565_19)"/>
<path d="M292.633 217.823C293.863 217.823 294.86 216.853 294.86 215.656C294.86 214.459 293.863 213.489 292.633 213.489C291.403 213.489 290.405 214.459 290.405 215.656C290.405 216.853 291.403 217.823 292.633 217.823Z" fill="url(#paint58_linear_565_19)"/>
<path d="M290.316 232.462L290.361 218.177V216.983C290.673 216.939 292.855 218.398 292.855 220.565L292.944 229.853C292.989 231.268 291.786 232.462 290.316 232.462Z" fill="url(#paint59_linear_565_19)"/>
<path d="M182.378 278.192C182.378 278.413 182.333 278.634 182.333 278.855C182.333 279.076 182.333 279.297 182.289 279.563C182.289 279.916 182.244 280.27 182.244 280.624C182.2 281.11 182.2 281.597 182.155 282.083L182.556 275.007C182.512 275.98 182.467 277.086 182.378 278.192ZM177.032 278.192L179.661 236.486L187.501 243.961L186.877 186.378L100.277 185.936C100.277 185.936 84.2847 191.509 73.9051 220.123C71.8114 225.872 69.9404 232.595 68.5149 240.334C68.5149 240.334 68.4258 240.423 68.2476 240.599C66.8667 242.015 60.8973 248.472 57.779 257.361V258.113L57.4672 267.931L57.4226 269.214L57.779 291.725C57.779 293.936 59.5609 295.705 61.7883 295.705H106.157C107.494 295.705 108.697 295.042 109.409 294.024C109.409 293.98 109.454 293.98 109.454 293.936C109.632 293.494 109.81 293.096 109.988 292.698C117.294 276.776 125.625 269.302 125.625 269.302C135.781 268.373 151.017 268.462 152.086 280.138C152.086 280.27 152.086 280.403 152.13 280.536C154.358 305.169 151.908 308.354 151.908 308.354L153.199 308.177L180.908 304.196L182.022 284.604L177.032 278.545V278.192Z" fill="url(#paint60_linear_565_19)"/>
<path d="M187.768 268.108C187.768 268.152 187.768 268.196 187.724 268.241C187.724 268.285 187.679 268.329 187.635 268.373C187.59 268.418 187.59 268.462 187.545 268.462C187.501 268.506 187.412 268.594 187.323 268.639C187.323 268.639 187.278 268.639 187.278 268.683C187.278 268.683 187.234 268.683 187.234 268.727C186.833 268.948 186.254 269.125 185.63 269.346C185.496 269.391 185.318 269.479 185.184 269.523C185.14 269.523 185.095 269.567 185.095 269.567C185.006 269.612 184.962 269.656 184.873 269.7C184.784 269.744 184.65 269.833 184.561 269.921C184.472 269.965 184.427 270.01 184.338 270.054C184.249 270.098 184.204 270.187 184.115 270.231C183.848 270.452 183.581 270.762 183.403 271.115C183.358 271.204 183.313 271.248 183.269 271.336C183.224 271.425 183.18 271.469 183.18 271.558C182.913 272.133 182.734 272.84 182.69 273.725C182.645 274.123 182.645 274.521 182.601 274.919C182.512 275.936 182.467 277.042 182.422 278.147C182.422 278.368 182.378 278.59 182.378 278.811C182.378 279.032 182.378 279.253 182.333 279.518C182.333 279.872 182.289 280.226 182.289 280.58C182.244 281.066 182.244 281.553 182.2 282.039V282.349V282.393L182.066 284.56L177.032 278.545V278.191L179.661 236.486L187.501 243.961L187.768 268.108Z" fill="url(#paint61_linear_565_19)"/>
<path d="M177.032 278.545L182.066 284.56L180.952 304.152L153.244 308.132L151.952 308.309C151.952 308.309 154.402 305.125 152.175 280.491L177.077 278.191L177.032 278.545Z" fill="url(#paint62_linear_565_19)"/>
<path d="M182.556 203.626C178.146 203.626 174.627 207.165 174.627 211.499V229.233C174.627 230.737 175.25 232.196 176.32 233.214L177.478 234.364L187.055 243.607V203.626H182.556ZM187.011 237.061H185.095C181.532 237.061 178.636 234.187 178.636 230.649V209.862C178.636 206.722 181.175 204.201 184.338 204.201H187.011V237.061Z" fill="url(#paint63_linear_565_19)"/>
<path d="M182.556 219.061V208.757C182.556 207.961 181.888 207.297 181.086 207.297C179.75 207.297 178.636 208.403 178.636 209.73V221.494H180.106C181.443 221.494 182.556 220.388 182.556 219.061Z" fill="url(#paint64_linear_565_19)"/>
<path d="M184.784 217.911C186.014 217.911 187.011 216.941 187.011 215.744C187.011 214.547 186.014 213.577 184.784 213.577C183.553 213.577 182.556 214.547 182.556 215.744C182.556 216.941 183.553 217.911 184.784 217.911Z" fill="url(#paint65_linear_565_19)"/>
<path d="M187.055 232.55L187.011 218.221V217.027C186.699 216.983 184.516 218.442 184.516 220.609L184.427 229.897C184.427 231.356 185.585 232.55 187.055 232.55Z" fill="url(#paint66_linear_565_19)"/>
<path d="M361.325 292.521V306.01H345.154C345.154 306.01 345.199 303.71 343.238 296.899C342.481 294.246 341.546 292.123 340.432 290.531C340.298 290.487 340.12 290.487 339.987 290.442C339.987 290.442 338.338 285.179 328.983 285.179C322.791 285.179 318.336 291.592 318.336 291.592L318.426 284.649C319.094 284.118 323.504 280.757 330.097 281.022C338.695 281.332 342.882 287.081 344.53 290.265C345.199 291.548 345.466 292.433 345.466 292.433L361.325 292.521Z" fill="url(#paint67_linear_565_19)"/>
<path d="M368.096 222.644C367.918 222.644 367.74 222.644 367.606 222.644L350.01 222.556H349.965L329.562 222.423L329.518 208.271L330.008 208.447L330.097 208.492L368.096 222.644Z" fill="url(#paint68_linear_565_19)"/>
<path d="M325.642 268.02H328.582C331.567 268.02 334.017 270.408 334.017 273.415V273.769H325.642V268.02Z" fill="url(#paint69_linear_565_19)"/>
<path d="M292.945 274.3C292.677 276.201 291.831 276.953 289.737 277.705C287.465 278.545 285.951 279.032 284.169 280.093C281.897 281.42 279.937 284.56 278.868 286.86C277.798 289.16 277.308 291.371 277.086 293.892C284.659 291.681 287.243 292.211 287.243 292.211L287.287 293.715C287.287 294.732 286.574 295.617 285.505 295.794C282.699 296.369 277.308 297.474 274.146 298.27C273.522 298.403 273.032 297.916 273.121 297.341C273.878 292.565 275.749 286.329 277.709 282.482C279.313 279.297 281.05 276.069 285.817 274.654C287.109 274.255 288.445 273.636 289.158 272.973C289.826 272.31 290.272 271.912 290.316 270.894C290.316 270.894 290.316 270.894 290.361 270.894C290.405 270.894 290.494 270.85 290.584 270.85C291.742 271.115 292.455 271.735 292.811 272.619C292.989 273.106 293.034 273.681 292.945 274.3Z" fill="url(#paint70_linear_565_19)"/>
<path d="M151.551 301.72C151.551 307.823 150.571 313.307 149.057 317.067C147.72 320.295 145.983 322.241 144.112 322.241C140.904 322.241 138.187 316.713 137.118 308.929C137.341 305.612 138.41 293.273 141.394 286.197C142.241 284.207 143.087 282.482 143.934 281.199C143.978 281.199 144.067 281.199 144.112 281.199C146.027 281.199 147.765 283.145 149.057 286.374C149.903 288.452 150.571 291.017 151.017 293.936C151.373 296.325 151.551 298.978 151.551 301.72Z" fill="url(#paint71_linear_565_19)"/>
<path d="M202.736 298.27C199.573 297.43 194.183 296.28 191.377 295.661C190.352 295.44 189.595 294.511 189.595 293.449L189.639 291.857C189.639 291.857 192.134 291.592 199.707 293.936C199.484 291.282 199.039 288.673 198.014 286.241C196.945 283.808 194.985 280.491 192.713 279.076C190.931 277.97 189.506 277.395 187.145 276.909C185.452 276.555 184.115 275.626 183.536 274.211C183.403 273.902 183.313 273.548 183.269 273.194C183.002 271.204 184.605 269.612 186.565 269.258C186.254 269.877 186.476 270.806 186.922 271.469C187.011 271.602 187.145 271.779 187.278 271.911C187.991 272.619 188.971 273.017 189.862 273.459C194.361 275.671 197.702 279.784 199.841 284.295C201.801 288.408 202.87 292.875 203.761 297.297C203.894 297.916 203.315 298.447 202.736 298.27Z" fill="url(#paint72_linear_565_19)"/>
<path d="M110.033 292.653C109.944 293.096 109.721 293.538 109.499 293.892C109.632 293.494 109.81 293.096 110.033 292.653Z" stroke="black" stroke-miterlimit="10"/>
<path d="M140.637 241.042L109.543 257.184C109.231 256.919 108.83 256.742 108.385 256.742H59.1155C58.4027 256.742 57.7791 257.317 57.7791 258.069V258.157V257.405C60.8974 248.516 66.8667 242.059 68.2477 240.644L140.637 241.042Z" fill="url(#paint73_linear_565_19)"/>
<path d="M77.4689 256.742V256.211C77.4689 255.106 78.3599 254.221 79.4736 254.221H87.4921C88.6058 254.221 89.4967 255.106 89.4967 256.211V256.742H77.4689Z" fill="url(#paint74_linear_565_19)"/>
<path d="M57.4226 291.061V258.378C57.4226 257.494 58.1354 256.786 59.0263 256.786H108.518C109.677 256.786 110.568 257.715 110.568 258.821V290.221C110.568 293.228 108.118 295.661 105.088 295.661H62.1446C59.5163 295.749 57.4226 293.671 57.4226 291.061Z" fill="url(#paint75_linear_565_19)"/>
<path d="M60.0509 263.995L60.0955 270.496C60.0955 271.691 61.0755 272.664 62.2783 272.708L78.939 273.017C79.3845 273.017 79.7409 272.664 79.7409 272.266L79.7854 270.673C79.9191 265.941 76.088 262.049 71.3214 262.049L61.8774 262.138C60.8528 262.138 60.0509 262.978 60.0509 263.995Z" fill="url(#paint76_linear_565_19)"/>
<path d="M107.85 263.995L107.806 270.496C107.806 271.691 106.781 272.664 105.489 272.708L87.9376 273.017C87.4921 273.017 87.0912 272.664 87.0912 272.266L87.0466 270.673C86.913 265.941 90.9668 262.049 96.0007 262.049L105.935 262.138C106.959 262.138 107.85 262.978 107.85 263.995Z" fill="url(#paint77_linear_565_19)"/>
<path d="M60.5409 290.31V277.086C60.5409 276.29 61.2091 275.626 62.011 275.626H77.3353C78.1371 275.626 78.8053 276.29 78.8053 277.086V290.31C78.8053 291.106 78.1371 291.769 77.3353 291.769H62.011C61.2091 291.769 60.5409 291.106 60.5409 290.31Z" fill="url(#paint78_linear_565_19)"/>
<path d="M87.0021 289.646V276.423C87.0021 275.627 87.6703 274.963 88.4722 274.963H105.801C106.603 274.963 107.271 275.627 107.271 276.423V289.646C107.271 290.443 106.603 291.106 105.801 291.106H88.4722C87.6703 291.106 87.0021 290.443 87.0021 289.646Z" fill="url(#paint79_linear_565_19)"/>
<path d="M65.3521 281.332L74.4843 281.465" stroke="white" stroke-miterlimit="10" stroke-linecap="round"/>
<path d="M65.3521 284.958L74.4843 285.091" stroke="white" stroke-miterlimit="10" stroke-linecap="round"/>
<path d="M65.5748 288.408L74.2616 288.541" stroke="white" stroke-miterlimit="10" stroke-linecap="round"/>
<path d="M91.9914 280.182L101.168 280.226" stroke="white" stroke-miterlimit="10" stroke-linecap="round"/>
<path d="M91.9914 283.631L101.168 283.765" stroke="white" stroke-miterlimit="10" stroke-linecap="round"/>
<path d="M92.2141 287.169L100.901 287.303" stroke="white" stroke-miterlimit="10" stroke-linecap="round"/>
<path d="M145.894 223.13L141.216 240.865L68.2477 240.644C68.4259 240.467 68.515 240.378 68.515 240.378C69.985 232.594 71.8115 225.916 73.9052 220.167H143.577C145.136 220.123 146.295 221.626 145.894 223.13Z" fill="url(#paint80_linear_565_19)"/>
<path d="M88.383 215.258H77.9144V218.575H88.383V215.258Z" fill="url(#paint81_linear_565_19)"/>
<path d="M143.488 214.816H133.02V218.133H143.488V214.816Z" fill="url(#paint82_linear_565_19)"/>
<path d="M115.691 188.855C115.691 188.855 104.153 193.233 101.48 208.005" stroke="white" stroke-miterlimit="10" stroke-linecap="round"/>
<path d="M102.995 227.11L93.5506 233.744" stroke="white" stroke-miterlimit="10" stroke-linecap="round"/>
<path d="M110.568 227.11L101.124 233.744" stroke="white" stroke-miterlimit="10" stroke-linecap="round"/>
<path d="M119.343 227.11L109.899 233.744" stroke="white" stroke-miterlimit="10" stroke-linecap="round"/>
<path d="M154.67 245.907C154.67 246.968 155.07 247.897 155.739 248.605C155.65 249.843 155.026 250.948 154.001 251.656L146.963 256.698C146.562 257.007 145.938 256.698 145.983 256.167L146.116 250.506L146.161 248.118V247.941L146.428 235.646C146.428 230.737 147.72 222.688 150.883 222.6L155.783 222.688V230.162C155.115 230.87 154.714 231.843 154.714 232.904V245.907H154.67Z" fill="url(#paint83_linear_565_19)"/>
<path d="M163.134 232.949V245.863C163.134 248.074 161.352 249.843 159.124 249.843H158.679C157.521 249.843 156.451 249.356 155.739 248.56C155.07 247.853 154.67 246.88 154.67 245.863V232.949C154.67 231.887 155.07 230.958 155.739 230.207C156.451 229.411 157.521 228.968 158.679 228.968H159.124C161.352 228.968 163.134 230.737 163.134 232.949Z" fill="url(#paint84_linear_565_19)"/>
<path d="M154.67 243.032V244.712C153.912 244.889 153.289 245.331 152.442 245.951C151.329 246.747 150.66 248.427 149.591 249.312C148.522 250.196 147.497 250.86 146.116 250.594C146.161 249.798 146.161 249.135 146.161 248.206V248.029C147.542 248.25 149.057 247.631 149.903 246.437C150.304 245.862 150.527 245.199 150.838 244.58C151.15 243.96 151.64 243.386 152.353 243.209C152.932 243.032 153.6 243.209 154.224 243.164C154.402 243.076 154.536 243.076 154.67 243.032Z" fill="url(#paint85_linear_565_19)"/>
<path d="M165.227 243.563V227.597C165.227 226.89 165.806 226.359 166.519 226.359L167.989 226.403C169.727 226.403 171.152 227.818 171.152 229.543L171.82 242.634C171.865 243.784 170.974 244.757 169.816 244.757H166.475C165.762 244.757 165.227 244.226 165.227 243.563Z" fill="url(#paint86_linear_565_19)"/>
<path d="M151.952 308.309C151.952 308.309 151.818 305.567 151.596 301.72C151.596 298.978 151.418 296.324 151.061 293.936C150.705 289.557 150.259 285.179 149.769 282.393C148.789 276.82 146.517 277.174 143.978 281.199C143.176 282.526 142.285 284.206 141.439 286.196C138.454 293.272 137.385 305.567 137.162 308.928C137.118 309.459 137.118 309.769 137.118 309.769C137.118 309.769 131.059 309.901 124.912 309.946C120.324 309.99 115.646 309.99 113.374 309.901C111.548 309.813 110.345 309.503 109.543 309.105C108.028 308.354 107.984 307.381 107.984 307.381H58.9818L57.1554 309.105L56.6653 309.548C56.6653 309.548 56.3535 309.548 55.7744 309.503C53.3243 309.327 46.4194 308.84 42.4547 308.486C41.4747 308.398 40.6728 308.309 40.1828 308.265C37.2427 307.867 37.1536 303.975 40.1828 286.948C43.212 269.921 57.3781 269.169 57.3781 269.169L57.5563 281.022L57.6454 286.506L57.7345 291.68C57.7345 293.892 59.5164 295.661 61.7437 295.661H106.157C107.494 295.661 108.697 294.997 109.409 293.98C109.409 293.936 109.454 293.936 109.454 293.892C109.632 293.449 109.81 293.051 109.989 292.653C117.294 276.732 125.625 269.258 125.625 269.258C135.781 268.329 151.017 268.417 152.086 280.093C154.402 305.081 151.952 308.309 151.952 308.309Z" fill="url(#paint87_linear_565_19)"/>
<path d="M134.089 289.469L134.311 284.339C134.356 283.632 133.777 283.012 133.064 283.012C129.411 282.968 120.234 283.764 117.072 290.221C116.849 290.619 117.294 291.106 117.74 291.106L132.396 291.017C133.287 291.017 134.044 290.354 134.089 289.469Z" fill="url(#paint88_linear_565_19)"/>
<path d="M44.103 289.425L43.9248 284.516C43.9248 283.852 44.2812 283.277 44.8157 283.233C47.3995 283.189 53.9034 283.941 56.1308 290.132C56.2644 290.53 55.9971 290.973 55.6407 290.973L45.2612 290.929C44.6375 290.929 44.1475 290.265 44.103 289.425Z" fill="url(#paint89_linear_565_19)"/>
<path d="M104.821 303.445C106.174 303.445 107.271 302.356 107.271 301.013C107.271 299.669 106.174 298.58 104.821 298.58C103.468 298.58 102.371 299.669 102.371 301.013C102.371 302.356 103.468 303.445 104.821 303.445Z" fill="url(#paint90_linear_565_19)"/>
<path d="M60.7637 303.313C62.0185 303.313 63.0356 302.283 63.0356 301.013C63.0356 299.743 62.0185 298.713 60.7637 298.713C59.509 298.713 58.4918 299.743 58.4918 301.013C58.4918 302.283 59.509 303.313 60.7637 303.313Z" fill="url(#paint91_linear_565_19)"/>
<path d="M163.624 215.833V212.56C163.624 209.597 166.074 205.484 169.058 205.484C169.637 205.484 170.083 205.926 170.083 206.501V215.877C170.083 216.717 169.415 217.425 168.524 217.425H165.227C164.336 217.425 163.624 216.717 163.624 215.833Z" fill="url(#paint92_linear_565_19)"/>
<path d="M149.324 301.941C149.324 305.391 148.789 308.486 147.943 310.609C147.23 312.423 146.25 313.528 145.225 313.528C142.954 313.528 141.127 308.31 141.127 301.941C141.127 295.528 142.954 290.31 145.225 290.31C146.295 290.31 147.23 291.415 147.943 293.228C148.789 295.396 149.324 298.491 149.324 301.941Z" fill="url(#paint93_linear_565_19)"/>
<path d="M143.666 301.366C143.666 302.118 143.488 302.781 143.221 303.268C142.998 303.666 142.686 303.887 142.374 303.887C141.662 303.887 141.083 302.737 141.083 301.366C141.083 299.951 141.662 298.845 142.374 298.845C142.686 298.845 142.998 299.066 143.221 299.464C143.488 299.951 143.666 300.614 143.666 301.366Z" fill="#191943"/>
<path d="M144.112 322.241H131.683C128.609 322.241 125.981 317.199 124.867 309.99C131.015 309.946 137.073 309.813 137.073 309.813C137.073 309.813 137.073 309.504 137.118 308.973C138.187 316.713 140.904 322.241 144.112 322.241Z" fill="url(#paint94_linear_565_19)"/>
<path d="M70.4305 309.15C69.985 312.113 69.2277 314.767 68.3367 316.845C66.9558 320.074 65.0848 322.02 63.0802 322.02C59.8282 322.02 57.0217 316.889 55.8189 309.548C56.3535 309.592 56.7099 309.592 56.7099 309.592L57.1999 309.15H70.4305Z" fill="url(#paint95_linear_565_19)"/>
<path d="M63.0801 322.064L50.9187 321.843C45.6621 321.578 42.4993 316.447 42.4993 308.575C46.464 308.929 53.3688 309.415 55.8189 309.592C57.0217 316.89 59.8282 322.064 63.0801 322.064Z" fill="url(#paint96_linear_565_19)"/>
<path d="M109.499 309.15H57.1554L58.9818 307.425H107.895C107.895 307.47 107.939 308.443 109.499 309.15Z" fill="url(#paint97_linear_565_19)"/>
<path d="M153.912 272V267.843C153.912 267.135 154.491 266.56 155.204 266.56H155.293C156.006 266.56 156.585 267.135 156.585 267.843V272C156.585 272.707 156.006 273.282 155.293 273.282H155.204C154.491 273.282 153.912 272.707 153.912 272Z" fill="url(#paint98_linear_565_19)"/>
<path d="M165.227 290.133V285.975C165.227 285.268 165.806 284.693 166.519 284.693H166.608C167.321 284.693 167.9 285.268 167.9 285.975V290.133C167.9 290.84 167.321 291.415 166.608 291.415H166.519C165.806 291.415 165.227 290.84 165.227 290.133Z" fill="url(#paint99_linear_565_19)"/>
<path d="M118.542 302.074L132.619 301.543" stroke="white" stroke-miterlimit="10" stroke-linecap="round"/>
<path d="M43.0338 301.808H50.9187" stroke="white" stroke-miterlimit="10" stroke-linecap="round"/>
<path d="M67.4013 310.654C67.4013 313.219 65.4857 315.297 63.1247 315.297C60.7637 315.297 58.8482 313.219 58.8482 310.654C58.8482 310.123 58.9373 309.636 59.0709 309.15H67.1785C67.3122 309.636 67.4013 310.123 67.4013 310.654Z" fill="#191943"/>
</g>
<defs>
<linearGradient id="paint0_linear_565_19" x1="4.13839" y1="7.38754" x2="477.176" y2="481.073" gradientUnits="userSpaceOnUse">
<stop stop-color="#171932"/>
<stop offset="1" stop-color="#131645" stop-opacity="0"/>
</linearGradient>
<linearGradient id="paint1_linear_565_19" x1="316.331" y1="236.893" x2="286.913" y2="238.127" gradientUnits="userSpaceOnUse">
<stop stop-color="#3D3F6F"/>
<stop offset="1" stop-color="#191943"/>
</linearGradient>
<linearGradient id="paint2_linear_565_19" x1="290.334" y1="252.7" x2="299.911" y2="252.7" gradientUnits="userSpaceOnUse">
<stop stop-color="#3D3F6F"/>
<stop offset="1" stop-color="#191943"/>
</linearGradient>
<linearGradient id="paint3_linear_565_19" x1="313.645" y1="235.9" x2="392.717" y2="235.9" gradientUnits="userSpaceOnUse">
<stop stop-color="#735AFF" stop-opacity="0.2"/>
<stop offset="1" stop-color="#8598FA"/>
</linearGradient>
<linearGradient id="paint4_linear_565_19" x1="295.318" y1="296.15" x2="318.305" y2="296.15" gradientUnits="userSpaceOnUse">
<stop stop-color="#3D3F6F"/>
<stop offset="1" stop-color="#191943"/>
</linearGradient>
<linearGradient id="paint5_linear_565_19" x1="361.342" y1="299.29" x2="441.983" y2="299.29" gradientUnits="userSpaceOnUse">
<stop stop-color="#F1F6FF"/>
<stop offset="1" stop-color="#B1C3E8"/>
</linearGradient>
<linearGradient id="paint6_linear_565_19" x1="350.53" y1="282.158" x2="378.988" y2="285.998" gradientUnits="userSpaceOnUse">
<stop stop-color="#F1F6FF"/>
<stop offset="1" stop-color="#B1C3E8"/>
</linearGradient>
<linearGradient id="paint7_linear_565_19" x1="411.704" y1="224.137" x2="327.805" y2="204.09" gradientUnits="userSpaceOnUse">
<stop stop-color="#3D3F6F"/>
<stop offset="1" stop-color="#191943"/>
</linearGradient>
<linearGradient id="paint8_linear_565_19" x1="330.24" y1="191.723" x2="376.124" y2="191.723" gradientUnits="userSpaceOnUse">
<stop stop-color="#735AFF" stop-opacity="0.2"/>
<stop offset="1" stop-color="#8598FA"/>
</linearGradient>
<linearGradient id="paint9_linear_565_19" x1="346.655" y1="195.98" x2="355.342" y2="195.98" gradientUnits="userSpaceOnUse">
<stop stop-color="#735AFF" stop-opacity="0.2"/>
<stop offset="1" stop-color="#8598FA"/>
</linearGradient>
<linearGradient id="paint10_linear_565_19" x1="321.445" y1="308.155" x2="354.188" y2="308.155" gradientUnits="userSpaceOnUse">
<stop stop-color="#3D3F6F"/>
<stop offset="1" stop-color="#191943"/>
</linearGradient>
<linearGradient id="paint11_linear_565_19" x1="326.747" y1="307.925" x2="342.338" y2="307.925" gradientUnits="userSpaceOnUse">
<stop stop-color="#3D3F6F"/>
<stop offset="1" stop-color="#191943"/>
</linearGradient>
<linearGradient id="paint12_linear_565_19" x1="328.417" y1="308.422" x2="339.554" y2="308.422" gradientUnits="userSpaceOnUse">
<stop stop-color="#F1F6FF"/>
<stop offset="1" stop-color="#B1C3E8"/>
</linearGradient>
<linearGradient id="paint13_linear_565_19" x1="331.647" y1="308.343" x2="333.986" y2="308.343" gradientUnits="userSpaceOnUse">
<stop stop-color="#3D3F6F"/>
<stop offset="1" stop-color="#191943"/>
</linearGradient>
<linearGradient id="paint14_linear_565_19" x1="318.385" y1="285.468" x2="361.342" y2="285.468" gradientUnits="userSpaceOnUse">
<stop stop-color="#735AFF" stop-opacity="0.2"/>
<stop offset="1" stop-color="#8598FA"/>
</linearGradient>
<linearGradient id="paint15_linear_565_19" x1="318.385" y1="257.602" x2="436.128" y2="257.602" gradientUnits="userSpaceOnUse">
<stop stop-color="#F1F6FF"/>
<stop offset="1" stop-color="#B1C3E8"/>
</linearGradient>
<linearGradient id="paint16_linear_565_19" x1="329.504" y1="247.446" x2="358.23" y2="247.446" gradientUnits="userSpaceOnUse">
<stop stop-color="#85A1E9" stop-opacity="0.39"/>
<stop offset="1" stop-color="#7B8ADC"/>
</linearGradient>
<linearGradient id="paint17_linear_565_19" x1="344.41" y1="258.436" x2="351.248" y2="258.436" gradientUnits="userSpaceOnUse">
<stop stop-color="#3D3F6F"/>
<stop offset="1" stop-color="#191943"/>
</linearGradient>
<linearGradient id="paint18_linear_565_19" x1="336.724" y1="245.942" x2="349.556" y2="245.942" gradientUnits="userSpaceOnUse">
<stop stop-color="#F1F6FF"/>
<stop offset="1" stop-color="#B1C3E8"/>
</linearGradient>
<linearGradient id="paint19_linear_565_19" x1="359.979" y1="245.845" x2="435.709" y2="245.845" gradientUnits="userSpaceOnUse">
<stop stop-color="#85A1E9" stop-opacity="0.39"/>
<stop offset="1" stop-color="#7B8ADC"/>
</linearGradient>
<linearGradient id="paint20_linear_565_19" x1="363.388" y1="245.701" x2="432.993" y2="245.701" gradientUnits="userSpaceOnUse">
<stop stop-color="#F1F6FF"/>
<stop offset="1" stop-color="#B1C3E8"/>
</linearGradient>
<linearGradient id="paint21_linear_565_19" x1="376.742" y1="279.079" x2="436.128" y2="279.079" gradientUnits="userSpaceOnUse">
<stop stop-color="#735AFF" stop-opacity="0.2"/>
<stop offset="1" stop-color="#8598FA"/>
</linearGradient>
<linearGradient id="paint22_linear_565_19" x1="385.933" y1="285.083" x2="430.643" y2="285.083" gradientUnits="userSpaceOnUse">
<stop stop-color="#F1F6FF"/>
<stop offset="1" stop-color="#B1C3E8"/>
</linearGradient>
<linearGradient id="paint23_linear_565_19" x1="435.611" y1="258.756" x2="438.922" y2="258.756" gradientUnits="userSpaceOnUse">
<stop stop-color="#3D3F6F"/>
<stop offset="1" stop-color="#191943"/>
</linearGradient>
<linearGradient id="paint24_linear_565_19" x1="434.524" y1="246.417" x2="441.331" y2="246.417" gradientUnits="userSpaceOnUse">
<stop stop-color="#F1F6FF"/>
<stop offset="1" stop-color="#B1C3E8"/>
</linearGradient>
<linearGradient id="paint25_linear_565_19" x1="399.373" y1="300.001" x2="404.718" y2="300.001" gradientUnits="userSpaceOnUse">
<stop stop-color="#735AFF" stop-opacity="0.2"/>
<stop offset="1" stop-color="#8598FA"/>
</linearGradient>
<linearGradient id="paint26_linear_565_19" x1="417.637" y1="299.67" x2="422.983" y2="299.67" gradientUnits="userSpaceOnUse">
<stop stop-color="#735AFF" stop-opacity="0.2"/>
<stop offset="1" stop-color="#8598FA"/>
</linearGradient>
<linearGradient id="paint27_linear_565_19" x1="407.263" y1="300.001" x2="415.504" y2="300.001" gradientUnits="userSpaceOnUse">
<stop stop-color="#735AFF" stop-opacity="0.2"/>
<stop offset="1" stop-color="#8598FA"/>
</linearGradient>
<linearGradient id="paint28_linear_565_19" x1="354.067" y1="307.662" x2="385.901" y2="307.662" gradientUnits="userSpaceOnUse">
<stop stop-color="#3D3F6F"/>
<stop offset="1" stop-color="#191943"/>
</linearGradient>
<linearGradient id="paint29_linear_565_19" x1="385.674" y1="315.103" x2="418.416" y2="315.103" gradientUnits="userSpaceOnUse">
<stop stop-color="#3D3F6F"/>
<stop offset="1" stop-color="#191943"/>
</linearGradient>
<linearGradient id="paint30_linear_565_19" x1="389.696" y1="311.925" x2="411.369" y2="311.925" gradientUnits="userSpaceOnUse">
<stop stop-color="#3D3F6F"/>
<stop offset="1" stop-color="#191943"/>
</linearGradient>
<linearGradient id="paint31_linear_565_19" x1="385.674" y1="311.925" x2="418.416" y2="311.925" gradientUnits="userSpaceOnUse">
<stop stop-color="#F1F6FF"/>
<stop offset="1" stop-color="#B1C3E8"/>
</linearGradient>
<linearGradient id="paint32_linear_565_19" x1="377.749" y1="311.73" x2="387.304" y2="311.73" gradientUnits="userSpaceOnUse">
<stop stop-color="#3D3F6F"/>
<stop offset="1" stop-color="#191943"/>
</linearGradient>
<linearGradient id="paint33_linear_565_19" x1="309.988" y1="289.275" x2="327.908" y2="298.915" gradientUnits="userSpaceOnUse">
<stop stop-color="#3D3F6F"/>
<stop offset="1" stop-color="#191943"/>
</linearGradient>
<linearGradient id="paint34_linear_565_19" x1="397.808" y1="306.952" x2="401.662" y2="306.952" gradientUnits="userSpaceOnUse">
<stop stop-color="#3D3F6F"/>
<stop offset="1" stop-color="#191943"/>
</linearGradient>
<linearGradient id="paint35_linear_565_19" x1="305.798" y1="343.592" x2="168.282" y2="132.153" gradientUnits="userSpaceOnUse">
<stop stop-color="#735AFF" stop-opacity="0.2"/>
<stop offset="1" stop-color="#8598FA"/>
</linearGradient>
<linearGradient id="paint36_linear_565_19" x1="188.837" y1="198.396" x2="287.983" y2="198.396" gradientUnits="userSpaceOnUse">
<stop stop-color="#3D3F6F"/>
<stop offset="1" stop-color="#191943"/>
</linearGradient>
<linearGradient id="paint37_linear_565_19" x1="188.856" y1="285.64" x2="199.766" y2="285.64" gradientUnits="userSpaceOnUse">
<stop stop-color="#F1F6FF"/>
<stop offset="1" stop-color="#B1C3E8"/>
</linearGradient>
<linearGradient id="paint38_linear_565_19" x1="186.226" y1="300.918" x2="205.134" y2="300.918" gradientUnits="userSpaceOnUse">
<stop stop-color="#85A1E9" stop-opacity="0.39"/>
<stop offset="1" stop-color="#7B8ADC"/>
</linearGradient>
<linearGradient id="paint39_linear_565_19" x1="277.073" y1="286.283" x2="287.983" y2="286.283" gradientUnits="userSpaceOnUse">
<stop stop-color="#F1F6FF"/>
<stop offset="1" stop-color="#B1C3E8"/>
</linearGradient>
<linearGradient id="paint40_linear_565_19" x1="275.119" y1="298.761" x2="294.902" y2="305.951" gradientUnits="userSpaceOnUse">
<stop stop-color="#85A1E9" stop-opacity="0.39"/>
<stop offset="1" stop-color="#7B8ADC"/>
</linearGradient>
<linearGradient id="paint41_linear_565_19" x1="181.985" y1="317.854" x2="201.364" y2="317.854" gradientUnits="userSpaceOnUse">
<stop stop-color="#3D3F6F"/>
<stop offset="1" stop-color="#191943"/>
</linearGradient>
<linearGradient id="paint42_linear_565_19" x1="275.94" y1="318.143" x2="295.318" y2="318.143" gradientUnits="userSpaceOnUse">
<stop stop-color="#191943"/>
<stop offset="1" stop-color="#3D3F6F"/>
</linearGradient>
<linearGradient id="paint43_linear_565_19" x1="199.766" y1="290.328" x2="277.158" y2="290.328" gradientUnits="userSpaceOnUse">
<stop stop-color="#735AFF" stop-opacity="0.2"/>
<stop offset="1" stop-color="#8598FA"/>
</linearGradient>
<linearGradient id="paint44_linear_565_19" x1="199.766" y1="264.549" x2="277.073" y2="264.549" gradientUnits="userSpaceOnUse">
<stop stop-color="#F1F6FF"/>
<stop offset="1" stop-color="#B1C3E8"/>
</linearGradient>
<linearGradient id="paint45_linear_565_19" x1="206.563" y1="285.872" x2="270.704" y2="285.872" gradientUnits="userSpaceOnUse">
<stop stop-color="#F1F6FF"/>
<stop offset="1" stop-color="#B1C3E8"/>
</linearGradient>
<linearGradient id="paint46_linear_565_19" x1="211.433" y1="297.518" x2="266.27" y2="297.518" gradientUnits="userSpaceOnUse">
<stop stop-color="#F1F6FF"/>
<stop offset="1" stop-color="#B1C3E8"/>
</linearGradient>
<linearGradient id="paint47_linear_565_19" x1="207.539" y1="262.36" x2="269.237" y2="262.36" gradientUnits="userSpaceOnUse">
<stop stop-color="#735AFF" stop-opacity="0.2"/>
<stop offset="1" stop-color="#8598FA"/>
</linearGradient>
<linearGradient id="paint48_linear_565_19" x1="212.132" y1="260.08" x2="264.726" y2="260.08" gradientUnits="userSpaceOnUse">
<stop stop-color="#735AFF" stop-opacity="0.2"/>
<stop offset="1" stop-color="#8598FA"/>
</linearGradient>
<linearGradient id="paint49_linear_565_19" x1="212.132" y1="262.36" x2="264.726" y2="262.36" gradientUnits="userSpaceOnUse">
<stop stop-color="#735AFF" stop-opacity="0.2"/>
<stop offset="1" stop-color="#8598FA"/>
</linearGradient>
<linearGradient id="paint50_linear_565_19" x1="212.132" y1="264.549" x2="264.726" y2="264.549" gradientUnits="userSpaceOnUse">
<stop stop-color="#735AFF" stop-opacity="0.2"/>
<stop offset="1" stop-color="#8598FA"/>
</linearGradient>
<linearGradient id="paint51_linear_565_19" x1="196.449" y1="161.421" x2="275.653" y2="275.741" gradientUnits="userSpaceOnUse">
<stop stop-color="#F1F6FF"/>
<stop offset="1" stop-color="#B1C3E8"/>
</linearGradient>
<linearGradient id="paint52_linear_565_19" x1="187.781" y1="242.649" x2="288.48" y2="242.649" gradientUnits="userSpaceOnUse">
<stop stop-color="#735AFF" stop-opacity="0.2"/>
<stop offset="1" stop-color="#8598FA"/>
</linearGradient>
<linearGradient id="paint53_linear_565_19" x1="198.067" y1="248.604" x2="279.362" y2="248.604" gradientUnits="userSpaceOnUse">
<stop stop-color="#85A1E9" stop-opacity="0.39"/>
<stop offset="1" stop-color="#7B8ADC"/>
</linearGradient>
<linearGradient id="paint54_linear_565_19" x1="202.819" y1="169.836" x2="210.614" y2="169.836" gradientUnits="userSpaceOnUse">
<stop stop-color="#85A1E9" stop-opacity="0.39"/>
<stop offset="1" stop-color="#7B8ADC"/>
</linearGradient>
<linearGradient id="paint55_linear_565_19" x1="266.855" y1="169.504" x2="274.651" y2="169.504" gradientUnits="userSpaceOnUse">
<stop stop-color="#85A1E9" stop-opacity="0.39"/>
<stop offset="1" stop-color="#7B8ADC"/>
</linearGradient>
<linearGradient id="paint56_linear_565_19" x1="290.356" y1="223.57" x2="302.785" y2="223.57" gradientUnits="userSpaceOnUse">
<stop stop-color="#85A1E9" stop-opacity="0.39"/>
<stop offset="1" stop-color="#7B8ADC"/>
</linearGradient>
<linearGradient id="paint57_linear_565_19" x1="294.854" y1="214.337" x2="298.752" y2="214.337" gradientUnits="userSpaceOnUse">
<stop stop-color="#F1F6FF"/>
<stop offset="1" stop-color="#B1C3E8"/>
</linearGradient>
<linearGradient id="paint58_linear_565_19" x1="290.399" y1="215.665" x2="294.825" y2="215.665" gradientUnits="userSpaceOnUse">
<stop stop-color="#3D3F6F"/>
<stop offset="1" stop-color="#191943"/>
</linearGradient>
<linearGradient id="paint59_linear_565_19" x1="283.935" y1="227.195" x2="290.46" y2="224.73" gradientUnits="userSpaceOnUse">
<stop stop-color="#3D3F6F"/>
<stop offset="1" stop-color="#191943"/>
</linearGradient>
<linearGradient id="paint60_linear_565_19" x1="192.267" y1="275.76" x2="32.1763" y2="193.287" gradientUnits="userSpaceOnUse">
<stop stop-color="#735AFF" stop-opacity="0.2"/>
<stop offset="1" stop-color="#8598FA"/>
</linearGradient>
<linearGradient id="paint61_linear_565_19" x1="196.122" y1="268.277" x2="36.0313" y2="185.803" gradientUnits="userSpaceOnUse">
<stop stop-color="#735AFF" stop-opacity="0.2"/>
<stop offset="1" stop-color="#8598FA"/>
</linearGradient>
<linearGradient id="paint62_linear_565_19" x1="179.367" y1="300.8" x2="19.2766" y2="218.327" gradientUnits="userSpaceOnUse">
<stop stop-color="#735AFF" stop-opacity="0.2"/>
<stop offset="1" stop-color="#8598FA"/>
</linearGradient>
<linearGradient id="paint63_linear_565_19" x1="174.619" y1="223.643" x2="187.047" y2="223.643" gradientUnits="userSpaceOnUse">
<stop stop-color="#85A1E9" stop-opacity="0.39"/>
<stop offset="1" stop-color="#7B8ADC"/>
</linearGradient>
<linearGradient id="paint64_linear_565_19" x1="178.652" y1="214.41" x2="182.549" y2="214.41" gradientUnits="userSpaceOnUse">
<stop stop-color="#F1F6FF"/>
<stop offset="1" stop-color="#B1C3E8"/>
</linearGradient>
<linearGradient id="paint65_linear_565_19" x1="182.578" y1="215.738" x2="187.004" y2="215.738" gradientUnits="userSpaceOnUse">
<stop stop-color="#3D3F6F"/>
<stop offset="1" stop-color="#191943"/>
</linearGradient>
<linearGradient id="paint66_linear_565_19" x1="184.409" y1="224.787" x2="187.069" y2="224.787" gradientUnits="userSpaceOnUse">
<stop stop-color="#3D3F6F"/>
<stop offset="1" stop-color="#191943"/>
</linearGradient>
<linearGradient id="paint67_linear_565_19" x1="318.305" y1="293.512" x2="361.342" y2="293.512" gradientUnits="userSpaceOnUse">
<stop stop-color="#85A1E9" stop-opacity="0.39"/>
<stop offset="1" stop-color="#7B8ADC"/>
</linearGradient>
<linearGradient id="paint68_linear_565_19" x1="329.504" y1="215.448" x2="368.118" y2="215.448" gradientUnits="userSpaceOnUse">
<stop stop-color="#85A1E9" stop-opacity="0.39"/>
<stop offset="1" stop-color="#7B8ADC"/>
</linearGradient>
<linearGradient id="paint69_linear_565_19" x1="325.633" y1="270.901" x2="333.986" y2="270.901" gradientUnits="userSpaceOnUse">
<stop stop-color="#F1F6FF"/>
<stop offset="1" stop-color="#B1C3E8"/>
</linearGradient>
<linearGradient id="paint70_linear_565_19" x1="273.07" y1="284.584" x2="292.978" y2="284.584" gradientUnits="userSpaceOnUse">
<stop stop-color="#735AFF" stop-opacity="0.2"/>
<stop offset="1" stop-color="#8598FA"/>
</linearGradient>
<linearGradient id="paint71_linear_565_19" x1="137.117" y1="301.724" x2="151.564" y2="301.724" gradientUnits="userSpaceOnUse">
<stop stop-color="#3D3F6F"/>
<stop offset="1" stop-color="#191943"/>
</linearGradient>
<linearGradient id="paint72_linear_565_19" x1="183.209" y1="283.794" x2="203.773" y2="283.794" gradientUnits="userSpaceOnUse">
<stop stop-color="#735AFF" stop-opacity="0.2"/>
<stop offset="1" stop-color="#8598FA"/>
</linearGradient>
<linearGradient id="paint73_linear_565_19" x1="57.7697" y1="249.405" x2="140.646" y2="249.405" gradientUnits="userSpaceOnUse">
<stop stop-color="#85A1E9" stop-opacity="0.39"/>
<stop offset="1" stop-color="#7B8ADC"/>
</linearGradient>
<linearGradient id="paint74_linear_565_19" x1="77.4746" y1="255.501" x2="89.5024" y2="255.501" gradientUnits="userSpaceOnUse">
<stop stop-color="#3D3F6F"/>
<stop offset="1" stop-color="#191943"/>
</linearGradient>
<linearGradient id="paint75_linear_565_19" x1="57.4221" y1="276.297" x2="110.565" y2="276.297" gradientUnits="userSpaceOnUse">
<stop stop-color="#F1F6FF"/>
<stop offset="1" stop-color="#B1C3E8"/>
</linearGradient>
<linearGradient id="paint76_linear_565_19" x1="60.0558" y1="267.52" x2="79.8184" y2="267.52" gradientUnits="userSpaceOnUse">
<stop stop-color="#85A1E9" stop-opacity="0.39"/>
<stop offset="1" stop-color="#7B8ADC"/>
</linearGradient>
<linearGradient id="paint77_linear_565_19" x1="87.0069" y1="267.52" x2="107.833" y2="267.52" gradientUnits="userSpaceOnUse">
<stop stop-color="#85A1E9" stop-opacity="0.39"/>
<stop offset="1" stop-color="#7B8ADC"/>
</linearGradient>
<linearGradient id="paint78_linear_565_19" x1="60.5534" y1="283.71" x2="78.8178" y2="283.71" gradientUnits="userSpaceOnUse">
<stop stop-color="#85A1E9" stop-opacity="0.39"/>
<stop offset="1" stop-color="#7B8ADC"/>
</linearGradient>
<linearGradient id="paint79_linear_565_19" x1="87.0069" y1="283.047" x2="107.276" y2="283.047" gradientUnits="userSpaceOnUse">
<stop stop-color="#85A1E9" stop-opacity="0.39"/>
<stop offset="1" stop-color="#7B8ADC"/>
</linearGradient>
<linearGradient id="paint80_linear_565_19" x1="68.2561" y1="230.505" x2="145.978" y2="230.505" gradientUnits="userSpaceOnUse">
<stop stop-color="#F1F6FF"/>
<stop offset="1" stop-color="#B1C3E8"/>
</linearGradient>
<linearGradient id="paint81_linear_565_19" x1="77.9144" y1="216.923" x2="88.383" y2="216.923" gradientUnits="userSpaceOnUse">
<stop stop-color="#85A1E9" stop-opacity="0.39"/>
<stop offset="1" stop-color="#7B8ADC"/>
</linearGradient>
<linearGradient id="paint82_linear_565_19" x1="133.042" y1="216.481" x2="143.51" y2="216.481" gradientUnits="userSpaceOnUse">
<stop stop-color="#85A1E9" stop-opacity="0.39"/>
<stop offset="1" stop-color="#7B8ADC"/>
</linearGradient>
<linearGradient id="paint83_linear_565_19" x1="146.004" y1="239.735" x2="155.778" y2="239.735" gradientUnits="userSpaceOnUse">
<stop stop-color="#3D3F6F"/>
<stop offset="1" stop-color="#191943"/>
</linearGradient>
<linearGradient id="paint84_linear_565_19" x1="154.691" y1="239.423" x2="163.155" y2="239.423" gradientUnits="userSpaceOnUse">
<stop stop-color="#F1F6FF"/>
<stop offset="1" stop-color="#B1C3E8"/>
</linearGradient>
<linearGradient id="paint85_linear_565_19" x1="147.31" y1="242.019" x2="148.776" y2="244.31" gradientUnits="userSpaceOnUse">
<stop stop-color="#3D3F6F"/>
<stop offset="1" stop-color="#191943"/>
</linearGradient>
<linearGradient id="paint86_linear_565_19" x1="165.222" y1="235.567" x2="171.799" y2="235.567" gradientUnits="userSpaceOnUse">
<stop stop-color="#3D3F6F"/>
<stop offset="1" stop-color="#191943"/>
</linearGradient>
<linearGradient id="paint87_linear_565_19" x1="122.466" y1="297.979" x2="11.9626" y2="266.221" gradientUnits="userSpaceOnUse">
<stop stop-color="#735AFF" stop-opacity="0.2"/>
<stop offset="1" stop-color="#8598FA"/>
</linearGradient>
<linearGradient id="paint88_linear_565_19" x1="142.173" y1="284.646" x2="94.6039" y2="295.134" gradientUnits="userSpaceOnUse">
<stop stop-color="#735AFF" stop-opacity="0.2"/>
<stop offset="1" stop-color="#8598FA"/>
</linearGradient>
<linearGradient id="paint89_linear_565_19" x1="43.9465" y1="287.142" x2="56.197" y2="287.142" gradientUnits="userSpaceOnUse">
<stop stop-color="#735AFF" stop-opacity="0.2"/>
<stop offset="1" stop-color="#8598FA"/>
</linearGradient>
<linearGradient id="paint90_linear_565_19" x1="102.366" y1="301.032" x2="107.276" y2="301.032" gradientUnits="userSpaceOnUse">
<stop stop-color="#85A1E9" stop-opacity="0.39"/>
<stop offset="1" stop-color="#7B8ADC"/>
</linearGradient>
<linearGradient id="paint91_linear_565_19" x1="58.4854" y1="301.033" x2="63.0515" y2="301.033" gradientUnits="userSpaceOnUse">
<stop stop-color="#85A1E9" stop-opacity="0.39"/>
<stop offset="1" stop-color="#7B8ADC"/>
</linearGradient>
<linearGradient id="paint92_linear_565_19" x1="163.619" y1="211.445" x2="170.078" y2="211.445" gradientUnits="userSpaceOnUse">
<stop stop-color="#3D3F6F"/>
<stop offset="1" stop-color="#191943"/>
</linearGradient>
<linearGradient id="paint93_linear_565_19" x1="141.091" y1="301.937" x2="149.332" y2="301.937" gradientUnits="userSpaceOnUse">
<stop stop-color="#3D3F6F"/>
<stop offset="1" stop-color="#090928"/>
</linearGradient>
<linearGradient id="paint94_linear_565_19" x1="134.105" y1="315.539" x2="136.222" y2="322.545" gradientUnits="userSpaceOnUse">
<stop stop-color="#3D3F6F"/>
<stop offset="1" stop-color="#191943"/>
</linearGradient>
<linearGradient id="paint95_linear_565_19" x1="55.8184" y1="315.605" x2="70.4255" y2="315.605" gradientUnits="userSpaceOnUse">
<stop stop-color="#3D3F6F"/>
<stop offset="1" stop-color="#191943"/>
</linearGradient>
<linearGradient id="paint96_linear_565_19" x1="42.5077" y1="315.293" x2="63.0885" y2="315.293" gradientUnits="userSpaceOnUse">
<stop stop-color="#3D3F6F"/>
<stop offset="1" stop-color="#191943"/>
</linearGradient>
<linearGradient id="paint97_linear_565_19" x1="57.1771" y1="308.305" x2="109.48" y2="308.305" gradientUnits="userSpaceOnUse">
<stop stop-color="#3D3F6F"/>
<stop offset="1" stop-color="#191943"/>
</linearGradient>
<linearGradient id="paint98_linear_565_19" x1="153.894" y1="269.915" x2="156.567" y2="269.915" gradientUnits="userSpaceOnUse">
<stop stop-color="#F1F6FF"/>
<stop offset="1" stop-color="#B1C3E8"/>
</linearGradient>
<linearGradient id="paint99_linear_565_19" x1="165.222" y1="288.048" x2="167.895" y2="288.048" gradientUnits="userSpaceOnUse">
<stop stop-color="#F1F6FF"/>
<stop offset="1" stop-color="#B1C3E8"/>
</linearGradient>
<clipPath id="clip0_565_19">
<rect width="404" height="162" fill="white" transform="translate(38 164)"/>
</clipPath>
</defs>
</svg>
