<svg width="206" height="207" viewBox="0 0 206 207" fill="none" xmlns="http://www.w3.org/2000/svg">
<rect x="37" y="38" width="131" height="131" rx="28" fill="#065353"/>
<g filter="url(#filter0_f_362_146)">
<circle cx="102.95" cy="103.604" r="49.95" fill="#58FFC3" fill-opacity="0.31"/>
</g>
<path d="M88.4764 67.6046C88.6715 67.2685 89.0436 67.0759 89.4307 67.1107L156.832 73.1639C158.322 73.2978 159.143 74.9617 158.342 76.2261L140.524 104.356C140.093 105.035 139.298 105.391 138.504 105.258L133.899 104.487C133.078 104.35 132.257 104.736 131.839 105.456L125.158 116.97C124.788 117.606 125.21 118.41 125.943 118.469L133.086 119.036L116.521 148.502C116.328 148.845 115.952 149.043 115.56 149.008L49.5943 143.083C47.4085 142.887 46.1663 140.487 47.2681 138.589L88.4764 67.6046Z" fill="url(#paint0_linear_362_146)"/>
<path fill-rule="evenodd" clip-rule="evenodd" d="M75.5633 89.8486L75.7186 89.581C75.8139 89.4956 75.9418 89.4466 76.0797 89.4542L137.797 92.8544C137.812 92.8552 137.827 92.8567 137.841 92.8587L143.621 82.5526L135.07 81.4546L138.843 71.5486L139.878 71.6415L136.456 80.6244L145.218 81.7495L135.697 98.7253L142.804 99.9506C142.973 99.9796 143.107 100.089 143.173 100.233L142.725 100.943C142.695 100.944 142.665 100.941 142.635 100.936L134.133 99.4703L137.297 93.8284L88.8537 91.1595C88.8434 91.2133 88.8241 91.2664 88.795 91.3166L83.892 99.7817L71.3138 99.366C71.0378 99.3569 70.8214 99.1258 70.8306 98.8498C70.8397 98.5738 71.0708 98.3574 71.3468 98.3666L83.3267 98.7625L87.7651 91.0995L76.0247 90.4527C75.749 90.4375 75.5378 90.2016 75.553 89.9259C75.5544 89.8995 75.5579 89.8737 75.5633 89.8486ZM60.1155 144.028L59.0059 143.929L68.0384 129.063L54.8563 127.107C54.5831 127.066 54.3945 126.812 54.4351 126.539C54.4756 126.266 54.7299 126.077 55.003 126.118L68.6464 128.142L73.6385 118.957L60.6964 116.932C60.4236 116.889 60.237 116.634 60.2797 116.361C60.3224 116.088 60.5782 115.901 60.851 115.944L75.1944 118.188L69.1912 129.234L69.1118 129.222L60.1155 144.028ZM118.475 145.026L117.953 145.955L90.8712 141.633L94.4443 132.03C94.4564 131.996 94.4721 131.963 94.4909 131.933C94.5672 131.809 94.6926 131.727 94.8312 131.703C94.8831 131.694 94.9369 131.693 94.9906 131.701L123.924 135.334L123.395 136.275L95.2467 132.741L92.2341 140.838L118.475 145.026ZM133.385 71.0584L134.442 71.1533L128.941 83.1357L102.213 80.9113L107.347 69.4606C107.46 69.2086 107.756 69.0959 108.008 69.2089C108.26 69.3219 108.373 69.6178 108.26 69.8697L103.703 80.0319L128.325 82.081L133.385 71.0584ZM61.3058 119.733C61.359 119.462 61.6219 119.285 61.8928 119.338L67.2408 120.389C67.5118 120.442 67.6883 120.705 67.635 120.976C67.5818 121.247 67.319 121.424 67.048 121.37L61.7001 120.32C61.4291 120.266 61.2526 120.004 61.3058 119.733ZM60.3844 122.535C60.1131 122.484 59.8513 122.662 59.7996 122.933C59.7479 123.204 59.9259 123.466 60.1971 123.518L65.6317 124.553C65.903 124.605 66.1648 124.427 66.2165 124.156C66.2682 123.885 66.0902 123.623 65.819 123.571L60.3844 122.535ZM113.132 73.3441C113.388 73.2398 113.68 73.3625 113.784 73.6182L115.619 78.1186C115.724 78.3743 115.601 78.6661 115.345 78.7704C115.09 78.8746 114.798 78.7519 114.693 78.4962L112.858 73.9958C112.754 73.7402 112.877 73.4483 113.132 73.3441ZM117.938 72.9026C117.829 72.6488 117.535 72.5312 117.282 72.6399C117.028 72.7487 116.91 73.0426 117.019 73.2964L118.941 77.7821C119.05 78.0359 119.344 78.1535 119.597 78.0447C119.851 77.936 119.969 77.642 119.86 77.3882L117.938 72.9026ZM99.705 134.441C99.5265 134.085 99.0225 134.07 98.8241 134.417C97.8542 136.109 96.9877 137.872 96.1294 139.618L96.1258 139.625C95.9814 139.918 96.1534 140.269 96.474 140.335C98.1619 140.681 100.003 140.908 101.733 141.062C102.093 141.094 102.367 140.746 102.25 140.404C101.526 138.268 100.656 136.342 99.705 134.441ZM101.046 139.993C99.7971 139.867 98.5204 139.701 97.3119 139.479C97.9355 138.213 98.5612 136.959 99.2295 135.739C99.8946 137.114 100.507 138.507 101.046 139.993ZM147.767 74.0668C146.269 74.3217 145.262 75.7425 145.517 77.2402C145.772 78.7379 147.192 79.7454 148.69 79.4906C150.188 79.2357 151.195 77.8149 150.94 76.3172C150.686 74.8195 149.265 73.812 147.767 74.0668ZM144.531 77.408C144.183 75.3658 145.557 73.4286 147.599 73.081C149.641 72.7335 151.579 74.1073 151.926 76.1494C152.274 78.1916 150.9 80.1289 148.858 80.4764C146.816 80.8239 144.878 79.4502 144.531 77.408Z" fill="white" fill-opacity="0.2"/>
<path d="M112.905 142.568C112.525 142.495 112.209 142.354 111.955 142.145C111.789 142.007 111.641 141.836 111.51 141.634C111.39 141.449 111.45 141.208 111.625 141.074V141.074C111.864 140.892 112.208 140.989 112.396 141.223C112.429 141.264 112.463 141.303 112.499 141.34C112.666 141.504 112.877 141.611 113.132 141.66C113.391 141.71 113.607 141.691 113.778 141.603C113.95 141.514 114.056 141.364 114.097 141.151C114.13 140.981 114.113 140.834 114.047 140.711C113.981 140.588 113.883 140.475 113.754 140.373C113.629 140.272 113.488 140.176 113.331 140.085C113.175 139.989 113.021 139.884 112.868 139.772C112.715 139.66 112.578 139.532 112.456 139.387C112.34 139.238 112.257 139.062 112.207 138.859C112.162 138.652 112.167 138.404 112.222 138.117C112.288 137.777 112.416 137.501 112.606 137.289C112.801 137.078 113.038 136.934 113.317 136.855C113.601 136.777 113.907 136.77 114.233 136.833C114.551 136.894 114.83 137.022 115.071 137.217C115.202 137.323 115.317 137.439 115.416 137.564C115.561 137.748 115.498 138.008 115.31 138.149V138.149C115.072 138.328 114.738 138.24 114.528 138.029C114.515 138.016 114.502 138.003 114.489 137.991C114.358 137.866 114.207 137.787 114.034 137.754C113.798 137.709 113.606 137.724 113.457 137.8C113.309 137.871 113.215 138.008 113.176 138.21C113.146 138.364 113.166 138.497 113.234 138.61C113.302 138.722 113.399 138.826 113.525 138.922C113.656 139.019 113.799 139.116 113.955 139.212C114.115 139.309 114.272 139.414 114.425 139.526C114.583 139.639 114.719 139.773 114.833 139.927C114.953 140.083 115.037 140.27 115.084 140.489C115.133 140.702 115.129 140.955 115.072 141.248C114.972 141.769 114.727 142.147 114.339 142.381C113.955 142.616 113.477 142.678 112.905 142.568ZM112.827 142.04L113.512 142.172L113.344 143.042C113.308 143.231 113.125 143.355 112.936 143.319V143.319C112.747 143.282 112.623 143.1 112.66 142.911L112.827 142.04ZM114.426 137.424L113.741 137.292L113.917 136.382C113.953 136.193 114.136 136.069 114.325 136.106V136.106C114.514 136.142 114.638 136.325 114.601 136.514L114.426 137.424Z" fill="white" fill-opacity="0.5"/>
<path d="M140.013 72.0468C139.779 72.7368 138.926 72.9071 138.47 72.3385C136.967 70.4616 134.405 66.6256 135.098 62.9705C135.977 58.5775 141.249 59.2803 141.776 62.9705C142.156 65.2525 140.799 69.7298 140.013 72.0468Z" fill="url(#paint1_linear_362_146)"/>
<circle cx="138.412" cy="64.1572" r="2.16602" fill="white" fill-opacity="0.5"/>
<path d="M95.0129 70.0468C94.7789 70.7368 93.9258 70.9071 93.4703 70.3385C91.9665 68.4616 89.4052 64.6256 90.0984 60.9705C90.977 56.5775 96.2487 57.2803 96.7758 60.9705C97.1562 63.2525 95.7986 67.7298 95.0129 70.0468Z" fill="url(#paint2_linear_362_146)"/>
<circle cx="93.4117" cy="62.1572" r="2.16602" fill="white" fill-opacity="0.5"/>
<path d="M112.013 116.047C111.779 116.737 110.926 116.907 110.47 116.339C108.967 114.462 106.405 110.626 107.098 106.97C107.977 102.577 113.249 103.28 113.776 106.97C114.156 109.253 112.799 113.73 112.013 116.047Z" fill="url(#paint3_linear_362_146)"/>
<circle cx="110.412" cy="108.157" r="2.16602" fill="white" fill-opacity="0.5"/>
<path d="M56.0129 123.047C55.7789 123.737 54.9258 123.907 54.4703 123.339C52.9665 121.462 50.4052 117.626 51.0984 113.97C51.977 109.577 57.2487 110.28 57.7758 113.97C58.1562 116.253 56.7986 120.73 56.0129 123.047Z" fill="url(#paint4_linear_362_146)"/>
<circle cx="54.4117" cy="115.157" r="2.16602" fill="white" fill-opacity="0.5"/>
<path d="M66.0129 109.047C65.7789 109.737 64.9258 109.907 64.4703 109.339C62.9665 107.462 60.4052 103.626 61.0984 99.9705C61.977 95.5775 67.2487 96.2803 67.7758 99.9705C68.1562 102.253 66.7986 106.73 66.0129 109.047Z" fill="url(#paint5_linear_362_146)"/>
<circle cx="64.4117" cy="101.157" r="2.16602" fill="white" fill-opacity="0.5"/>
<path d="M79.0129 126.047C78.7789 126.737 77.9258 126.907 77.4703 126.339C75.9665 124.462 73.4052 120.626 74.0984 116.97C74.977 112.577 80.2487 113.28 80.7758 116.97C81.1562 119.253 79.7986 123.73 79.0129 126.047Z" fill="url(#paint6_linear_362_146)"/>
<circle cx="77.4117" cy="118.157" r="2.16602" fill="white" fill-opacity="0.5"/>
<defs>
<filter id="filter0_f_362_146" x="0" y="0.654297" width="205.9" height="205.9" filterUnits="userSpaceOnUse" color-interpolation-filters="sRGB">
<feFlood flood-opacity="0" result="BackgroundImageFix"/>
<feBlend mode="normal" in="SourceGraphic" in2="BackgroundImageFix" result="shape"/>
<feGaussianBlur stdDeviation="26.5" result="effect1_foregroundBlur_362_146"/>
</filter>
<linearGradient id="paint0_linear_362_146" x1="102.517" y1="67.0537" x2="102.517" y2="149.065" gradientUnits="userSpaceOnUse">
<stop stop-color="#33B495"/>
<stop offset="1" stop-color="#088080"/>
</linearGradient>
<linearGradient id="paint1_linear_362_146" x1="138.412" y1="59.9336" x2="138.412" y2="73.5138" gradientUnits="userSpaceOnUse">
<stop stop-color="#86EB84"/>
<stop offset="1" stop-color="#8AEF89" stop-opacity="0"/>
</linearGradient>
<linearGradient id="paint2_linear_362_146" x1="93.4117" y1="57.9336" x2="93.4117" y2="71.5138" gradientUnits="userSpaceOnUse">
<stop stop-color="#86EB84"/>
<stop offset="1" stop-color="#8AEF89" stop-opacity="0"/>
</linearGradient>
<linearGradient id="paint3_linear_362_146" x1="110.412" y1="103.934" x2="110.412" y2="117.514" gradientUnits="userSpaceOnUse">
<stop stop-color="#86EB84"/>
<stop offset="1" stop-color="#8AEF89" stop-opacity="0"/>
</linearGradient>
<linearGradient id="paint4_linear_362_146" x1="54.4117" y1="110.934" x2="54.4117" y2="124.514" gradientUnits="userSpaceOnUse">
<stop stop-color="#86EB84"/>
<stop offset="1" stop-color="#8AEF89" stop-opacity="0"/>
</linearGradient>
<linearGradient id="paint5_linear_362_146" x1="64.4117" y1="96.9336" x2="64.4117" y2="110.514" gradientUnits="userSpaceOnUse">
<stop stop-color="#86EB84"/>
<stop offset="1" stop-color="#8AEF89" stop-opacity="0"/>
</linearGradient>
<linearGradient id="paint6_linear_362_146" x1="77.4117" y1="113.934" x2="77.4117" y2="127.514" gradientUnits="userSpaceOnUse">
<stop stop-color="#86EB84"/>
<stop offset="1" stop-color="#8AEF89" stop-opacity="0"/>
</linearGradient>
</defs>
</svg>
