<svg width="126" height="126" viewBox="0 0 126 126" fill="none" xmlns="http://www.w3.org/2000/svg">
<ellipse cx="63" cy="63.2506" rx="46" ry="45.7496" fill="url(#paint0_linear_366_17)"/>
<g filter="url(#filter0_d_366_17)">
<ellipse cx="63" cy="63.251" rx="34.8636" ry="34.6739" fill="url(#paint1_linear_366_17)"/>
</g>
<g filter="url(#filter1_b_366_17)">
<ellipse cx="94.5337" cy="75.8343" rx="16.3795" ry="16.2904" fill="url(#paint2_linear_366_17)"/>
</g>
<path d="M98.9264 67.7832H91.3541L89.8899 77.2282H93.2786L91.8143 83.8856L99.1775 74.3573H95.8724L98.9264 67.7832Z" fill="url(#paint3_linear_366_17)"/>
<g filter="url(#filter2_b_366_17)">
<rect x="48.5455" y="13" width="28.909" height="29.7972" rx="5" fill="url(#paint4_linear_366_17)"/>
</g>
<path d="M60.8671 20.1006V21.851C60.3818 21.851 60.0031 21.92 59.7311 22.0579C59.4591 22.1905 59.3418 22.4583 59.3791 22.8615L59.6271 25.2086C59.6911 25.8027 59.6245 26.2828 59.4271 26.6487C59.2351 27.0147 58.9391 27.2959 58.5391 27.4921C58.1445 27.6831 57.6778 27.8183 57.1391 27.8979C57.7098 27.9828 58.1925 28.1207 58.5871 28.3116C58.9818 28.5026 59.2698 28.7784 59.4511 29.1391C59.6325 29.4998 59.6911 29.9825 59.6271 30.5872L59.3791 32.9344C59.3418 33.3375 59.4591 33.6053 59.7311 33.738C60.0031 33.8759 60.3818 33.9448 60.8671 33.9448V35.6952C59.3951 35.6952 58.3605 35.4725 57.7631 35.0269C57.1711 34.5866 56.9311 33.8308 57.0431 32.7593L57.2831 30.4838C57.3471 29.8791 57.1685 29.468 56.7471 29.2505C56.3258 29.0277 55.7738 28.9163 55.0911 28.9163V26.8795C55.5391 26.8795 55.9365 26.8344 56.2831 26.7442C56.6298 26.6487 56.8938 26.487 57.0751 26.2589C57.2565 26.0308 57.3258 25.7152 57.2831 25.3121L57.0431 23.0524C56.9258 21.9597 57.1658 21.1959 57.7631 20.761C58.3605 20.3207 59.3951 20.1006 60.8671 20.1006Z" fill="white" fill-opacity="0.78"/>
<path d="M65.1329 20.1006C66.6049 20.1006 67.6369 20.3207 68.2289 20.761C68.8262 21.2012 69.0689 21.9597 68.9569 23.0365L68.7169 25.3121C68.6529 25.9168 68.8315 26.3305 69.2529 26.5533C69.6795 26.7707 70.2315 26.8795 70.9089 26.8795V28.9163C70.4609 28.9163 70.0635 28.9641 69.7169 29.0596C69.3702 29.1497 69.1062 29.3089 68.9249 29.5369C68.7435 29.765 68.6742 30.0806 68.7169 30.4838L68.9569 32.7434C69.0795 33.8308 68.8395 34.5946 68.2369 35.0349C67.6395 35.4751 66.6049 35.6952 65.1329 35.6952V33.9448C65.6235 33.9448 66.0049 33.8759 66.2769 33.738C66.5489 33.6053 66.6635 33.3375 66.6209 32.9344L66.3729 30.5872C66.3089 29.9878 66.3729 29.5078 66.5649 29.1471C66.7622 28.7811 67.0609 28.5026 67.4609 28.3116C67.8609 28.1154 68.3302 27.9775 68.8689 27.8979C68.2982 27.813 67.8129 27.6751 67.4129 27.4842C67.0182 27.2932 66.7302 27.0174 66.5489 26.6567C66.3675 26.2907 66.3089 25.808 66.3729 25.2086L66.6209 22.8615C66.6635 22.4583 66.5462 22.1905 66.2689 22.0579C65.9969 21.92 65.6182 21.851 65.1329 21.851V20.1006Z" fill="white" fill-opacity="0.78"/>
<g filter="url(#filter3_b_366_17)">
<ellipse cx="35.7798" cy="79.9394" rx="13.3077" ry="13.2353" fill="url(#paint5_linear_366_17)"/>
</g>
<path d="M35.6711 86.4952C34.6813 86.4952 33.8182 86.3271 33.0819 85.991C32.6674 85.795 32.2739 85.5438 31.9015 85.2375C31.3944 84.8204 31.4275 84.0636 31.8884 83.596C32.411 83.0657 33.2681 83.1258 33.8813 83.548C33.9811 83.6167 34.0828 83.6807 34.1864 83.74C34.6692 84.0041 35.2245 84.1361 35.8522 84.1361C36.4437 84.1361 36.9024 84.0281 37.2283 83.812C37.5542 83.5839 37.7172 83.2657 37.7172 82.8576C37.7172 82.5094 37.6085 82.2273 37.3913 82.0112C37.1861 81.7951 36.9084 81.609 36.5584 81.4529C36.2083 81.2969 35.822 81.1468 35.3995 81.0027C34.9771 80.8587 34.5546 80.6966 34.1321 80.5165C33.7217 80.3244 33.3414 80.0903 32.9914 79.8142C32.6413 79.5261 32.3576 79.1719 32.1404 78.7517C31.9231 78.3196 31.8145 77.7793 31.8145 77.131C31.8145 76.3507 32.0016 75.6784 32.3758 75.1141C32.762 74.5499 33.2871 74.1237 33.951 73.8356C34.6149 73.5354 35.3754 73.3854 36.2324 73.3854C37.0653 73.3854 37.8439 73.5414 38.5682 73.8536C38.8893 73.992 39.1843 74.1528 39.4532 74.336C40.0133 74.7176 39.9779 75.5022 39.5021 75.9849C38.9819 76.5128 38.1442 76.4666 37.5 76.1003C37.4698 76.0831 37.4396 76.0665 37.4094 76.0505C37.0352 75.8345 36.6248 75.7264 36.1781 75.7264C35.6591 75.7264 35.2547 75.8224 34.965 76.0145C34.6753 76.2066 34.5304 76.4887 34.5304 76.8609C34.5304 77.1851 34.6391 77.4492 34.8563 77.6533C35.0736 77.8453 35.3573 78.0134 35.7074 78.1575C36.0695 78.3015 36.4558 78.4456 36.8662 78.5897C37.2887 78.7337 37.7111 78.9018 38.1336 79.0939C38.5561 79.286 38.9424 79.5321 39.2924 79.8322C39.6546 80.1204 39.9443 80.4925 40.1616 80.9487C40.3788 81.3929 40.4875 81.9452 40.4875 82.6055C40.4875 83.818 40.059 84.7724 39.2019 85.4687C38.3569 86.153 37.18 86.4952 35.6711 86.4952ZM35.0736 86.0864C35.0736 85.5364 35.5195 85.0906 36.0695 85.0906C36.6195 85.0906 37.0653 85.5364 37.0653 86.0864V87.12C37.0653 87.67 36.6195 88.1159 36.0695 88.1159C35.5195 88.1159 35.0736 87.67 35.0736 87.12V86.0864ZM37.0653 73.6861C37.0653 74.2361 36.6195 74.6819 36.0695 74.6819C35.5195 74.6819 35.0736 74.2361 35.0736 73.6861V72.7605C35.0736 72.2105 35.5195 71.7646 36.0695 71.7646C36.6195 71.7646 37.0653 72.2105 37.0653 72.7605V73.6861Z" fill="url(#paint6_linear_366_17)"/>
<defs>
<filter id="filter0_d_366_17" x="0.136353" y="0.577148" width="125.727" height="125.348" filterUnits="userSpaceOnUse" color-interpolation-filters="sRGB">
<feFlood flood-opacity="0" result="BackgroundImageFix"/>
<feColorMatrix in="SourceAlpha" type="matrix" values="0 0 0 0 0 0 0 0 0 0 0 0 0 0 0 0 0 0 127 0" result="hardAlpha"/>
<feOffset/>
<feGaussianBlur stdDeviation="14"/>
<feComposite in2="hardAlpha" operator="out"/>
<feColorMatrix type="matrix" values="0 0 0 0 0.537255 0 0 0 0 0.933333 0 0 0 0 0.533333 0 0 0 0.39 0"/>
<feBlend mode="normal" in2="BackgroundImageFix" result="effect1_dropShadow_366_17"/>
<feBlend mode="normal" in="SourceGraphic" in2="effect1_dropShadow_366_17" result="shape"/>
</filter>
<filter id="filter1_b_366_17" x="68.1542" y="49.5439" width="52.759" height="52.5811" filterUnits="userSpaceOnUse" color-interpolation-filters="sRGB">
<feFlood flood-opacity="0" result="BackgroundImageFix"/>
<feGaussianBlur in="BackgroundImage" stdDeviation="5"/>
<feComposite in2="SourceAlpha" operator="in" result="effect1_backgroundBlur_366_17"/>
<feBlend mode="normal" in="SourceGraphic" in2="effect1_backgroundBlur_366_17" result="shape"/>
</filter>
<filter id="filter2_b_366_17" x="38.5455" y="3" width="48.909" height="49.7969" filterUnits="userSpaceOnUse" color-interpolation-filters="sRGB">
<feFlood flood-opacity="0" result="BackgroundImageFix"/>
<feGaussianBlur in="BackgroundImage" stdDeviation="5"/>
<feComposite in2="SourceAlpha" operator="in" result="effect1_backgroundBlur_366_17"/>
<feBlend mode="normal" in="SourceGraphic" in2="effect1_backgroundBlur_366_17" result="shape"/>
</filter>
<filter id="filter3_b_366_17" x="12.4721" y="56.7041" width="46.6154" height="46.4707" filterUnits="userSpaceOnUse" color-interpolation-filters="sRGB">
<feFlood flood-opacity="0" result="BackgroundImageFix"/>
<feGaussianBlur in="BackgroundImage" stdDeviation="5"/>
<feComposite in2="SourceAlpha" operator="in" result="effect1_backgroundBlur_366_17"/>
<feBlend mode="normal" in="SourceGraphic" in2="effect1_backgroundBlur_366_17" result="shape"/>
</filter>
<linearGradient id="paint0_linear_366_17" x1="27.5" y1="35.403" x2="101.426" y2="40.799" gradientUnits="userSpaceOnUse">
<stop stop-color="white" stop-opacity="0.2"/>
<stop offset="1" stop-color="white" stop-opacity="0.3"/>
</linearGradient>
<linearGradient id="paint1_linear_366_17" x1="36.0944" y1="42.1452" x2="92.1229" y2="46.2349" gradientUnits="userSpaceOnUse">
<stop stop-color="#0EA6A6"/>
<stop offset="1" stop-color="#54C451"/>
</linearGradient>
<linearGradient id="paint2_linear_366_17" x1="81.893" y1="65.9184" x2="108.216" y2="67.8398" gradientUnits="userSpaceOnUse">
<stop stop-color="white" stop-opacity="0.28"/>
<stop offset="1" stop-color="white" stop-opacity="0.24"/>
</linearGradient>
<linearGradient id="paint3_linear_366_17" x1="98.5878" y1="82.4964" x2="88.7063" y2="80.5788" gradientUnits="userSpaceOnUse">
<stop stop-color="#86EB84"/>
<stop offset="1" stop-color="#8AEF89"/>
</linearGradient>
<linearGradient id="paint4_linear_366_17" x1="50.3785" y1="13" x2="77.2919" y2="42.943" gradientUnits="userSpaceOnUse">
<stop stop-color="#33B495"/>
<stop offset="1" stop-color="#088080" stop-opacity="0"/>
</linearGradient>
<linearGradient id="paint5_linear_366_17" x1="23.384" y1="69.1133" x2="31.85" y2="97.3165" gradientUnits="userSpaceOnUse">
<stop stop-color="#86EB84"/>
<stop offset="0.97034" stop-color="#8AEF89" stop-opacity="0"/>
</linearGradient>
<linearGradient id="paint6_linear_366_17" x1="31.3947" y1="73.2528" x2="39.2037" y2="88.151" gradientUnits="userSpaceOnUse">
<stop stop-color="white"/>
<stop offset="0.97034" stop-color="white" stop-opacity="0"/>
</linearGradient>
</defs>
</svg>
