<svg width="207" height="207" viewBox="0 0 207 207" fill="none" xmlns="http://www.w3.org/2000/svg">
<rect x="42.5" y="46" width="131" height="131" rx="28" fill="#065353"/>
<g filter="url(#filter0_f_362_414)">
<circle cx="103.75" cy="103.65" r="49.95" fill="#58FFC3" fill-opacity="0.31"/>
</g>
<path d="M68.6001 157.3V66.0002C68.6001 61.1002 72.6001 57.2002 77.4001 57.2002H125.7C130.6 57.2002 134.5 61.2002 134.5 66.0002V157.3C134.5 162.2 130.5 166.1 125.7 166.1H77.4001C72.5001 166.2 68.6001 162.2 68.6001 157.3Z" fill="url(#paint0_linear_362_414)"/>
<path d="M73.2 150.8V72.5002C73.2 67.6002 77.1999 63.7002 81.9999 63.7002H121.1C126 63.7002 129.9 67.7002 129.9 72.5002V150.8C129.9 155.7 125.9 159.6 121.1 159.6H81.9999C77.1999 159.7 73.2 155.7 73.2 150.8Z" fill="white" fill-opacity="0.3"/>
<path d="M80.3 145.6V112.5C80.3 109.4 82.8001 106.9 85.9001 106.9H117.3C120.4 106.9 122.9 109.4 122.9 112.5V145.6C122.9 148.7 120.4 151.2 117.3 151.2H85.9001C82.8001 151.2 80.3 148.7 80.3 145.6Z" fill="url(#paint1_linear_362_414)"/>
<path d="M80.8 79.2004L120.6 78.9004" stroke="white" stroke-opacity="0.5" stroke-miterlimit="10" stroke-linecap="round"/>
<path d="M80.3 87.4002L120.1 87.2002" stroke="white" stroke-opacity="0.5" stroke-miterlimit="10" stroke-linecap="round"/>
<path d="M80.3 94.7004L93.6 94.4004" stroke="white" stroke-opacity="0.5" stroke-miterlimit="10" stroke-linecap="round"/>
<path d="M68.6 132.7C68.6 132.7 53.2 126.6 54.6 106C55.8 87.2002 75 76.6002 85.6 72.7002" stroke="white" stroke-opacity="0.5" stroke-miterlimit="10" stroke-linecap="round"/>
<path d="M80.2 71.0996C80.3 71.0996 85.7999 72.5996 85.7999 72.5996L83.4 77.1996" stroke="white" stroke-opacity="0.5" stroke-miterlimit="10" stroke-linecap="round"/>
<path d="M134.7 85.2002C134.7 85.2002 149.9 98.3002 147.7 115.4C145.3 134.2 131.4 152.6 108.4 153.6" stroke="white" stroke-opacity="0.5" stroke-miterlimit="10" stroke-linecap="round"/>
<path d="M113.6 147.7L107.7 153.8L114.8 156.7" stroke="white" stroke-opacity="0.5" stroke-miterlimit="10" stroke-linecap="round"/>
<path d="M144.2 161.2C146.685 161.2 148.7 159.185 148.7 156.7C148.7 154.215 146.685 152.2 144.2 152.2C141.715 152.2 139.7 154.215 139.7 156.7C139.7 159.185 141.715 161.2 144.2 161.2Z" fill="url(#paint2_linear_362_414)"/>
<path d="M57.9001 74.4002C60.1645 74.4002 62.0001 72.5645 62.0001 70.3002C62.0001 68.0358 60.1645 66.2002 57.9001 66.2002C55.6357 66.2002 53.8 68.0358 53.8 70.3002C53.8 72.5645 55.6357 74.4002 57.9001 74.4002Z" stroke="white" stroke-opacity="0.5" stroke-miterlimit="10" stroke-linecap="round"/>
<path d="M158.5 75.0996C160.433 75.0996 162 73.5326 162 71.5996C162 69.6666 160.433 68.0996 158.5 68.0996C156.567 68.0996 155 69.6666 155 71.5996C155 73.5326 156.567 75.0996 158.5 75.0996Z" stroke="white" stroke-opacity="0.5" stroke-miterlimit="10" stroke-linecap="round"/>
<defs>
<filter id="filter0_f_362_414" x="0.800049" y="0.700195" width="205.9" height="205.9" filterUnits="userSpaceOnUse" color-interpolation-filters="sRGB">
<feFlood flood-opacity="0" result="BackgroundImageFix"/>
<feBlend mode="normal" in="SourceGraphic" in2="BackgroundImageFix" result="shape"/>
<feGaussianBlur stdDeviation="26.5" result="effect1_foregroundBlur_362_414"/>
</filter>
<linearGradient id="paint0_linear_362_414" x1="101.56" y1="57.2002" x2="101.56" y2="166.102" gradientUnits="userSpaceOnUse">
<stop stop-color="#33B495"/>
<stop offset="1" stop-color="#088080"/>
</linearGradient>
<linearGradient id="paint1_linear_362_414" x1="81.7595" y1="110.932" x2="127.749" y2="138.965" gradientUnits="userSpaceOnUse">
<stop stop-color="#86EB84"/>
<stop offset="0.97034" stop-color="#8AEF89" stop-opacity="0"/>
</linearGradient>
<linearGradient id="paint2_linear_362_414" x1="139.7" y1="153.477" x2="149.756" y2="159.411" gradientUnits="userSpaceOnUse">
<stop stop-color="#7DFF7A"/>
<stop offset="1" stop-color="#73FB72" stop-opacity="0"/>
</linearGradient>
</defs>
</svg>
