<svg width="207" height="206" viewBox="0 0 207 206" fill="none" xmlns="http://www.w3.org/2000/svg">
<rect x="44.0116" y="34" width="131" height="131" rx="28" fill="#065353"/>
<g filter="url(#filter0_f_362_395)">
<circle cx="103.65" cy="102.95" r="49.95" fill="#58FFC3" fill-opacity="0.31"/>
</g>
<path d="M103.65 140.8C125.189 140.8 142.65 123.339 142.65 101.8C142.65 80.2607 125.189 62.7998 103.65 62.7998C82.111 62.7998 64.6501 80.2607 64.6501 101.8C64.6501 123.339 82.111 140.8 103.65 140.8Z" fill="url(#paint0_linear_362_395)"/>
<path d="M45.2499 70.0996L59.9499 87.8997L66.9499 88.1996" stroke="white" stroke-opacity="0.5" stroke-miterlimit="10" stroke-linecap="round"/>
<path d="M43.7501 70.4996C44.9651 70.4996 45.95 69.5146 45.95 68.2996C45.95 67.0846 44.9651 66.0996 43.7501 66.0996C42.535 66.0996 41.55 67.0846 41.55 68.2996C41.55 69.5146 42.535 70.4996 43.7501 70.4996Z" fill="url(#paint1_linear_362_395)"/>
<path d="M53.9501 131.7V106.4L64.8502 106.1" stroke="white" stroke-opacity="0.5" stroke-miterlimit="10" stroke-linecap="round"/>
<path d="M53.9499 136C55.1649 136 56.15 135.015 56.15 133.8C56.15 132.585 55.1649 131.6 53.9499 131.6C52.7349 131.6 51.7499 132.585 51.7499 133.8C51.7499 135.015 52.7349 136 53.9499 136Z" fill="url(#paint2_linear_362_395)"/>
<path d="M154.05 57.7998L153.65 86.5998L139.75 87.0998" stroke="white" stroke-opacity="0.5" stroke-miterlimit="10" stroke-linecap="round"/>
<path d="M162.05 64.4004L161.85 71.7004L154.05 71.9004" stroke="white" stroke-opacity="0.5" stroke-miterlimit="10" stroke-linecap="round"/>
<path d="M162.35 64.4C163.565 64.4 164.55 63.415 164.55 62.2C164.55 60.985 163.565 60 162.35 60C161.135 60 160.15 60.985 160.15 62.2C160.15 63.415 161.135 64.4 162.35 64.4Z" fill="url(#paint3_linear_362_395)"/>
<path d="M154.05 57.4C155.265 57.4 156.25 56.415 156.25 55.2C156.25 53.985 155.265 53 154.05 53C152.835 53 151.85 53.985 151.85 55.2C151.85 56.415 152.835 57.4 154.05 57.4Z" fill="url(#paint4_linear_362_395)"/>
<path d="M172.15 129.7L152.55 121.7V108.4L142.55 108.3" stroke="white" stroke-opacity="0.5" stroke-miterlimit="10" stroke-linecap="round"/>
<path d="M174.25 132.8C175.465 132.8 176.45 131.815 176.45 130.6C176.45 129.385 175.465 128.4 174.25 128.4C173.035 128.4 172.05 129.385 172.05 130.6C172.05 131.815 173.035 132.8 174.25 132.8Z" fill="url(#paint5_linear_362_395)"/>
<path d="M137.55 72.5001C137.55 72.5001 124.35 53.6002 100.65 55.9002C81.8502 57.7002 72.8501 69.1001 67.9501 75.5001" stroke="white" stroke-opacity="0.5" stroke-miterlimit="10" stroke-linecap="round"/>
<path d="M103.405 123.216C100.026 123.216 97.0791 122.639 94.565 121.485C93.1431 120.809 91.7936 119.941 90.5167 118.883C88.7939 117.455 88.907 114.878 90.4734 113.28C92.2634 111.453 95.2099 111.66 97.3148 113.112C97.6488 113.342 97.9893 113.557 98.3361 113.757C99.9847 114.664 101.881 115.117 104.024 115.117C106.043 115.117 107.609 114.746 108.722 114.004C109.835 113.221 110.391 112.129 110.391 110.728C110.391 109.532 110.02 108.564 109.279 107.822C108.578 107.08 107.63 106.441 106.435 105.906C105.24 105.37 103.921 104.855 102.478 104.36C101.036 103.865 99.5932 103.309 98.1507 102.691C96.7494 102.031 95.4511 101.228 94.2559 100.28C93.0607 99.2906 92.0922 98.0748 91.3503 96.6323C90.6084 95.1486 90.2375 93.2939 90.2375 91.0683C90.2375 88.3894 90.8763 86.0814 92.154 84.1443C93.4728 82.2072 95.2657 80.7441 97.5324 79.755C99.7992 78.7246 102.396 78.2095 105.322 78.2095C108.166 78.2095 110.824 78.7452 113.297 79.8168C114.401 80.2951 115.414 80.8513 116.337 81.4855C118.241 82.794 118.12 85.4669 116.502 87.1169C114.72 88.9351 111.84 88.7754 109.627 87.5166C109.531 87.4624 109.436 87.4098 109.34 87.359C108.063 86.6172 106.661 86.2463 105.137 86.2463C103.364 86.2463 101.984 86.576 100.994 87.2354C100.005 87.8948 99.5107 88.8634 99.5107 90.141C99.5107 91.2538 99.8817 92.1605 100.624 92.8612C101.365 93.5206 102.334 94.0976 103.529 94.5922C104.766 95.0867 106.084 95.5813 107.486 96.0759C108.928 96.5705 110.371 97.1475 111.813 97.8069C113.256 98.4663 114.575 99.3112 115.77 100.342C117.006 101.331 117.995 102.608 118.737 104.175C119.479 105.699 119.85 107.595 119.85 109.862C119.85 114.025 118.387 117.301 115.461 119.692C112.576 122.041 108.557 123.216 103.405 123.216ZM101.365 121.794C101.365 119.916 102.888 118.393 104.766 118.393C106.643 118.393 108.166 119.916 108.166 121.794V125.379C108.166 127.257 106.643 128.779 104.766 128.779C102.888 128.779 101.365 127.257 101.365 125.379V121.794ZM108.166 79.2604C108.166 81.1383 106.643 82.6606 104.766 82.6606C102.888 82.6606 101.365 81.1383 101.365 79.2604V76.0457C101.365 74.1678 102.888 72.6455 104.766 72.6455C106.643 72.6455 108.166 74.1678 108.166 76.0457V79.2604Z" fill="url(#paint6_linear_362_395)"/>
<path d="M147.25 89.7002C147.25 89.7002 149.95 95.0002 148.95 102.5" stroke="white" stroke-opacity="0.5" stroke-miterlimit="10" stroke-linecap="round"/>
<path d="M137.55 132.8C138.765 132.8 139.75 131.815 139.75 130.6C139.75 129.385 138.765 128.4 137.55 128.4C136.335 128.4 135.35 129.385 135.35 130.6C135.35 131.815 136.335 132.8 137.55 132.8Z" fill="url(#paint7_linear_362_395)"/>
<path d="M134.85 143.4C134.85 145.057 133.507 146.4 131.85 146.4C130.193 146.4 128.85 145.057 128.85 143.4C128.85 141.744 130.193 140.4 131.85 140.4C133.507 140.4 134.85 141.744 134.85 143.4Z" stroke="url(#paint8_linear_362_395)"/>
<defs>
<filter id="filter0_f_362_395" x="0.700134" y="0" width="205.9" height="205.9" filterUnits="userSpaceOnUse" color-interpolation-filters="sRGB">
<feFlood flood-opacity="0" result="BackgroundImageFix"/>
<feBlend mode="normal" in="SourceGraphic" in2="BackgroundImageFix" result="shape"/>
<feGaussianBlur stdDeviation="26.5" result="effect1_foregroundBlur_362_395"/>
</filter>
<linearGradient id="paint0_linear_362_395" x1="103.661" y1="62.7998" x2="103.661" y2="140.8" gradientUnits="userSpaceOnUse">
<stop stop-color="#33B495"/>
<stop offset="1" stop-color="#088080"/>
</linearGradient>
<linearGradient id="paint1_linear_362_395" x1="41.7007" y1="66.5001" x2="46.3484" y2="69.4461" gradientUnits="userSpaceOnUse">
<stop stop-color="#86EB84"/>
<stop offset="0.97034" stop-color="#8AEF89" stop-opacity="0"/>
</linearGradient>
<linearGradient id="paint2_linear_362_395" x1="51.9007" y1="132" x2="56.5483" y2="134.946" gradientUnits="userSpaceOnUse">
<stop stop-color="white"/>
<stop offset="0.97034" stop-color="white" stop-opacity="0"/>
</linearGradient>
<linearGradient id="paint3_linear_362_395" x1="160.301" y1="60.4005" x2="164.948" y2="63.3463" gradientUnits="userSpaceOnUse">
<stop stop-color="#86EB84"/>
<stop offset="0.97034" stop-color="#8AEF89" stop-opacity="0"/>
</linearGradient>
<linearGradient id="paint4_linear_362_395" x1="152.001" y1="53.4005" x2="156.648" y2="56.3465" gradientUnits="userSpaceOnUse">
<stop stop-color="#86EB84"/>
<stop offset="0.97034" stop-color="#8AEF89" stop-opacity="0"/>
</linearGradient>
<linearGradient id="paint5_linear_362_395" x1="172.201" y1="128.801" x2="176.848" y2="131.747" gradientUnits="userSpaceOnUse">
<stop stop-color="#86EB84"/>
<stop offset="0.97034" stop-color="#8AEF89" stop-opacity="0"/>
</linearGradient>
<linearGradient id="paint6_linear_362_395" x1="88.8042" y1="77.7544" x2="115.696" y2="128.779" gradientUnits="userSpaceOnUse">
<stop stop-color="#86EB84"/>
<stop offset="0.97034" stop-color="#8AEF89" stop-opacity="0"/>
</linearGradient>
<linearGradient id="paint7_linear_362_395" x1="135.501" y1="128.801" x2="140.148" y2="131.747" gradientUnits="userSpaceOnUse">
<stop stop-color="#86EB84"/>
<stop offset="0.97034" stop-color="#8AEF89" stop-opacity="0"/>
</linearGradient>
<linearGradient id="paint8_linear_362_395" x1="128.35" y1="140.894" x2="136.171" y2="145.509" gradientUnits="userSpaceOnUse">
<stop stop-color="#7DFF7A"/>
<stop offset="1" stop-color="#73FB72" stop-opacity="0"/>
</linearGradient>
</defs>
</svg>
